<mxfile host="app.diagrams.net" modified="2023-04-29T17:21:14.082Z" agent="Mozilla/5.0 (Windows NT 10.0; Win64; x64) AppleWebKit/537.36 (KHTML, like Gecko) Chrome/112.0.0.0 Safari/537.36" etag="QJQvuIb2KC7IRgtMeXyy" version="21.2.3" type="github">
  <diagram name="Page-1" id="c4acf3e9-155e-7222-9cf6-157b1a14988f">
    <mxGraphModel dx="8284" dy="5256" grid="1" gridSize="10" guides="1" tooltips="1" connect="1" arrows="1" fold="1" page="1" pageScale="1" pageWidth="850" pageHeight="1100" background="none" math="0" shadow="0">
      <root>
        <mxCell id="0" />
        <mxCell id="1" parent="0" />
        <mxCell id="6mkCIRbmMQfoTAYwDSCQ-61" value="" style="edgeStyle=orthogonalEdgeStyle;rounded=0;orthogonalLoop=1;jettySize=auto;html=1;endArrow=classic;endFill=1;startArrow=diamondThin;startFill=0;endSize=6;startSize=16;" parent="1" source="17acba5748e5396b-20" target="17acba5748e5396b-33" edge="1">
          <mxGeometry relative="1" as="geometry" />
        </mxCell>
        <mxCell id="FcwqcfeG6PIgrdVunfL2-125" style="edgeStyle=orthogonalEdgeStyle;rounded=0;orthogonalLoop=1;jettySize=auto;html=1;exitX=0.25;exitY=0;exitDx=0;exitDy=0;entryX=0.5;entryY=1;entryDx=0;entryDy=0;" edge="1" parent="1" source="17acba5748e5396b-20" target="FcwqcfeG6PIgrdVunfL2-118">
          <mxGeometry relative="1" as="geometry">
            <Array as="points">
              <mxPoint x="78" y="-65" />
              <mxPoint x="78" y="-220" />
            </Array>
          </mxGeometry>
        </mxCell>
        <mxCell id="17acba5748e5396b-20" value="Board" style="swimlane;html=1;fontStyle=0;childLayout=stackLayout;horizontal=1;startSize=26;fillColor=none;horizontalStack=0;resizeParent=1;resizeLast=0;collapsible=1;marginBottom=0;swimlaneFillColor=#ffffff;rounded=0;shadow=0;comic=0;labelBackgroundColor=none;strokeWidth=1;fontFamily=Verdana;fontSize=10;align=center;" parent="1" vertex="1">
          <mxGeometry x="30" y="90" width="190" height="192" as="geometry" />
        </mxCell>
        <mxCell id="XtxYPDcPfNEDLWMkmPID-65" value="- numberOfUsableTiles: int" style="text;html=1;strokeColor=none;fillColor=none;align=left;verticalAlign=top;spacingLeft=4;spacingRight=4;whiteSpace=wrap;overflow=hidden;rotatable=0;points=[[0,0.5],[1,0.5]];portConstraint=eastwest;fontSize=11;" parent="17acba5748e5396b-20" vertex="1">
          <mxGeometry y="26" width="190" height="22" as="geometry" />
        </mxCell>
        <mxCell id="ETVMtuT10l9wvVC2BpGE-5" value="- numColumns: int = 9 {readOnly}" style="text;html=1;strokeColor=none;fillColor=none;align=left;verticalAlign=top;spacingLeft=4;spacingRight=4;whiteSpace=wrap;overflow=hidden;rotatable=0;points=[[0,0.5],[1,0.5]];portConstraint=eastwest;fontSize=11;" parent="17acba5748e5396b-20" vertex="1">
          <mxGeometry y="48" width="190" height="22" as="geometry" />
        </mxCell>
        <mxCell id="ETVMtuT10l9wvVC2BpGE-6" value="- numRows: int = 9 {readOnly}" style="text;html=1;strokeColor=none;fillColor=none;align=left;verticalAlign=top;spacingLeft=4;spacingRight=4;whiteSpace=wrap;overflow=hidden;rotatable=0;points=[[0,0.5],[1,0.5]];portConstraint=eastwest;fontSize=11;" parent="17acba5748e5396b-20" vertex="1">
          <mxGeometry y="70" width="190" height="24" as="geometry" />
        </mxCell>
        <mxCell id="XtxYPDcPfNEDLWMkmPID-40" value="" style="endArrow=none;html=1;rounded=0;exitX=0.002;exitY=-0.016;exitDx=0;exitDy=0;exitPerimeter=0;" parent="17acba5748e5396b-20" edge="1">
          <mxGeometry width="50" height="50" relative="1" as="geometry">
            <mxPoint y="94" as="sourcePoint" />
            <mxPoint x="190" y="94.20999999999998" as="targetPoint" />
          </mxGeometry>
        </mxCell>
        <mxCell id="ETVMtuT10l9wvVC2BpGE-2" value="+ addTiles(ArrayList&amp;lt;Tile&amp;gt;): void" style="text;html=1;strokeColor=none;fillColor=none;align=left;verticalAlign=top;spacingLeft=4;spacingRight=4;whiteSpace=wrap;overflow=hidden;rotatable=0;points=[[0,0.5],[1,0.5]];portConstraint=eastwest;fontSize=11;" parent="17acba5748e5396b-20" vertex="1">
          <mxGeometry y="94" width="190" height="24" as="geometry" />
        </mxCell>
        <mxCell id="ETVMtuT10l9wvVC2BpGE-4" value="+ numberOfTilesToRefill(): int" style="text;html=1;strokeColor=none;fillColor=none;align=left;verticalAlign=top;spacingLeft=4;spacingRight=4;whiteSpace=wrap;overflow=hidden;rotatable=0;points=[[0,0.5],[1,0.5]];portConstraint=eastwest;fontSize=11;" parent="17acba5748e5396b-20" vertex="1">
          <mxGeometry y="118" width="190" height="26" as="geometry" />
        </mxCell>
        <mxCell id="ETVMtuT10l9wvVC2BpGE-3" value="+ removeTiles(Tile[], int[]): void" style="text;html=1;strokeColor=none;fillColor=none;align=left;verticalAlign=top;spacingLeft=4;spacingRight=4;whiteSpace=wrap;overflow=hidden;rotatable=0;points=[[0,0.5],[1,0.5]];portConstraint=eastwest;fontSize=11;" parent="17acba5748e5396b-20" vertex="1">
          <mxGeometry y="144" width="190" height="24" as="geometry" />
        </mxCell>
        <mxCell id="FcwqcfeG6PIgrdVunfL2-31" value="+ toString(): String" style="text;html=1;strokeColor=none;fillColor=none;align=left;verticalAlign=top;spacingLeft=4;spacingRight=4;whiteSpace=wrap;overflow=hidden;rotatable=0;points=[[0,0.5],[1,0.5]];portConstraint=eastwest;fontSize=11;" vertex="1" parent="17acba5748e5396b-20">
          <mxGeometry y="168" width="190" height="24" as="geometry" />
        </mxCell>
        <mxCell id="17acba5748e5396b-30" value="Tile" style="swimlane;html=1;fontStyle=0;childLayout=stackLayout;horizontal=1;startSize=26;fillColor=none;horizontalStack=0;resizeParent=1;resizeLast=0;collapsible=1;marginBottom=0;swimlaneFillColor=#ffffff;rounded=0;shadow=0;comic=0;labelBackgroundColor=none;strokeWidth=1;fontFamily=Verdana;fontSize=10;align=center;" parent="1" vertex="1">
          <mxGeometry x="240" y="410" width="240" height="100" as="geometry" />
        </mxCell>
        <mxCell id="17acba5748e5396b-33" value="- color: TileColor" style="text;html=1;strokeColor=none;fillColor=none;align=left;verticalAlign=top;spacingLeft=4;spacingRight=4;whiteSpace=wrap;overflow=hidden;rotatable=0;points=[[0,0.5],[1,0.5]];portConstraint=eastwest;" parent="17acba5748e5396b-30" vertex="1">
          <mxGeometry y="26" width="240" height="26" as="geometry" />
        </mxCell>
        <mxCell id="ETVMtuT10l9wvVC2BpGE-9" value="- imageID: int" style="text;html=1;strokeColor=none;fillColor=none;align=left;verticalAlign=top;spacingLeft=4;spacingRight=4;whiteSpace=wrap;overflow=hidden;rotatable=0;points=[[0,0.5],[1,0.5]];portConstraint=eastwest;" parent="17acba5748e5396b-30" vertex="1">
          <mxGeometry y="52" width="240" height="28" as="geometry" />
        </mxCell>
        <mxCell id="6mkCIRbmMQfoTAYwDSCQ-10" value="&lt;p style=&quot;margin:0px;margin-top:4px;text-align:center;&quot;&gt;&lt;i&gt;&amp;lt;&amp;lt;enumeration&amp;gt;&amp;gt;&lt;/i&gt;&lt;br&gt;&lt;b&gt;TileColor&lt;/b&gt;&lt;/p&gt;" style="verticalAlign=top;align=left;overflow=fill;fontSize=12;fontFamily=Helvetica;html=1;rounded=0;shadow=0;comic=0;labelBackgroundColor=none;strokeWidth=1" parent="1" vertex="1">
          <mxGeometry x="500" y="200" width="140" height="210" as="geometry" />
        </mxCell>
        <mxCell id="6mkCIRbmMQfoTAYwDSCQ-11" value="GREEN" style="text;html=1;strokeColor=none;fillColor=none;align=left;verticalAlign=top;spacingLeft=4;spacingRight=4;whiteSpace=wrap;overflow=hidden;rotatable=0;points=[[0,0.5],[1,0.5]];portConstraint=eastwest;" parent="1" vertex="1">
          <mxGeometry x="500" y="232" width="155" height="26" as="geometry" />
        </mxCell>
        <mxCell id="6mkCIRbmMQfoTAYwDSCQ-13" value="YELLOW" style="text;html=1;strokeColor=none;fillColor=none;align=left;verticalAlign=top;spacingLeft=4;spacingRight=4;whiteSpace=wrap;overflow=hidden;rotatable=0;points=[[0,0.5],[1,0.5]];portConstraint=eastwest;" parent="1" vertex="1">
          <mxGeometry x="500" y="257" width="155" height="26" as="geometry" />
        </mxCell>
        <mxCell id="6mkCIRbmMQfoTAYwDSCQ-14" value="WHITE" style="text;html=1;strokeColor=none;fillColor=none;align=left;verticalAlign=top;spacingLeft=4;spacingRight=4;whiteSpace=wrap;overflow=hidden;rotatable=0;points=[[0,0.5],[1,0.5]];portConstraint=eastwest;" parent="1" vertex="1">
          <mxGeometry x="500" y="282" width="155" height="26" as="geometry" />
        </mxCell>
        <mxCell id="6mkCIRbmMQfoTAYwDSCQ-15" value="BLUE" style="text;html=1;strokeColor=none;fillColor=none;align=left;verticalAlign=top;spacingLeft=4;spacingRight=4;whiteSpace=wrap;overflow=hidden;rotatable=0;points=[[0,0.5],[1,0.5]];portConstraint=eastwest;" parent="1" vertex="1">
          <mxGeometry x="500" y="308" width="155" height="26" as="geometry" />
        </mxCell>
        <mxCell id="6mkCIRbmMQfoTAYwDSCQ-18" value="ScoreTile" style="swimlane;html=1;fontStyle=0;childLayout=stackLayout;horizontal=1;startSize=26;fillColor=none;horizontalStack=0;resizeParent=1;resizeLast=0;collapsible=1;marginBottom=0;swimlaneFillColor=#ffffff;rounded=0;shadow=0;comic=0;labelBackgroundColor=none;strokeWidth=1;fontFamily=Verdana;fontSize=10;align=center;" parent="1" vertex="1">
          <mxGeometry x="690" y="840" width="130" height="110" as="geometry" />
        </mxCell>
        <mxCell id="6mkCIRbmMQfoTAYwDSCQ-19" value="- value: int" style="text;html=1;strokeColor=none;fillColor=none;align=left;verticalAlign=top;spacingLeft=4;spacingRight=4;whiteSpace=wrap;overflow=hidden;rotatable=0;points=[[0,0.5],[1,0.5]];portConstraint=eastwest;" parent="6mkCIRbmMQfoTAYwDSCQ-18" vertex="1">
          <mxGeometry y="26" width="130" height="26" as="geometry" />
        </mxCell>
        <mxCell id="FcwqcfeG6PIgrdVunfL2-63" value="- playerID: int" style="text;html=1;strokeColor=none;fillColor=none;align=left;verticalAlign=top;spacingLeft=4;spacingRight=4;whiteSpace=wrap;overflow=hidden;rotatable=0;points=[[0,0.5],[1,0.5]];portConstraint=eastwest;" vertex="1" parent="6mkCIRbmMQfoTAYwDSCQ-18">
          <mxGeometry y="52" width="130" height="26" as="geometry" />
        </mxCell>
        <mxCell id="FcwqcfeG6PIgrdVunfL2-64" value="- commonGoalID: int" style="text;html=1;strokeColor=none;fillColor=none;align=left;verticalAlign=top;spacingLeft=4;spacingRight=4;whiteSpace=wrap;overflow=hidden;rotatable=0;points=[[0,0.5],[1,0.5]];portConstraint=eastwest;" vertex="1" parent="6mkCIRbmMQfoTAYwDSCQ-18">
          <mxGeometry y="78" width="130" height="26" as="geometry" />
        </mxCell>
        <mxCell id="6mkCIRbmMQfoTAYwDSCQ-24" style="edgeStyle=orthogonalEdgeStyle;rounded=0;orthogonalLoop=1;jettySize=auto;html=1;entryX=-0.008;entryY=0.045;entryDx=0;entryDy=0;entryPerimeter=0;exitX=0.75;exitY=0;exitDx=0;exitDy=0;" parent="1" target="6mkCIRbmMQfoTAYwDSCQ-14" edge="1">
          <mxGeometry relative="1" as="geometry">
            <mxPoint x="460" y="410" as="sourcePoint" />
            <Array as="points">
              <mxPoint x="461" y="410" />
              <mxPoint x="461" y="283" />
            </Array>
          </mxGeometry>
        </mxCell>
        <mxCell id="6mkCIRbmMQfoTAYwDSCQ-37" style="edgeStyle=orthogonalEdgeStyle;rounded=0;orthogonalLoop=1;jettySize=auto;html=1;startArrow=diamondThin;startFill=0;endSize=6;startSize=16;endArrow=classic;endFill=1;entryX=1;entryY=0.5;entryDx=0;entryDy=0;exitX=0;exitY=0.5;exitDx=0;exitDy=0;" parent="1" target="ETVMtuT10l9wvVC2BpGE-9" edge="1">
          <mxGeometry relative="1" as="geometry">
            <mxPoint x="610" y="420" as="targetPoint" />
            <Array as="points">
              <mxPoint x="610" y="476" />
            </Array>
            <mxPoint x="700" y="477" as="sourcePoint" />
          </mxGeometry>
        </mxCell>
        <mxCell id="6mkCIRbmMQfoTAYwDSCQ-33" value="Bookshelf" style="swimlane;html=1;fontStyle=0;childLayout=stackLayout;horizontal=1;startSize=26;fillColor=none;horizontalStack=0;resizeParent=1;resizeLast=0;collapsible=1;marginBottom=0;swimlaneFillColor=#ffffff;rounded=0;shadow=0;comic=0;labelBackgroundColor=none;strokeWidth=1;fontFamily=Verdana;fontSize=10;align=center;strokeColor=default;" parent="1" vertex="1">
          <mxGeometry x="700" y="275" width="200" height="495" as="geometry" />
        </mxCell>
        <mxCell id="6mkCIRbmMQfoTAYwDSCQ-39" value="- numColumns: int = 5 {readOnly}" style="text;html=1;strokeColor=none;fillColor=none;align=left;verticalAlign=top;spacingLeft=4;spacingRight=4;whiteSpace=wrap;overflow=hidden;rotatable=0;points=[[0,0.5],[1,0.5]];portConstraint=eastwest;" parent="6mkCIRbmMQfoTAYwDSCQ-33" vertex="1">
          <mxGeometry y="26" width="200" height="26" as="geometry" />
        </mxCell>
        <mxCell id="6mkCIRbmMQfoTAYwDSCQ-40" value="- numRows: int = 6 {readOnly}" style="text;html=1;strokeColor=none;fillColor=none;align=left;verticalAlign=top;spacingLeft=4;spacingRight=4;whiteSpace=wrap;overflow=hidden;rotatable=0;points=[[0,0.5],[1,0.5]];portConstraint=eastwest;" parent="6mkCIRbmMQfoTAYwDSCQ-33" vertex="1">
          <mxGeometry y="52" width="200" height="26" as="geometry" />
        </mxCell>
        <mxCell id="FcwqcfeG6PIgrdVunfL2-54" value="- &lt;i&gt;pointsForEachGroup: Map&amp;lt;Integer, Integer&amp;gt; = ((3,2),(4,3),(5,5),(6,8)) {readOnly}&lt;/i&gt;" style="text;html=1;strokeColor=none;fillColor=none;align=left;verticalAlign=top;spacingLeft=4;spacingRight=4;whiteSpace=wrap;overflow=hidden;rotatable=0;points=[[0,0.5],[1,0.5]];portConstraint=eastwest;" vertex="1" parent="6mkCIRbmMQfoTAYwDSCQ-33">
          <mxGeometry y="78" width="200" height="62" as="geometry" />
        </mxCell>
        <mxCell id="XtxYPDcPfNEDLWMkmPID-58" value="" style="endArrow=none;html=1;rounded=0;entryX=0.998;entryY=0.005;entryDx=0;entryDy=0;entryPerimeter=0;" parent="6mkCIRbmMQfoTAYwDSCQ-33" edge="1">
          <mxGeometry width="50" height="50" relative="1" as="geometry">
            <mxPoint y="140" as="sourcePoint" />
            <mxPoint x="200" y="140" as="targetPoint" />
          </mxGeometry>
        </mxCell>
        <mxCell id="FcwqcfeG6PIgrdVunfL2-47" value="+ isFull(): boolean" style="text;html=1;strokeColor=none;fillColor=none;align=left;verticalAlign=top;spacingLeft=4;spacingRight=4;whiteSpace=wrap;overflow=hidden;rotatable=0;points=[[0,0.5],[1,0.5]];portConstraint=eastwest;" vertex="1" parent="6mkCIRbmMQfoTAYwDSCQ-33">
          <mxGeometry y="140" width="200" height="26" as="geometry" />
        </mxCell>
        <mxCell id="FcwqcfeG6PIgrdVunfL2-48" value="+ addTile(Tile, int): void" style="text;html=1;strokeColor=none;fillColor=none;align=left;verticalAlign=top;spacingLeft=4;spacingRight=4;whiteSpace=wrap;overflow=hidden;rotatable=0;points=[[0,0.5],[1,0.5]];portConstraint=eastwest;" vertex="1" parent="6mkCIRbmMQfoTAYwDSCQ-33">
          <mxGeometry y="166" width="200" height="26" as="geometry" />
        </mxCell>
        <mxCell id="FcwqcfeG6PIgrdVunfL2-49" value="+ getNumberOfEmptyCells&lt;br&gt;InColumn(int): int" style="text;html=1;strokeColor=none;fillColor=none;align=left;verticalAlign=top;spacingLeft=4;spacingRight=4;whiteSpace=wrap;overflow=hidden;rotatable=0;points=[[0,0.5],[1,0.5]];portConstraint=eastwest;" vertex="1" parent="6mkCIRbmMQfoTAYwDSCQ-33">
          <mxGeometry y="192" width="200" height="38" as="geometry" />
        </mxCell>
        <mxCell id="FcwqcfeG6PIgrdVunfL2-58" value="+ setSingleTile(Tile,int,int): void" style="text;html=1;strokeColor=none;fillColor=none;align=left;verticalAlign=top;spacingLeft=4;spacingRight=4;whiteSpace=wrap;overflow=hidden;rotatable=0;points=[[0,0.5],[1,0.5]];portConstraint=eastwest;" vertex="1" parent="6mkCIRbmMQfoTAYwDSCQ-33">
          <mxGeometry y="230" width="200" height="26" as="geometry" />
        </mxCell>
        <mxCell id="FcwqcfeG6PIgrdVunfL2-50" value="+ getSingleTile(int,int): Tile" style="text;html=1;strokeColor=none;fillColor=none;align=left;verticalAlign=top;spacingLeft=4;spacingRight=4;whiteSpace=wrap;overflow=hidden;rotatable=0;points=[[0,0.5],[1,0.5]];portConstraint=eastwest;" vertex="1" parent="6mkCIRbmMQfoTAYwDSCQ-33">
          <mxGeometry y="256" width="200" height="26" as="geometry" />
        </mxCell>
        <mxCell id="FcwqcfeG6PIgrdVunfL2-52" value="+ isRowFull(int): boolean" style="text;html=1;strokeColor=none;fillColor=none;align=left;verticalAlign=top;spacingLeft=4;spacingRight=4;whiteSpace=wrap;overflow=hidden;rotatable=0;points=[[0,0.5],[1,0.5]];portConstraint=eastwest;" vertex="1" parent="6mkCIRbmMQfoTAYwDSCQ-33">
          <mxGeometry y="282" width="200" height="26" as="geometry" />
        </mxCell>
        <mxCell id="FcwqcfeG6PIgrdVunfL2-53" value="+ isColumnFull(int): boolean" style="text;html=1;strokeColor=none;fillColor=none;align=left;verticalAlign=top;spacingLeft=4;spacingRight=4;whiteSpace=wrap;overflow=hidden;rotatable=0;points=[[0,0.5],[1,0.5]];portConstraint=eastwest;" vertex="1" parent="6mkCIRbmMQfoTAYwDSCQ-33">
          <mxGeometry y="308" width="200" height="26" as="geometry" />
        </mxCell>
        <mxCell id="FcwqcfeG6PIgrdVunfL2-51" value="+ getNumberOfTilesIn&lt;br&gt;Column(int): int" style="text;html=1;strokeColor=none;fillColor=none;align=left;verticalAlign=top;spacingLeft=4;spacingRight=4;whiteSpace=wrap;overflow=hidden;rotatable=0;points=[[0,0.5],[1,0.5]];portConstraint=eastwest;" vertex="1" parent="6mkCIRbmMQfoTAYwDSCQ-33">
          <mxGeometry y="334" width="200" height="34" as="geometry" />
        </mxCell>
        <mxCell id="FcwqcfeG6PIgrdVunfL2-59" value="+ getMaxNumberOfCellsFreeIn&lt;br&gt;Bookshelf (): int" style="text;html=1;strokeColor=none;fillColor=none;align=left;verticalAlign=top;spacingLeft=4;spacingRight=4;whiteSpace=wrap;overflow=hidden;rotatable=0;points=[[0,0.5],[1,0.5]];portConstraint=eastwest;" vertex="1" parent="6mkCIRbmMQfoTAYwDSCQ-33">
          <mxGeometry y="368" width="200" height="34" as="geometry" />
        </mxCell>
        <mxCell id="FcwqcfeG6PIgrdVunfL2-60" value="+ score(): int" style="text;html=1;strokeColor=none;fillColor=none;align=left;verticalAlign=top;spacingLeft=4;spacingRight=4;whiteSpace=wrap;overflow=hidden;rotatable=0;points=[[0,0.5],[1,0.5]];portConstraint=eastwest;" vertex="1" parent="6mkCIRbmMQfoTAYwDSCQ-33">
          <mxGeometry y="402" width="200" height="18" as="geometry" />
        </mxCell>
        <mxCell id="FcwqcfeG6PIgrdVunfL2-61" value="- assignGroupBookshelf&lt;br&gt;EqualTiles(int[][], int, int, int, TileColor): void" style="text;html=1;strokeColor=none;fillColor=none;align=left;verticalAlign=top;spacingLeft=4;spacingRight=4;whiteSpace=wrap;overflow=hidden;rotatable=0;points=[[0,0.5],[1,0.5]];portConstraint=eastwest;" vertex="1" parent="6mkCIRbmMQfoTAYwDSCQ-33">
          <mxGeometry y="420" width="200" height="50" as="geometry" />
        </mxCell>
        <mxCell id="FcwqcfeG6PIgrdVunfL2-62" value="+ toString(): String" style="text;html=1;strokeColor=none;fillColor=none;align=left;verticalAlign=top;spacingLeft=4;spacingRight=4;whiteSpace=wrap;overflow=hidden;rotatable=0;points=[[0,0.5],[1,0.5]];portConstraint=eastwest;" vertex="1" parent="6mkCIRbmMQfoTAYwDSCQ-33">
          <mxGeometry y="470" width="200" height="20" as="geometry" />
        </mxCell>
        <mxCell id="6mkCIRbmMQfoTAYwDSCQ-38" value="0..N" style="edgeLabel;html=1;align=center;verticalAlign=middle;resizable=0;points=[];" parent="1" vertex="1" connectable="0">
          <mxGeometry x="609.9963034871321" y="499.9991846955834" as="geometry">
            <mxPoint x="59" y="-7" as="offset" />
          </mxGeometry>
        </mxCell>
        <mxCell id="6mkCIRbmMQfoTAYwDSCQ-57" style="edgeStyle=orthogonalEdgeStyle;rounded=0;orthogonalLoop=1;jettySize=auto;html=1;startArrow=diamondThin;startFill=0;endSize=6;startSize=16;exitX=1;exitY=0.5;exitDx=0;exitDy=0;entryX=0;entryY=0.5;entryDx=0;entryDy=0;" parent="1" source="XtxYPDcPfNEDLWMkmPID-49" target="6mkCIRbmMQfoTAYwDSCQ-19" edge="1">
          <mxGeometry relative="1" as="geometry">
            <mxPoint x="680" y="990" as="targetPoint" />
            <Array as="points">
              <mxPoint x="-230" y="775" />
              <mxPoint x="-230" y="879" />
            </Array>
          </mxGeometry>
        </mxCell>
        <mxCell id="XtxYPDcPfNEDLWMkmPID-54" style="edgeStyle=orthogonalEdgeStyle;rounded=0;orthogonalLoop=1;jettySize=auto;html=1;exitX=0;exitY=0.5;exitDx=0;exitDy=0;" parent="1" source="XtxYPDcPfNEDLWMkmPID-49" edge="1">
          <mxGeometry relative="1" as="geometry">
            <Array as="points">
              <mxPoint x="-590" y="775" />
              <mxPoint x="-590" y="775" />
            </Array>
            <mxPoint x="420" y="1000" as="sourcePoint" />
            <mxPoint x="-610" y="775" as="targetPoint" />
          </mxGeometry>
        </mxCell>
        <mxCell id="x2eGTTG-zAIdovQSOwKP-47" style="edgeStyle=orthogonalEdgeStyle;rounded=0;orthogonalLoop=1;jettySize=auto;html=1;endArrow=none;endFill=0;dashed=1;" parent="1" source="6mkCIRbmMQfoTAYwDSCQ-43" edge="1">
          <mxGeometry relative="1" as="geometry">
            <mxPoint x="-200" y="630" as="targetPoint" />
            <Array as="points">
              <mxPoint x="-370" y="630" />
            </Array>
          </mxGeometry>
        </mxCell>
        <mxCell id="6mkCIRbmMQfoTAYwDSCQ-43" value="&amp;lt;&amp;lt;Abstract&amp;gt;&amp;gt;&lt;br&gt;&lt;b&gt;CommonGoal&lt;/b&gt;" style="swimlane;html=1;fontStyle=0;childLayout=stackLayout;horizontal=1;startSize=26;fillColor=none;horizontalStack=0;resizeParent=1;resizeLast=0;collapsible=1;marginBottom=0;swimlaneFillColor=#ffffff;rounded=0;shadow=0;comic=0;labelBackgroundColor=none;strokeWidth=1;fontFamily=Verdana;fontSize=10;align=center;" parent="1" vertex="1">
          <mxGeometry x="-470" y="710" width="200" height="86.5" as="geometry" />
        </mxCell>
        <mxCell id="6mkCIRbmMQfoTAYwDSCQ-44" value="- patternRepetions: int" style="text;html=1;strokeColor=none;fillColor=none;align=left;verticalAlign=top;spacingLeft=4;spacingRight=4;whiteSpace=wrap;overflow=hidden;rotatable=0;points=[[0,0.5],[1,0.5]];portConstraint=eastwest;" parent="6mkCIRbmMQfoTAYwDSCQ-43" vertex="1">
          <mxGeometry y="26" width="200" height="26" as="geometry" />
        </mxCell>
        <mxCell id="XtxYPDcPfNEDLWMkmPID-49" value="- type: CheckType" style="text;html=1;strokeColor=none;fillColor=none;align=left;verticalAlign=top;spacingLeft=4;spacingRight=4;whiteSpace=wrap;overflow=hidden;rotatable=0;points=[[0,0.5],[1,0.5]];portConstraint=eastwest;" parent="6mkCIRbmMQfoTAYwDSCQ-43" vertex="1">
          <mxGeometry y="52" width="200" height="26" as="geometry" />
        </mxCell>
        <mxCell id="6mkCIRbmMQfoTAYwDSCQ-59" style="edgeStyle=orthogonalEdgeStyle;rounded=0;orthogonalLoop=1;jettySize=auto;html=1;dashed=1;endArrow=block;endFill=0;endSize=10;entryX=0.5;entryY=1;entryDx=0;entryDy=0;" parent="1" source="6mkCIRbmMQfoTAYwDSCQ-51" target="ETVMtuT10l9wvVC2BpGE-47" edge="1">
          <mxGeometry relative="1" as="geometry">
            <mxPoint x="-200" y="580" as="targetPoint" />
            <Array as="points">
              <mxPoint x="-25" y="630" />
              <mxPoint x="-200" y="630" />
            </Array>
          </mxGeometry>
        </mxCell>
        <mxCell id="ETVMtuT10l9wvVC2BpGE-56" style="edgeStyle=orthogonalEdgeStyle;rounded=0;orthogonalLoop=1;jettySize=auto;html=1;entryX=0;entryY=0.5;entryDx=0;entryDy=0;startArrow=diamondThin;startFill=0;startSize=16;exitX=1;exitY=0.5;exitDx=0;exitDy=0;" parent="1" source="ETVMtuT10l9wvVC2BpGE-52" target="ETVMtuT10l9wvVC2BpGE-9" edge="1">
          <mxGeometry relative="1" as="geometry">
            <Array as="points">
              <mxPoint x="150" y="749" />
              <mxPoint x="150" y="476" />
            </Array>
          </mxGeometry>
        </mxCell>
        <mxCell id="6mkCIRbmMQfoTAYwDSCQ-51" value="PersonalGoal" style="swimlane;html=1;fontStyle=0;childLayout=stackLayout;horizontal=1;startSize=26;fillColor=none;horizontalStack=0;resizeParent=1;resizeLast=0;collapsible=1;marginBottom=0;swimlaneFillColor=#ffffff;rounded=0;shadow=0;comic=0;labelBackgroundColor=none;strokeWidth=1;fontFamily=Verdana;fontSize=10;align=center;" parent="1" vertex="1">
          <mxGeometry x="-135" y="710" width="220" height="150" as="geometry" />
        </mxCell>
        <mxCell id="ETVMtuT10l9wvVC2BpGE-52" value="- numColumns: int = 5 {readOnly}" style="text;html=1;strokeColor=none;fillColor=none;align=left;verticalAlign=top;spacingLeft=4;spacingRight=4;whiteSpace=wrap;overflow=hidden;rotatable=0;points=[[0,0.5],[1,0.5]];portConstraint=eastwest;" parent="6mkCIRbmMQfoTAYwDSCQ-51" vertex="1">
          <mxGeometry y="26" width="220" height="26" as="geometry" />
        </mxCell>
        <mxCell id="ETVMtuT10l9wvVC2BpGE-53" value="- numRows: int = 6 {readOnly}" style="text;html=1;strokeColor=none;fillColor=none;align=left;verticalAlign=top;spacingLeft=4;spacingRight=4;whiteSpace=wrap;overflow=hidden;rotatable=0;points=[[0,0.5],[1,0.5]];portConstraint=eastwest;" parent="6mkCIRbmMQfoTAYwDSCQ-51" vertex="1">
          <mxGeometry y="52" width="220" height="26" as="geometry" />
        </mxCell>
        <mxCell id="ETVMtuT10l9wvVC2BpGE-10" value="" style="endArrow=none;html=1;rounded=0;entryX=1.001;entryY=1.046;entryDx=0;entryDy=0;entryPerimeter=0;" parent="6mkCIRbmMQfoTAYwDSCQ-51" target="ETVMtuT10l9wvVC2BpGE-53" edge="1">
          <mxGeometry width="50" height="50" relative="1" as="geometry">
            <mxPoint y="80" as="sourcePoint" />
            <mxPoint x="200" y="80" as="targetPoint" />
          </mxGeometry>
        </mxCell>
        <mxCell id="ETVMtuT10l9wvVC2BpGE-59" value="+ numberOfPatternRepetition&lt;br&gt;InBookshelf(Bookshelf): int" style="text;html=1;strokeColor=none;fillColor=none;align=left;verticalAlign=top;spacingLeft=4;spacingRight=4;whiteSpace=wrap;overflow=hidden;rotatable=0;points=[[0,0.5],[1,0.5]];portConstraint=eastwest;" parent="6mkCIRbmMQfoTAYwDSCQ-51" vertex="1">
          <mxGeometry y="78" width="220" height="42" as="geometry" />
        </mxCell>
        <mxCell id="ETVMtuT10l9wvVC2BpGE-60" value="+ score(Bookshelf): int" style="text;html=1;strokeColor=none;fillColor=none;align=left;verticalAlign=top;spacingLeft=4;spacingRight=4;whiteSpace=wrap;overflow=hidden;rotatable=0;points=[[0,0.5],[1,0.5]];portConstraint=eastwest;" parent="6mkCIRbmMQfoTAYwDSCQ-51" vertex="1">
          <mxGeometry y="120" width="220" height="26" as="geometry" />
        </mxCell>
        <mxCell id="6mkCIRbmMQfoTAYwDSCQ-54" value="2..4" style="text;html=1;align=center;verticalAlign=middle;resizable=0;points=[];autosize=1;strokeColor=none;fillColor=none;" parent="1" vertex="1">
          <mxGeometry x="-270" y="780" width="40" height="30" as="geometry" />
        </mxCell>
        <mxCell id="6mkCIRbmMQfoTAYwDSCQ-62" value="0..N" style="text;html=1;align=center;verticalAlign=middle;resizable=0;points=[];autosize=1;strokeColor=none;fillColor=none;" parent="1" vertex="1">
          <mxGeometry x="130" y="282" width="50" height="30" as="geometry" />
        </mxCell>
        <mxCell id="6mkCIRbmMQfoTAYwDSCQ-69" style="edgeStyle=orthogonalEdgeStyle;rounded=0;orthogonalLoop=1;jettySize=auto;html=1;startArrow=diamondThin;startFill=0;endArrow=classic;endFill=1;startSize=16;endSize=6;exitX=0.75;exitY=1;exitDx=0;exitDy=0;" parent="1" source="6mkCIRbmMQfoTAYwDSCQ-64" edge="1">
          <mxGeometry relative="1" as="geometry">
            <mxPoint x="820" y="880" as="targetPoint" />
            <mxPoint x="1290" y="550" as="sourcePoint" />
            <Array as="points">
              <mxPoint x="1280" y="880" />
            </Array>
          </mxGeometry>
        </mxCell>
        <mxCell id="6mkCIRbmMQfoTAYwDSCQ-79" style="edgeStyle=orthogonalEdgeStyle;rounded=0;orthogonalLoop=1;jettySize=auto;html=1;targetPerimeterSpacing=0;sourcePerimeterSpacing=0;exitX=0.25;exitY=1;exitDx=0;exitDy=0;" parent="1" source="6mkCIRbmMQfoTAYwDSCQ-64" edge="1">
          <mxGeometry relative="1" as="geometry">
            <Array as="points">
              <mxPoint x="1160" y="800" />
              <mxPoint x="85" y="800" />
            </Array>
            <mxPoint x="1080" y="540" as="sourcePoint" />
            <mxPoint x="85" y="800" as="targetPoint" />
          </mxGeometry>
        </mxCell>
        <mxCell id="x2eGTTG-zAIdovQSOwKP-17" style="edgeStyle=orthogonalEdgeStyle;rounded=0;orthogonalLoop=1;jettySize=auto;html=1;startArrow=diamondThin;startFill=0;targetPerimeterSpacing=0;strokeWidth=1;startSize=17;entryX=0;entryY=0.5;entryDx=0;entryDy=0;" parent="1" source="6mkCIRbmMQfoTAYwDSCQ-64" edge="1" target="ETVMtuT10l9wvVC2BpGE-65">
          <mxGeometry relative="1" as="geometry">
            <mxPoint x="1450" y="460" as="targetPoint" />
          </mxGeometry>
        </mxCell>
        <mxCell id="6mkCIRbmMQfoTAYwDSCQ-64" value="Player" style="swimlane;html=1;fontStyle=0;childLayout=stackLayout;horizontal=1;startSize=26;fillColor=none;horizontalStack=0;resizeParent=1;resizeLast=0;collapsible=1;marginBottom=0;swimlaneFillColor=#ffffff;rounded=0;shadow=0;comic=0;labelBackgroundColor=none;strokeWidth=1;fontFamily=Verdana;fontSize=10;align=center;" parent="1" vertex="1">
          <mxGeometry x="1100" y="380" width="240" height="104" as="geometry" />
        </mxCell>
        <mxCell id="6mkCIRbmMQfoTAYwDSCQ-65" value="- nickname: string" style="text;html=1;strokeColor=none;fillColor=none;align=left;verticalAlign=top;spacingLeft=4;spacingRight=4;whiteSpace=wrap;overflow=hidden;rotatable=0;points=[[0,0.5],[1,0.5]];portConstraint=eastwest;" parent="6mkCIRbmMQfoTAYwDSCQ-64" vertex="1">
          <mxGeometry y="26" width="240" height="26" as="geometry" />
        </mxCell>
        <mxCell id="XtxYPDcPfNEDLWMkmPID-10" value="- connected: boolean" style="text;html=1;strokeColor=none;fillColor=none;align=left;verticalAlign=top;spacingLeft=4;spacingRight=4;whiteSpace=wrap;overflow=hidden;rotatable=0;points=[[0,0.5],[1,0.5]];portConstraint=eastwest;" parent="6mkCIRbmMQfoTAYwDSCQ-64" vertex="1">
          <mxGeometry y="52" width="240" height="26" as="geometry" />
        </mxCell>
        <mxCell id="XtxYPDcPfNEDLWMkmPID-38" value="" style="endArrow=none;html=1;rounded=0;entryX=1.002;entryY=-0.016;entryDx=0;entryDy=0;entryPerimeter=0;exitX=0.002;exitY=-0.016;exitDx=0;exitDy=0;exitPerimeter=0;" parent="6mkCIRbmMQfoTAYwDSCQ-64" edge="1">
          <mxGeometry width="50" height="50" relative="1" as="geometry">
            <mxPoint x="-2.091660178393795e-13" y="78.00399999999985" as="sourcePoint" />
            <mxPoint x="240.00000000000003" y="78.00399999999985" as="targetPoint" />
          </mxGeometry>
        </mxCell>
        <mxCell id="ETVMtuT10l9wvVC2BpGE-29" value="+ score(): int" style="text;html=1;strokeColor=none;fillColor=none;align=left;verticalAlign=top;spacingLeft=4;spacingRight=4;whiteSpace=wrap;overflow=hidden;rotatable=0;points=[[0,0.5],[1,0.5]];portConstraint=eastwest;" parent="6mkCIRbmMQfoTAYwDSCQ-64" vertex="1">
          <mxGeometry y="78" width="240" height="26" as="geometry" />
        </mxCell>
        <mxCell id="6mkCIRbmMQfoTAYwDSCQ-70" value="0..3" style="text;html=1;align=center;verticalAlign=middle;resizable=0;points=[];autosize=1;strokeColor=none;fillColor=none;" parent="1" vertex="1">
          <mxGeometry x="1235" y="540" width="40" height="30" as="geometry" />
        </mxCell>
        <mxCell id="6mkCIRbmMQfoTAYwDSCQ-74" value="1" style="text;html=1;align=center;verticalAlign=middle;resizable=0;points=[];autosize=1;strokeColor=none;fillColor=none;" parent="1" vertex="1">
          <mxGeometry x="1060" y="445" width="30" height="30" as="geometry" />
        </mxCell>
        <mxCell id="6mkCIRbmMQfoTAYwDSCQ-75" style="edgeStyle=orthogonalEdgeStyle;rounded=0;orthogonalLoop=1;jettySize=auto;html=1;startArrow=none;startFill=0;exitX=0;exitY=0.5;exitDx=0;exitDy=0;entryX=1;entryY=0.269;entryDx=0;entryDy=0;entryPerimeter=0;" parent="1" source="XtxYPDcPfNEDLWMkmPID-10" edge="1">
          <mxGeometry relative="1" as="geometry">
            <mxPoint x="890" y="810" as="sourcePoint" />
            <Array as="points" />
            <mxPoint x="900" y="444.99400000000014" as="targetPoint" />
          </mxGeometry>
        </mxCell>
        <mxCell id="6mkCIRbmMQfoTAYwDSCQ-78" value="2" style="text;html=1;align=center;verticalAlign=middle;resizable=0;points=[];autosize=1;strokeColor=none;fillColor=none;" parent="1" vertex="1">
          <mxGeometry x="640" y="-10" width="30" height="30" as="geometry" />
        </mxCell>
        <mxCell id="6mkCIRbmMQfoTAYwDSCQ-80" value="1" style="text;html=1;align=center;verticalAlign=middle;resizable=0;points=[];autosize=1;strokeColor=none;fillColor=none;" parent="1" vertex="1">
          <mxGeometry x="1160" y="540" width="30" height="30" as="geometry" />
        </mxCell>
        <mxCell id="XtxYPDcPfNEDLWMkmPID-11" style="edgeStyle=orthogonalEdgeStyle;rounded=0;orthogonalLoop=1;jettySize=auto;html=1;entryX=0.75;entryY=0;entryDx=0;entryDy=0;exitX=0;exitY=0.5;exitDx=0;exitDy=0;" parent="1" source="FcwqcfeG6PIgrdVunfL2-21" target="17acba5748e5396b-20" edge="1">
          <mxGeometry relative="1" as="geometry">
            <Array as="points">
              <mxPoint x="173" y="67" />
            </Array>
            <mxPoint x="705" y="3" as="sourcePoint" />
          </mxGeometry>
        </mxCell>
        <mxCell id="XtxYPDcPfNEDLWMkmPID-18" style="edgeStyle=orthogonalEdgeStyle;rounded=0;orthogonalLoop=1;jettySize=auto;html=1;startArrow=diamondThin;startFill=0;targetPerimeterSpacing=0;sourcePerimeterSpacing=0;startSize=16;exitX=0;exitY=0.5;exitDx=0;exitDy=0;entryX=0.5;entryY=0;entryDx=0;entryDy=0;" parent="1" source="FcwqcfeG6PIgrdVunfL2-24" target="17acba5748e5396b-30" edge="1">
          <mxGeometry relative="1" as="geometry">
            <mxPoint x="330" y="320" as="targetPoint" />
            <Array as="points">
              <mxPoint x="360" y="153" />
            </Array>
            <mxPoint x="705" y="87" as="sourcePoint" />
          </mxGeometry>
        </mxCell>
        <mxCell id="ETVMtuT10l9wvVC2BpGE-33" style="edgeStyle=orthogonalEdgeStyle;rounded=0;orthogonalLoop=1;jettySize=auto;html=1;startArrow=diamondThin;startFill=0;endArrow=classic;endFill=1;startSize=16;endSize=6;entryX=0.5;entryY=0;entryDx=0;entryDy=0;" parent="1" source="FcwqcfeG6PIgrdVunfL2-22" target="6mkCIRbmMQfoTAYwDSCQ-64" edge="1">
          <mxGeometry relative="1" as="geometry">
            <Array as="points">
              <mxPoint x="1220" y="138" />
            </Array>
            <mxPoint x="980" y="200" as="sourcePoint" />
            <mxPoint x="850" y="400" as="targetPoint" />
          </mxGeometry>
        </mxCell>
        <mxCell id="x2eGTTG-zAIdovQSOwKP-48" style="edgeStyle=orthogonalEdgeStyle;rounded=0;orthogonalLoop=1;jettySize=auto;html=1;entryX=0;entryY=0.5;entryDx=0;entryDy=0;exitX=0;exitY=0.5;exitDx=0;exitDy=0;" parent="1" source="FcwqcfeG6PIgrdVunfL2-17" target="6mkCIRbmMQfoTAYwDSCQ-44" edge="1">
          <mxGeometry relative="1" as="geometry">
            <Array as="points">
              <mxPoint x="-490" y="-11" />
              <mxPoint x="-490" y="749" />
            </Array>
          </mxGeometry>
        </mxCell>
        <mxCell id="FcwqcfeG6PIgrdVunfL2-115" style="edgeStyle=orthogonalEdgeStyle;rounded=0;orthogonalLoop=1;jettySize=auto;html=1;exitX=0.5;exitY=0;exitDx=0;exitDy=0;entryX=0.5;entryY=1;entryDx=0;entryDy=0;" edge="1" parent="1" source="XtxYPDcPfNEDLWMkmPID-1" target="FcwqcfeG6PIgrdVunfL2-106">
          <mxGeometry relative="1" as="geometry" />
        </mxCell>
        <mxCell id="FcwqcfeG6PIgrdVunfL2-472" style="edgeStyle=orthogonalEdgeStyle;rounded=0;orthogonalLoop=1;jettySize=auto;html=1;exitX=0.25;exitY=0;exitDx=0;exitDy=0;endSize=12;endArrow=block;endFill=0;dashed=1;" edge="1" parent="1" source="XtxYPDcPfNEDLWMkmPID-1">
          <mxGeometry relative="1" as="geometry">
            <mxPoint x="460" y="-230" as="targetPoint" />
          </mxGeometry>
        </mxCell>
        <mxCell id="XtxYPDcPfNEDLWMkmPID-1" value="Game" style="swimlane;html=1;fontStyle=0;childLayout=stackLayout;horizontal=1;startSize=26;fillColor=none;horizontalStack=0;resizeParent=1;resizeLast=0;collapsible=1;marginBottom=0;swimlaneFillColor=#ffffff;rounded=0;shadow=0;comic=0;labelBackgroundColor=none;strokeWidth=1;fontFamily=Verdana;fontSize=10;align=center;strokeColor=default;container=0;" parent="1" vertex="1">
          <mxGeometry x="710" y="-76" width="240" height="280" as="geometry" />
        </mxCell>
        <mxCell id="FcwqcfeG6PIgrdVunfL2-15" value="- started: boolean" style="text;html=1;strokeColor=none;fillColor=none;align=left;verticalAlign=top;spacingLeft=4;spacingRight=4;whiteSpace=wrap;overflow=hidden;rotatable=0;points=[[0,0.5],[1,0.5]];portConstraint=eastwest;" vertex="1" parent="XtxYPDcPfNEDLWMkmPID-1">
          <mxGeometry y="26" width="240" height="26" as="geometry" />
        </mxCell>
        <mxCell id="FcwqcfeG6PIgrdVunfL2-17" value="- numberOfPlayers: int" style="text;html=1;strokeColor=none;fillColor=none;align=left;verticalAlign=top;spacingLeft=4;spacingRight=4;whiteSpace=wrap;overflow=hidden;rotatable=0;points=[[0,0.5],[1,0.5]];portConstraint=eastwest;" vertex="1" parent="XtxYPDcPfNEDLWMkmPID-1">
          <mxGeometry y="52" width="240" height="26" as="geometry" />
        </mxCell>
        <mxCell id="FcwqcfeG6PIgrdVunfL2-18" value="- activePlayerIndex: int" style="text;html=1;strokeColor=none;fillColor=none;align=left;verticalAlign=top;spacingLeft=4;spacingRight=4;whiteSpace=wrap;overflow=hidden;rotatable=0;points=[[0,0.5],[1,0.5]];portConstraint=eastwest;" vertex="1" parent="XtxYPDcPfNEDLWMkmPID-1">
          <mxGeometry y="78" width="240" height="26" as="geometry" />
        </mxCell>
        <mxCell id="XtxYPDcPfNEDLWMkmPID-5" value="" style="endArrow=none;html=1;rounded=0;" parent="XtxYPDcPfNEDLWMkmPID-1" edge="1">
          <mxGeometry width="50" height="50" relative="1" as="geometry">
            <mxPoint y="103.99999999999999" as="sourcePoint" />
            <mxPoint x="240" y="103.99999999999999" as="targetPoint" />
          </mxGeometry>
        </mxCell>
        <mxCell id="FcwqcfeG6PIgrdVunfL2-20" value="+ addPlayer(Player): void" style="text;html=1;strokeColor=none;fillColor=none;align=left;verticalAlign=top;spacingLeft=4;spacingRight=4;whiteSpace=wrap;overflow=hidden;rotatable=0;points=[[0,0.5],[1,0.5]];portConstraint=eastwest;" vertex="1" parent="XtxYPDcPfNEDLWMkmPID-1">
          <mxGeometry y="104" width="240" height="26" as="geometry" />
        </mxCell>
        <mxCell id="FcwqcfeG6PIgrdVunfL2-21" value="- getPlayerScore(Player): void" style="text;html=1;strokeColor=none;fillColor=none;align=left;verticalAlign=top;spacingLeft=4;spacingRight=4;whiteSpace=wrap;overflow=hidden;rotatable=0;points=[[0,0.5],[1,0.5]];portConstraint=eastwest;" vertex="1" parent="XtxYPDcPfNEDLWMkmPID-1">
          <mxGeometry y="130" width="240" height="26" as="geometry" />
        </mxCell>
        <mxCell id="FcwqcfeG6PIgrdVunfL2-22" value="- isPaused(): boolean" style="text;html=1;strokeColor=none;fillColor=none;align=left;verticalAlign=top;spacingLeft=4;spacingRight=4;whiteSpace=wrap;overflow=hidden;rotatable=0;points=[[0,0.5],[1,0.5]];portConstraint=eastwest;" vertex="1" parent="XtxYPDcPfNEDLWMkmPID-1">
          <mxGeometry y="156" width="240" height="26" as="geometry" />
        </mxCell>
        <mxCell id="FcwqcfeG6PIgrdVunfL2-23" value="- connectedPlayers(): List&amp;lt;Player&amp;gt;" style="text;html=1;strokeColor=none;fillColor=none;align=left;verticalAlign=top;spacingLeft=4;spacingRight=4;whiteSpace=wrap;overflow=hidden;rotatable=0;points=[[0,0.5],[1,0.5]];portConstraint=eastwest;" vertex="1" parent="XtxYPDcPfNEDLWMkmPID-1">
          <mxGeometry y="182" width="240" height="26" as="geometry" />
        </mxCell>
        <mxCell id="FcwqcfeG6PIgrdVunfL2-24" value="- getRandomCommonGoal&lt;br&gt;SubclassIstance(): CommonGoal" style="text;html=1;strokeColor=none;fillColor=none;align=left;verticalAlign=top;spacingLeft=4;spacingRight=4;whiteSpace=wrap;overflow=hidden;rotatable=0;points=[[0,0.5],[1,0.5]];portConstraint=eastwest;" vertex="1" parent="XtxYPDcPfNEDLWMkmPID-1">
          <mxGeometry y="208" width="240" height="42" as="geometry" />
        </mxCell>
        <mxCell id="FcwqcfeG6PIgrdVunfL2-25" value="- getPlayerFromNickname(String): Player" style="text;html=1;strokeColor=none;fillColor=none;align=left;verticalAlign=top;spacingLeft=4;spacingRight=4;whiteSpace=wrap;overflow=hidden;rotatable=0;points=[[0,0.5],[1,0.5]];portConstraint=eastwest;" vertex="1" parent="XtxYPDcPfNEDLWMkmPID-1">
          <mxGeometry y="250" width="240" height="30" as="geometry" />
        </mxCell>
        <mxCell id="XtxYPDcPfNEDLWMkmPID-9" value="1..4" style="text;html=1;align=center;verticalAlign=middle;resizable=0;points=[];autosize=1;strokeColor=none;fillColor=none;" parent="1" vertex="1">
          <mxGeometry x="965" y="150" width="40" height="30" as="geometry" />
        </mxCell>
        <mxCell id="XtxYPDcPfNEDLWMkmPID-12" value="1" style="text;html=1;align=center;verticalAlign=middle;resizable=0;points=[];autosize=1;strokeColor=none;fillColor=none;" parent="1" vertex="1">
          <mxGeometry x="665" y="32" width="30" height="30" as="geometry" />
        </mxCell>
        <mxCell id="XtxYPDcPfNEDLWMkmPID-21" value="132" style="text;html=1;align=center;verticalAlign=middle;resizable=0;points=[];autosize=1;strokeColor=none;fillColor=none;" parent="1" vertex="1">
          <mxGeometry x="670" y="157" width="40" height="30" as="geometry" />
        </mxCell>
        <mxCell id="XtxYPDcPfNEDLWMkmPID-22" value="bag" style="text;html=1;align=center;verticalAlign=middle;resizable=0;points=[];autosize=1;strokeColor=none;fillColor=none;" parent="1" vertex="1">
          <mxGeometry x="670" y="116" width="40" height="30" as="geometry" />
        </mxCell>
        <mxCell id="XtxYPDcPfNEDLWMkmPID-36" style="edgeStyle=orthogonalEdgeStyle;rounded=0;orthogonalLoop=1;jettySize=auto;html=1;endArrow=block;endFill=0;startSize=6;endSize=10;" parent="1" source="XtxYPDcPfNEDLWMkmPID-23" edge="1">
          <mxGeometry relative="1" as="geometry">
            <mxPoint x="-370" y="796.5" as="targetPoint" />
            <Array as="points">
              <mxPoint x="-940" y="940" />
              <mxPoint x="-370" y="940" />
            </Array>
          </mxGeometry>
        </mxCell>
        <mxCell id="XtxYPDcPfNEDLWMkmPID-23" value="EightShapelessPatternCommonGoal" style="swimlane;html=1;fontStyle=0;childLayout=stackLayout;horizontal=1;startSize=26;fillColor=none;horizontalStack=0;resizeParent=1;resizeLast=0;collapsible=1;marginBottom=0;swimlaneFillColor=#ffffff;rounded=0;shadow=0;comic=0;labelBackgroundColor=none;strokeWidth=1;fontFamily=Verdana;fontSize=10;align=center;strokeColor=default;" parent="1" vertex="1">
          <mxGeometry x="-1040" y="1020" width="220" height="102" as="geometry" />
        </mxCell>
        <mxCell id="XtxYPDcPfNEDLWMkmPID-35" value="&lt;p style=&quot;border-color: var(--border-color); margin: 0px 0px 0px 4px;&quot;&gt;+ numberOfPatternRepetition&lt;br style=&quot;border-color: var(--border-color);&quot;&gt;InBookshelf(Bookshelf): int&lt;br&gt;&lt;/p&gt;" style="text;html=1;strokeColor=none;fillColor=none;align=left;verticalAlign=top;spacingLeft=4;spacingRight=4;whiteSpace=wrap;overflow=hidden;rotatable=0;points=[[0,0.5],[1,0.5]];portConstraint=eastwest;" parent="XtxYPDcPfNEDLWMkmPID-23" vertex="1">
          <mxGeometry y="26" width="220" height="44" as="geometry" />
        </mxCell>
        <mxCell id="FcwqcfeG6PIgrdVunfL2-41" value="&lt;p style=&quot;border-color: var(--border-color); margin: 0px 0px 0px 4px;&quot;&gt;+ toString(): String&lt;/p&gt;" style="text;html=1;strokeColor=none;fillColor=none;align=left;verticalAlign=top;spacingLeft=4;spacingRight=4;whiteSpace=wrap;overflow=hidden;rotatable=0;points=[[0,0.5],[1,0.5]];portConstraint=eastwest;" vertex="1" parent="XtxYPDcPfNEDLWMkmPID-23">
          <mxGeometry y="70" width="220" height="32" as="geometry" />
        </mxCell>
        <mxCell id="XtxYPDcPfNEDLWMkmPID-50" value="&lt;p style=&quot;margin:0px;margin-top:4px;text-align:center;&quot;&gt;&lt;i&gt;&amp;lt;&amp;lt;enumeration&amp;gt;&amp;gt;&lt;/i&gt;&lt;br&gt;&lt;b&gt;Check&lt;/b&gt;&lt;b style=&quot;background-color: initial;&quot;&gt;Type&lt;/b&gt;&lt;/p&gt;" style="verticalAlign=top;align=left;overflow=fill;fontSize=12;fontFamily=Helvetica;html=1;rounded=0;shadow=0;comic=0;labelBackgroundColor=none;strokeWidth=1" parent="1" vertex="1">
          <mxGeometry x="-750" y="710" width="140" height="127.75" as="geometry" />
        </mxCell>
        <mxCell id="XtxYPDcPfNEDLWMkmPID-51" value="EQUALS" style="text;html=1;strokeColor=none;fillColor=none;align=left;verticalAlign=top;spacingLeft=4;spacingRight=4;whiteSpace=wrap;overflow=hidden;rotatable=0;points=[[0,0.5],[1,0.5]];portConstraint=eastwest;" parent="1" vertex="1">
          <mxGeometry x="-750" y="740" width="190" height="26" as="geometry" />
        </mxCell>
        <mxCell id="XtxYPDcPfNEDLWMkmPID-52" value="DIFFERENT" style="text;html=1;strokeColor=none;fillColor=none;align=left;verticalAlign=top;spacingLeft=4;spacingRight=4;whiteSpace=wrap;overflow=hidden;rotatable=0;points=[[0,0.5],[1,0.5]];portConstraint=eastwest;" parent="1" vertex="1">
          <mxGeometry x="-750" y="766" width="190" height="26" as="geometry" />
        </mxCell>
        <mxCell id="XtxYPDcPfNEDLWMkmPID-53" value="INDIFFERENT" style="text;html=1;strokeColor=none;fillColor=none;align=left;verticalAlign=top;spacingLeft=4;spacingRight=4;whiteSpace=wrap;overflow=hidden;rotatable=0;points=[[0,0.5],[1,0.5]];portConstraint=eastwest;" parent="1" vertex="1">
          <mxGeometry x="-750" y="794" width="190" height="26" as="geometry" />
        </mxCell>
        <mxCell id="ETVMtuT10l9wvVC2BpGE-7" value="tiles" style="text;html=1;strokeColor=none;fillColor=none;align=center;verticalAlign=middle;whiteSpace=wrap;rounded=0;" parent="1" vertex="1">
          <mxGeometry x="70" y="282" width="60" height="30" as="geometry" />
        </mxCell>
        <mxCell id="ETVMtuT10l9wvVC2BpGE-12" value="tiles" style="text;html=1;strokeColor=none;fillColor=none;align=center;verticalAlign=middle;whiteSpace=wrap;rounded=0;" parent="1" vertex="1">
          <mxGeometry x="640" y="440" width="60" height="30" as="geometry" />
        </mxCell>
        <mxCell id="ETVMtuT10l9wvVC2BpGE-19" value="players" style="text;html=1;strokeColor=none;fillColor=none;align=center;verticalAlign=middle;whiteSpace=wrap;rounded=0;" parent="1" vertex="1">
          <mxGeometry x="955" y="100" width="60" height="30" as="geometry" />
        </mxCell>
        <mxCell id="ETVMtuT10l9wvVC2BpGE-21" value="board" style="text;html=1;strokeColor=none;fillColor=none;align=center;verticalAlign=middle;whiteSpace=wrap;rounded=0;" parent="1" vertex="1">
          <mxGeometry x="650" y="70" width="60" height="30" as="geometry" />
        </mxCell>
        <mxCell id="ETVMtuT10l9wvVC2BpGE-22" value="commonGoals" style="text;html=1;strokeColor=none;fillColor=none;align=center;verticalAlign=middle;whiteSpace=wrap;rounded=0;" parent="1" vertex="1">
          <mxGeometry x="635" y="-40" width="60" height="30" as="geometry" />
        </mxCell>
        <mxCell id="ETVMtuT10l9wvVC2BpGE-34" value="0..1" style="text;html=1;align=center;verticalAlign=middle;resizable=0;points=[];autosize=1;strokeColor=none;fillColor=none;" parent="1" vertex="1">
          <mxGeometry x="1175" y="350" width="40" height="30" as="geometry" />
        </mxCell>
        <mxCell id="ETVMtuT10l9wvVC2BpGE-35" value="game" style="text;html=1;strokeColor=none;fillColor=none;align=center;verticalAlign=middle;whiteSpace=wrap;rounded=0;" parent="1" vertex="1">
          <mxGeometry x="1215" y="350" width="60" height="30" as="geometry" />
        </mxCell>
        <mxCell id="ETVMtuT10l9wvVC2BpGE-36" value="personalGoal" style="text;html=1;strokeColor=none;fillColor=none;align=center;verticalAlign=middle;whiteSpace=wrap;rounded=0;" parent="1" vertex="1">
          <mxGeometry x="1090" y="540" width="60" height="30" as="geometry" />
        </mxCell>
        <mxCell id="ETVMtuT10l9wvVC2BpGE-37" value="scoreTiles" style="text;html=1;strokeColor=none;fillColor=none;align=center;verticalAlign=middle;whiteSpace=wrap;rounded=0;" parent="1" vertex="1">
          <mxGeometry x="1290" y="540" width="60" height="30" as="geometry" />
        </mxCell>
        <mxCell id="ETVMtuT10l9wvVC2BpGE-38" value="bookshelf" style="text;html=1;strokeColor=none;fillColor=none;align=center;verticalAlign=middle;whiteSpace=wrap;rounded=0;" parent="1" vertex="1">
          <mxGeometry x="1040" y="415" width="60" height="30" as="geometry" />
        </mxCell>
        <mxCell id="ETVMtuT10l9wvVC2BpGE-40" value="0..1" style="text;html=1;align=center;verticalAlign=middle;resizable=0;points=[];autosize=1;strokeColor=none;fillColor=none;" parent="1" vertex="1">
          <mxGeometry x="830" y="850" width="40" height="30" as="geometry" />
        </mxCell>
        <mxCell id="ETVMtuT10l9wvVC2BpGE-41" value="player" style="text;html=1;strokeColor=none;fillColor=none;align=center;verticalAlign=middle;whiteSpace=wrap;rounded=0;" parent="1" vertex="1">
          <mxGeometry x="820" y="885" width="50" height="30" as="geometry" />
        </mxCell>
        <mxCell id="ETVMtuT10l9wvVC2BpGE-42" value="0..1" style="text;html=1;align=center;verticalAlign=middle;resizable=0;points=[];autosize=1;strokeColor=none;fillColor=none;" parent="1" vertex="1">
          <mxGeometry x="645" y="850" width="40" height="30" as="geometry" />
        </mxCell>
        <mxCell id="ETVMtuT10l9wvVC2BpGE-43" value="commonGoal" style="text;html=1;align=center;verticalAlign=middle;resizable=0;points=[];autosize=1;strokeColor=none;fillColor=none;" parent="1" vertex="1">
          <mxGeometry x="595" y="880" width="90" height="30" as="geometry" />
        </mxCell>
        <mxCell id="ETVMtuT10l9wvVC2BpGE-44" value="scoreTiles" style="text;html=1;align=center;verticalAlign=middle;resizable=0;points=[];autosize=1;strokeColor=none;fillColor=none;" parent="1" vertex="1">
          <mxGeometry x="-270" y="740" width="80" height="30" as="geometry" />
        </mxCell>
        <mxCell id="ETVMtuT10l9wvVC2BpGE-47" value="&amp;lt;&amp;lt;Abstract&amp;gt;&amp;gt;&lt;br&gt;&lt;b&gt;Card&lt;/b&gt;" style="swimlane;html=1;fontStyle=0;childLayout=stackLayout;horizontal=1;startSize=26;fillColor=none;horizontalStack=0;resizeParent=1;resizeLast=0;collapsible=1;marginBottom=0;swimlaneFillColor=#ffffff;rounded=0;shadow=0;comic=0;labelBackgroundColor=none;strokeWidth=1;fontFamily=Verdana;fontSize=10;align=center;" parent="1" vertex="1">
          <mxGeometry x="-300" y="475" width="200" height="95" as="geometry" />
        </mxCell>
        <mxCell id="ETVMtuT10l9wvVC2BpGE-48" value="- imageID: int" style="text;html=1;strokeColor=none;fillColor=none;align=left;verticalAlign=top;spacingLeft=4;spacingRight=4;whiteSpace=wrap;overflow=hidden;rotatable=0;points=[[0,0.5],[1,0.5]];portConstraint=eastwest;" parent="ETVMtuT10l9wvVC2BpGE-47" vertex="1">
          <mxGeometry y="26" width="200" height="24" as="geometry" />
        </mxCell>
        <mxCell id="ETVMtuT10l9wvVC2BpGE-50" value="" style="endArrow=none;html=1;rounded=0;entryX=0.998;entryY=0.005;entryDx=0;entryDy=0;entryPerimeter=0;" parent="ETVMtuT10l9wvVC2BpGE-47" edge="1">
          <mxGeometry width="50" height="50" relative="1" as="geometry">
            <mxPoint y="50" as="sourcePoint" />
            <mxPoint x="200" y="50" as="targetPoint" />
          </mxGeometry>
        </mxCell>
        <mxCell id="FcwqcfeG6PIgrdVunfL2-26" value="&lt;i&gt;+ numberOfPatternRepetition&lt;br&gt;InBookshelf(Bookshelf): int&lt;/i&gt;" style="text;html=1;strokeColor=none;fillColor=none;align=left;verticalAlign=top;spacingLeft=4;spacingRight=4;whiteSpace=wrap;overflow=hidden;rotatable=0;points=[[0,0.5],[1,0.5]];portConstraint=eastwest;" vertex="1" parent="ETVMtuT10l9wvVC2BpGE-47">
          <mxGeometry y="50" width="200" height="40" as="geometry" />
        </mxCell>
        <mxCell id="ETVMtuT10l9wvVC2BpGE-57" value="0..N" style="text;html=1;strokeColor=none;fillColor=none;align=center;verticalAlign=middle;whiteSpace=wrap;rounded=0;" parent="1" vertex="1">
          <mxGeometry x="105" y="750" width="40" height="30" as="geometry" />
        </mxCell>
        <mxCell id="ETVMtuT10l9wvVC2BpGE-58" value="pattern" style="text;html=1;strokeColor=none;fillColor=none;align=center;verticalAlign=middle;whiteSpace=wrap;rounded=0;" parent="1" vertex="1">
          <mxGeometry x="95" y="720" width="60" height="30" as="geometry" />
        </mxCell>
        <mxCell id="ETVMtuT10l9wvVC2BpGE-63" value="Message" style="swimlane;html=1;fontStyle=0;childLayout=stackLayout;horizontal=1;startSize=26;fillColor=none;horizontalStack=0;resizeParent=1;resizeLast=0;collapsible=1;marginBottom=0;swimlaneFillColor=#ffffff;rounded=0;shadow=0;comic=0;labelBackgroundColor=none;strokeWidth=1;fontFamily=Verdana;fontSize=10;align=center;" parent="1" vertex="1">
          <mxGeometry x="1460" y="367" width="220" height="110" as="geometry" />
        </mxCell>
        <mxCell id="ETVMtuT10l9wvVC2BpGE-64" value="- receiverNickname: String" style="text;html=1;strokeColor=none;fillColor=none;align=left;verticalAlign=top;spacingLeft=4;spacingRight=4;whiteSpace=wrap;overflow=hidden;rotatable=0;points=[[0,0.5],[1,0.5]];portConstraint=eastwest;" parent="ETVMtuT10l9wvVC2BpGE-63" vertex="1">
          <mxGeometry y="26" width="220" height="26" as="geometry" />
        </mxCell>
        <mxCell id="ETVMtuT10l9wvVC2BpGE-65" value="- sencderNickname: String" style="text;html=1;strokeColor=none;fillColor=none;align=left;verticalAlign=top;spacingLeft=4;spacingRight=4;whiteSpace=wrap;overflow=hidden;rotatable=0;points=[[0,0.5],[1,0.5]];portConstraint=eastwest;" parent="ETVMtuT10l9wvVC2BpGE-63" vertex="1">
          <mxGeometry y="52" width="220" height="26" as="geometry" />
        </mxCell>
        <mxCell id="ETVMtuT10l9wvVC2BpGE-69" value="- content: String" style="text;html=1;strokeColor=none;fillColor=none;align=left;verticalAlign=top;spacingLeft=4;spacingRight=4;whiteSpace=wrap;overflow=hidden;rotatable=0;points=[[0,0.5],[1,0.5]];portConstraint=eastwest;" parent="ETVMtuT10l9wvVC2BpGE-63" vertex="1">
          <mxGeometry y="78" width="220" height="26" as="geometry" />
        </mxCell>
        <mxCell id="ETVMtuT10l9wvVC2BpGE-70" value="DiagonalEqualPattern" style="swimlane;html=1;fontStyle=0;childLayout=stackLayout;horizontal=1;startSize=26;fillColor=none;horizontalStack=0;resizeParent=1;resizeLast=0;collapsible=1;marginBottom=0;swimlaneFillColor=#ffffff;rounded=0;shadow=0;comic=0;labelBackgroundColor=none;strokeWidth=1;fontFamily=Verdana;fontSize=10;align=center;strokeColor=default;" parent="1" vertex="1">
          <mxGeometry x="-810" y="1020" width="220" height="102" as="geometry" />
        </mxCell>
        <mxCell id="ETVMtuT10l9wvVC2BpGE-71" value="&lt;p style=&quot;border-color: var(--border-color); margin: 0px 0px 0px 4px;&quot;&gt;+ numberOfPatternRepetition&lt;br style=&quot;border-color: var(--border-color);&quot;&gt;InBookshelf(Bookshelf): int&lt;br&gt;&lt;/p&gt;" style="text;html=1;strokeColor=none;fillColor=none;align=left;verticalAlign=top;spacingLeft=4;spacingRight=4;whiteSpace=wrap;overflow=hidden;rotatable=0;points=[[0,0.5],[1,0.5]];portConstraint=eastwest;" parent="ETVMtuT10l9wvVC2BpGE-70" vertex="1">
          <mxGeometry y="26" width="220" height="44" as="geometry" />
        </mxCell>
        <mxCell id="FcwqcfeG6PIgrdVunfL2-42" value="&lt;p style=&quot;border-color: var(--border-color); margin: 0px 0px 0px 4px;&quot;&gt;+ toString(): String&lt;/p&gt;" style="text;html=1;strokeColor=none;fillColor=none;align=left;verticalAlign=top;spacingLeft=4;spacingRight=4;whiteSpace=wrap;overflow=hidden;rotatable=0;points=[[0,0.5],[1,0.5]];portConstraint=eastwest;" vertex="1" parent="ETVMtuT10l9wvVC2BpGE-70">
          <mxGeometry y="70" width="220" height="32" as="geometry" />
        </mxCell>
        <mxCell id="ETVMtuT10l9wvVC2BpGE-72" value="StairPatternGoal" style="swimlane;html=1;fontStyle=0;childLayout=stackLayout;horizontal=1;startSize=26;fillColor=none;horizontalStack=0;resizeParent=1;resizeLast=0;collapsible=1;marginBottom=0;swimlaneFillColor=#ffffff;rounded=0;shadow=0;comic=0;labelBackgroundColor=none;strokeWidth=1;fontFamily=Verdana;fontSize=10;align=center;strokeColor=default;" parent="1" vertex="1">
          <mxGeometry x="-580" y="1020" width="220" height="102" as="geometry" />
        </mxCell>
        <mxCell id="ETVMtuT10l9wvVC2BpGE-73" value="&lt;p style=&quot;border-color: var(--border-color); margin: 0px 0px 0px 4px;&quot;&gt;+ numberOfPatternRepetition&lt;br style=&quot;border-color: var(--border-color);&quot;&gt;InBookshelf(Bookshelf): int&lt;br&gt;&lt;/p&gt;" style="text;html=1;strokeColor=none;fillColor=none;align=left;verticalAlign=top;spacingLeft=4;spacingRight=4;whiteSpace=wrap;overflow=hidden;rotatable=0;points=[[0,0.5],[1,0.5]];portConstraint=eastwest;" parent="ETVMtuT10l9wvVC2BpGE-72" vertex="1">
          <mxGeometry y="26" width="220" height="44" as="geometry" />
        </mxCell>
        <mxCell id="FcwqcfeG6PIgrdVunfL2-43" value="&lt;p style=&quot;border-color: var(--border-color); margin: 0px 0px 0px 4px;&quot;&gt;+ toString(): String&lt;/p&gt;" style="text;html=1;strokeColor=none;fillColor=none;align=left;verticalAlign=top;spacingLeft=4;spacingRight=4;whiteSpace=wrap;overflow=hidden;rotatable=0;points=[[0,0.5],[1,0.5]];portConstraint=eastwest;" vertex="1" parent="ETVMtuT10l9wvVC2BpGE-72">
          <mxGeometry y="70" width="220" height="32" as="geometry" />
        </mxCell>
        <mxCell id="ETVMtuT10l9wvVC2BpGE-74" value="ConsecutiveTilesPatternGoal" style="swimlane;html=1;fontStyle=0;childLayout=stackLayout;horizontal=1;startSize=26;fillColor=none;horizontalStack=0;resizeParent=1;resizeLast=0;collapsible=1;marginBottom=0;swimlaneFillColor=#ffffff;rounded=0;shadow=0;comic=0;labelBackgroundColor=none;strokeWidth=1;fontFamily=Verdana;fontSize=10;align=center;strokeColor=default;" parent="1" vertex="1">
          <mxGeometry x="-350" y="1020" width="220" height="170" as="geometry" />
        </mxCell>
        <mxCell id="FcwqcfeG6PIgrdVunfL2-38" value="&lt;p style=&quot;border-color: var(--border-color); margin: 0px 0px 0px 4px;&quot;&gt;- consecutiveTiles: int&lt;/p&gt;" style="text;html=1;strokeColor=none;fillColor=none;align=left;verticalAlign=top;spacingLeft=4;spacingRight=4;whiteSpace=wrap;overflow=hidden;rotatable=0;points=[[0,0.5],[1,0.5]];portConstraint=eastwest;" vertex="1" parent="ETVMtuT10l9wvVC2BpGE-74">
          <mxGeometry y="26" width="220" height="24" as="geometry" />
        </mxCell>
        <mxCell id="FcwqcfeG6PIgrdVunfL2-37" value="" style="endArrow=none;html=1;rounded=0;entryX=0.996;entryY=1.083;entryDx=0;entryDy=0;entryPerimeter=0;" edge="1" parent="ETVMtuT10l9wvVC2BpGE-74" target="FcwqcfeG6PIgrdVunfL2-38">
          <mxGeometry width="50" height="50" relative="1" as="geometry">
            <mxPoint y="52" as="sourcePoint" />
            <mxPoint x="200" y="52" as="targetPoint" />
          </mxGeometry>
        </mxCell>
        <mxCell id="FcwqcfeG6PIgrdVunfL2-35" value="&lt;p style=&quot;border-color: var(--border-color); margin: 0px 0px 0px 4px;&quot;&gt;+ numberOfPatternRepetition&lt;br style=&quot;border-color: var(--border-color);&quot;&gt;InBookshelf(Bookshelf): int&lt;br&gt;&lt;/p&gt;" style="text;html=1;strokeColor=none;fillColor=none;align=left;verticalAlign=top;spacingLeft=4;spacingRight=4;whiteSpace=wrap;overflow=hidden;rotatable=0;points=[[0,0.5],[1,0.5]];portConstraint=eastwest;" vertex="1" parent="ETVMtuT10l9wvVC2BpGE-74">
          <mxGeometry y="50" width="220" height="44" as="geometry" />
        </mxCell>
        <mxCell id="FcwqcfeG6PIgrdVunfL2-39" value="&lt;p style=&quot;border-color: var(--border-color); margin: 0px 0px 0px 4px;&quot;&gt;- searchGroup(Bookshelf, int[][], int, int, int, TileColor): void&lt;/p&gt;" style="text;html=1;strokeColor=none;fillColor=none;align=left;verticalAlign=top;spacingLeft=4;spacingRight=4;whiteSpace=wrap;overflow=hidden;rotatable=0;points=[[0,0.5],[1,0.5]];portConstraint=eastwest;" vertex="1" parent="ETVMtuT10l9wvVC2BpGE-74">
          <mxGeometry y="94" width="220" height="44" as="geometry" />
        </mxCell>
        <mxCell id="FcwqcfeG6PIgrdVunfL2-40" value="&lt;p style=&quot;border-color: var(--border-color); margin: 0px 0px 0px 4px;&quot;&gt;+ toString(): String&lt;/p&gt;" style="text;html=1;strokeColor=none;fillColor=none;align=left;verticalAlign=top;spacingLeft=4;spacingRight=4;whiteSpace=wrap;overflow=hidden;rotatable=0;points=[[0,0.5],[1,0.5]];portConstraint=eastwest;" vertex="1" parent="ETVMtuT10l9wvVC2BpGE-74">
          <mxGeometry y="138" width="220" height="32" as="geometry" />
        </mxCell>
        <mxCell id="ETVMtuT10l9wvVC2BpGE-92" style="edgeStyle=orthogonalEdgeStyle;rounded=0;orthogonalLoop=1;jettySize=auto;html=1;entryX=0.5;entryY=0;entryDx=0;entryDy=0;" parent="1" source="ETVMtuT10l9wvVC2BpGE-76" target="ETVMtuT10l9wvVC2BpGE-88" edge="1">
          <mxGeometry relative="1" as="geometry" />
        </mxCell>
        <mxCell id="ETVMtuT10l9wvVC2BpGE-76" value="MinEqualsTilesPatternGoal" style="swimlane;html=1;fontStyle=0;childLayout=stackLayout;horizontal=1;startSize=26;fillColor=none;horizontalStack=0;resizeParent=1;resizeLast=0;collapsible=1;marginBottom=0;swimlaneFillColor=#ffffff;rounded=0;shadow=0;comic=0;labelBackgroundColor=none;strokeWidth=1;fontFamily=Verdana;fontSize=10;align=center;strokeColor=default;" parent="1" vertex="1">
          <mxGeometry x="-120" y="1020" width="220" height="160" as="geometry" />
        </mxCell>
        <mxCell id="ETVMtuT10l9wvVC2BpGE-84" value="&lt;p style=&quot;border-color: var(--border-color); margin: 0px 0px 0px 4px;&quot;&gt;- direction: Direction&lt;/p&gt;" style="text;html=1;strokeColor=none;fillColor=none;align=left;verticalAlign=top;spacingLeft=4;spacingRight=4;whiteSpace=wrap;overflow=hidden;rotatable=0;points=[[0,0.5],[1,0.5]];portConstraint=eastwest;" parent="ETVMtuT10l9wvVC2BpGE-76" vertex="1">
          <mxGeometry y="26" width="220" height="26" as="geometry" />
        </mxCell>
        <mxCell id="ETVMtuT10l9wvVC2BpGE-85" value="&lt;p style=&quot;border-color: var(--border-color); margin: 0px 0px 0px 4px;&quot;&gt;- maxEqualsTiles: int&lt;/p&gt;" style="text;html=1;strokeColor=none;fillColor=none;align=left;verticalAlign=top;spacingLeft=4;spacingRight=4;whiteSpace=wrap;overflow=hidden;rotatable=0;points=[[0,0.5],[1,0.5]];portConstraint=eastwest;" parent="ETVMtuT10l9wvVC2BpGE-76" vertex="1">
          <mxGeometry y="52" width="220" height="26" as="geometry" />
        </mxCell>
        <mxCell id="ETVMtuT10l9wvVC2BpGE-86" value="" style="endArrow=none;html=1;rounded=0;" parent="ETVMtuT10l9wvVC2BpGE-76" edge="1">
          <mxGeometry width="50" height="50" relative="1" as="geometry">
            <mxPoint y="78" as="sourcePoint" />
            <mxPoint x="220" y="78" as="targetPoint" />
          </mxGeometry>
        </mxCell>
        <mxCell id="ETVMtuT10l9wvVC2BpGE-77" value="&lt;p style=&quot;border-color: var(--border-color); margin: 0px 0px 0px 4px;&quot;&gt;+ numberOfPatternRepetition&lt;br style=&quot;border-color: var(--border-color);&quot;&gt;InBookshelf(Bookshelf): int&lt;br&gt;&lt;/p&gt;" style="text;html=1;strokeColor=none;fillColor=none;align=left;verticalAlign=top;spacingLeft=4;spacingRight=4;whiteSpace=wrap;overflow=hidden;rotatable=0;points=[[0,0.5],[1,0.5]];portConstraint=eastwest;" parent="ETVMtuT10l9wvVC2BpGE-76" vertex="1">
          <mxGeometry y="78" width="220" height="42" as="geometry" />
        </mxCell>
        <mxCell id="ETVMtuT10l9wvVC2BpGE-87" value="&lt;p style=&quot;border-color: var(--border-color); margin: 0px 0px 0px 4px;&quot;&gt;- confrontEqualsDifferentTiles(int, CheckType): boolean&lt;/p&gt;" style="text;html=1;strokeColor=none;fillColor=none;align=left;verticalAlign=top;spacingLeft=4;spacingRight=4;whiteSpace=wrap;overflow=hidden;rotatable=0;points=[[0,0.5],[1,0.5]];portConstraint=eastwest;" parent="ETVMtuT10l9wvVC2BpGE-76" vertex="1">
          <mxGeometry y="120" width="220" height="40" as="geometry" />
        </mxCell>
        <mxCell id="ETVMtuT10l9wvVC2BpGE-78" value="TilesInPositionsPatternGoal" style="swimlane;html=1;fontStyle=0;childLayout=stackLayout;horizontal=1;startSize=26;fillColor=none;horizontalStack=0;resizeParent=1;resizeLast=0;collapsible=1;marginBottom=0;swimlaneFillColor=#ffffff;rounded=0;shadow=0;comic=0;labelBackgroundColor=none;strokeWidth=1;fontFamily=Verdana;fontSize=10;align=center;strokeColor=default;" parent="1" vertex="1">
          <mxGeometry x="110" y="1020" width="220" height="174" as="geometry" />
        </mxCell>
        <mxCell id="ETVMtuT10l9wvVC2BpGE-79" value="&lt;p style=&quot;border-color: var(--border-color); margin: 0px 0px 0px 4px;&quot;&gt;+ numberOfPatternRepetition&lt;br style=&quot;border-color: var(--border-color);&quot;&gt;InBookshelf(Bookshelf): int&lt;br&gt;&lt;/p&gt;" style="text;html=1;strokeColor=none;fillColor=none;align=left;verticalAlign=top;spacingLeft=4;spacingRight=4;whiteSpace=wrap;overflow=hidden;rotatable=0;points=[[0,0.5],[1,0.5]];portConstraint=eastwest;" parent="ETVMtuT10l9wvVC2BpGE-78" vertex="1">
          <mxGeometry y="26" width="220" height="44" as="geometry" />
        </mxCell>
        <mxCell id="ETVMtuT10l9wvVC2BpGE-93" value="&lt;p style=&quot;border-color: var(--border-color); margin: 0px 0px 0px 4px;&quot;&gt;- searchGroup(Bookshelf, int[][], int, int, int, TileColor): void&lt;/p&gt;" style="text;html=1;strokeColor=none;fillColor=none;align=left;verticalAlign=top;spacingLeft=4;spacingRight=4;whiteSpace=wrap;overflow=hidden;rotatable=0;points=[[0,0.5],[1,0.5]];portConstraint=eastwest;" parent="ETVMtuT10l9wvVC2BpGE-78" vertex="1">
          <mxGeometry y="70" width="220" height="46" as="geometry" />
        </mxCell>
        <mxCell id="FcwqcfeG6PIgrdVunfL2-44" value="&lt;p style=&quot;border-color: var(--border-color); margin: 0px 0px 0px 4px;&quot;&gt;- numberOfElement(): int&lt;/p&gt;" style="text;html=1;strokeColor=none;fillColor=none;align=left;verticalAlign=top;spacingLeft=4;spacingRight=4;whiteSpace=wrap;overflow=hidden;rotatable=0;points=[[0,0.5],[1,0.5]];portConstraint=eastwest;" vertex="1" parent="ETVMtuT10l9wvVC2BpGE-78">
          <mxGeometry y="116" width="220" height="26" as="geometry" />
        </mxCell>
        <mxCell id="FcwqcfeG6PIgrdVunfL2-45" value="&lt;p style=&quot;border-color: var(--border-color); margin: 0px 0px 0px 4px;&quot;&gt;+ toString(): String&lt;/p&gt;" style="text;html=1;strokeColor=none;fillColor=none;align=left;verticalAlign=top;spacingLeft=4;spacingRight=4;whiteSpace=wrap;overflow=hidden;rotatable=0;points=[[0,0.5],[1,0.5]];portConstraint=eastwest;" vertex="1" parent="ETVMtuT10l9wvVC2BpGE-78">
          <mxGeometry y="142" width="220" height="32" as="geometry" />
        </mxCell>
        <mxCell id="ETVMtuT10l9wvVC2BpGE-80" value="FourCornersPatternGoal" style="swimlane;html=1;fontStyle=0;childLayout=stackLayout;horizontal=1;startSize=26;fillColor=none;horizontalStack=0;resizeParent=1;resizeLast=0;collapsible=1;marginBottom=0;swimlaneFillColor=#ffffff;rounded=0;shadow=0;comic=0;labelBackgroundColor=none;strokeWidth=1;fontFamily=Verdana;fontSize=10;align=center;strokeColor=default;" parent="1" vertex="1">
          <mxGeometry x="340" y="1020" width="220" height="84" as="geometry" />
        </mxCell>
        <mxCell id="ETVMtuT10l9wvVC2BpGE-81" value="&lt;p style=&quot;border-color: var(--border-color); margin: 0px 0px 0px 4px;&quot;&gt;+ goalPattern(Bookshelf): int&lt;/p&gt;" style="text;html=1;strokeColor=none;fillColor=none;align=left;verticalAlign=top;spacingLeft=4;spacingRight=4;whiteSpace=wrap;overflow=hidden;rotatable=0;points=[[0,0.5],[1,0.5]];portConstraint=eastwest;" parent="ETVMtuT10l9wvVC2BpGE-80" vertex="1">
          <mxGeometry y="26" width="220" height="26" as="geometry" />
        </mxCell>
        <mxCell id="FcwqcfeG6PIgrdVunfL2-46" value="&lt;p style=&quot;border-color: var(--border-color); margin: 0px 0px 0px 4px;&quot;&gt;+ toString(): String&lt;/p&gt;" style="text;html=1;strokeColor=none;fillColor=none;align=left;verticalAlign=top;spacingLeft=4;spacingRight=4;whiteSpace=wrap;overflow=hidden;rotatable=0;points=[[0,0.5],[1,0.5]];portConstraint=eastwest;" vertex="1" parent="ETVMtuT10l9wvVC2BpGE-80">
          <mxGeometry y="52" width="220" height="32" as="geometry" />
        </mxCell>
        <mxCell id="ETVMtuT10l9wvVC2BpGE-88" value="&lt;p style=&quot;margin:0px;margin-top:4px;text-align:center;&quot;&gt;&lt;i&gt;&amp;lt;&amp;lt;enumeration&amp;gt;&amp;gt;&lt;/i&gt;&lt;br&gt;&lt;b&gt;Direction&lt;/b&gt;&lt;/p&gt;" style="verticalAlign=top;align=left;overflow=fill;fontSize=12;fontFamily=Helvetica;html=1;rounded=0;shadow=0;comic=0;labelBackgroundColor=none;strokeWidth=1" parent="1" vertex="1">
          <mxGeometry x="-105" y="1270" width="190" height="202" as="geometry" />
        </mxCell>
        <mxCell id="ETVMtuT10l9wvVC2BpGE-89" value="HORIZONTAL" style="text;html=1;strokeColor=none;fillColor=none;align=left;verticalAlign=top;spacingLeft=4;spacingRight=4;whiteSpace=wrap;overflow=hidden;rotatable=0;points=[[0,0.5],[1,0.5]];portConstraint=eastwest;" parent="1" vertex="1">
          <mxGeometry x="-100" y="1302" width="150" height="26" as="geometry" />
        </mxCell>
        <mxCell id="ETVMtuT10l9wvVC2BpGE-90" value="VERTICAL" style="text;html=1;strokeColor=none;fillColor=none;align=left;verticalAlign=top;spacingLeft=4;spacingRight=4;whiteSpace=wrap;overflow=hidden;rotatable=0;points=[[0,0.5],[1,0.5]];portConstraint=eastwest;" parent="1" vertex="1">
          <mxGeometry x="-100" y="1327" width="170" height="26" as="geometry" />
        </mxCell>
        <mxCell id="ETVMtuT10l9wvVC2BpGE-99" value="" style="endArrow=none;html=1;rounded=0;exitX=0.5;exitY=0;exitDx=0;exitDy=0;" parent="1" source="ETVMtuT10l9wvVC2BpGE-70" edge="1">
          <mxGeometry width="50" height="50" relative="1" as="geometry">
            <mxPoint x="-680" y="990" as="sourcePoint" />
            <mxPoint x="-700" y="940" as="targetPoint" />
          </mxGeometry>
        </mxCell>
        <mxCell id="ETVMtuT10l9wvVC2BpGE-100" value="" style="endArrow=none;html=1;rounded=0;exitX=0.5;exitY=0;exitDx=0;exitDy=0;" parent="1" edge="1">
          <mxGeometry width="50" height="50" relative="1" as="geometry">
            <mxPoint x="-470" y="1020" as="sourcePoint" />
            <mxPoint x="-470" y="940" as="targetPoint" />
          </mxGeometry>
        </mxCell>
        <mxCell id="ETVMtuT10l9wvVC2BpGE-101" value="" style="endArrow=none;html=1;rounded=0;exitX=0.5;exitY=0;exitDx=0;exitDy=0;" parent="1" edge="1">
          <mxGeometry width="50" height="50" relative="1" as="geometry">
            <mxPoint x="-240.48000000000002" y="1020" as="sourcePoint" />
            <mxPoint x="-240" y="940" as="targetPoint" />
          </mxGeometry>
        </mxCell>
        <mxCell id="ETVMtuT10l9wvVC2BpGE-102" value="" style="endArrow=none;html=1;rounded=0;exitX=0.5;exitY=0;exitDx=0;exitDy=0;" parent="1" edge="1">
          <mxGeometry width="50" height="50" relative="1" as="geometry">
            <mxPoint x="-10.480000000000018" y="1020" as="sourcePoint" />
            <mxPoint x="-10" y="940" as="targetPoint" />
          </mxGeometry>
        </mxCell>
        <mxCell id="ETVMtuT10l9wvVC2BpGE-103" value="" style="endArrow=none;html=1;rounded=0;exitX=0.5;exitY=0;exitDx=0;exitDy=0;" parent="1" edge="1">
          <mxGeometry width="50" height="50" relative="1" as="geometry">
            <mxPoint x="220" y="1020" as="sourcePoint" />
            <mxPoint x="220" y="940" as="targetPoint" />
          </mxGeometry>
        </mxCell>
        <mxCell id="ETVMtuT10l9wvVC2BpGE-105" value="" style="endArrow=none;html=1;rounded=0;exitX=0.5;exitY=0;exitDx=0;exitDy=0;" parent="1" source="ETVMtuT10l9wvVC2BpGE-80" edge="1">
          <mxGeometry width="50" height="50" relative="1" as="geometry">
            <mxPoint x="420" y="950" as="sourcePoint" />
            <mxPoint x="-370" y="940" as="targetPoint" />
            <Array as="points">
              <mxPoint x="450" y="940" />
            </Array>
          </mxGeometry>
        </mxCell>
        <mxCell id="FcwqcfeG6PIgrdVunfL2-97" style="edgeStyle=orthogonalEdgeStyle;rounded=0;orthogonalLoop=1;jettySize=auto;html=1;exitX=0.5;exitY=0;exitDx=0;exitDy=0;entryX=0.5;entryY=1;entryDx=0;entryDy=0;endArrow=block;endFill=0;startSize=6;endSize=12;dashed=1;" edge="1" parent="1" source="x2eGTTG-zAIdovQSOwKP-1" target="FcwqcfeG6PIgrdVunfL2-86">
          <mxGeometry relative="1" as="geometry" />
        </mxCell>
        <mxCell id="x2eGTTG-zAIdovQSOwKP-1" value="GameController" style="swimlane;html=1;fontStyle=0;childLayout=stackLayout;horizontal=1;startSize=26;fillColor=none;horizontalStack=0;resizeParent=1;resizeLast=0;collapsible=1;marginBottom=0;swimlaneFillColor=#ffffff;rounded=0;shadow=0;comic=0;labelBackgroundColor=none;strokeWidth=1;fontFamily=Verdana;fontSize=10;align=center;strokeColor=default;" parent="1" vertex="1">
          <mxGeometry x="1580" y="-290" width="240" height="510" as="geometry" />
        </mxCell>
        <mxCell id="x2eGTTG-zAIdovQSOwKP-6" value="+ changeTurn(): void" style="text;html=1;strokeColor=none;fillColor=none;align=left;verticalAlign=top;spacingLeft=4;spacingRight=4;whiteSpace=wrap;overflow=hidden;rotatable=0;points=[[0,0.5],[1,0.5]];portConstraint=eastwest;" parent="x2eGTTG-zAIdovQSOwKP-1" vertex="1">
          <mxGeometry y="26" width="240" height="24" as="geometry" />
        </mxCell>
        <mxCell id="x2eGTTG-zAIdovQSOwKP-7" value="- refillBoard(): void" style="text;html=1;strokeColor=none;fillColor=none;align=left;verticalAlign=top;spacingLeft=4;spacingRight=4;whiteSpace=wrap;overflow=hidden;rotatable=0;points=[[0,0.5],[1,0.5]];portConstraint=eastwest;" parent="x2eGTTG-zAIdovQSOwKP-1" vertex="1">
          <mxGeometry y="50" width="240" height="26" as="geometry" />
        </mxCell>
        <mxCell id="FcwqcfeG6PIgrdVunfL2-72" value="- changeActivePlayer(): void" style="text;html=1;strokeColor=none;fillColor=none;align=left;verticalAlign=top;spacingLeft=4;spacingRight=4;whiteSpace=wrap;overflow=hidden;rotatable=0;points=[[0,0.5],[1,0.5]];portConstraint=eastwest;" vertex="1" parent="x2eGTTG-zAIdovQSOwKP-1">
          <mxGeometry y="76" width="240" height="26" as="geometry" />
        </mxCell>
        <mxCell id="FcwqcfeG6PIgrdVunfL2-73" value="- checkIfGameEnded(): boolean" style="text;html=1;strokeColor=none;fillColor=none;align=left;verticalAlign=top;spacingLeft=4;spacingRight=4;whiteSpace=wrap;overflow=hidden;rotatable=0;points=[[0,0.5],[1,0.5]];portConstraint=eastwest;" vertex="1" parent="x2eGTTG-zAIdovQSOwKP-1">
          <mxGeometry y="102" width="240" height="26" as="geometry" />
        </mxCell>
        <mxCell id="FcwqcfeG6PIgrdVunfL2-74" value="- checkIfUserInputIsCorrect(Choice):&lt;br&gt;&amp;nbsp;boolean" style="text;html=1;strokeColor=none;fillColor=none;align=left;verticalAlign=top;spacingLeft=4;spacingRight=4;whiteSpace=wrap;overflow=hidden;rotatable=0;points=[[0,0.5],[1,0.5]];portConstraint=eastwest;" vertex="1" parent="x2eGTTG-zAIdovQSOwKP-1">
          <mxGeometry y="128" width="240" height="32" as="geometry" />
        </mxCell>
        <mxCell id="FcwqcfeG6PIgrdVunfL2-75" value="- checkIfCoordinatesAre&lt;br&gt;Plausible(List&amp;lt;Coordinates&amp;gt;): boolean" style="text;html=1;strokeColor=none;fillColor=none;align=left;verticalAlign=top;spacingLeft=4;spacingRight=4;whiteSpace=wrap;overflow=hidden;rotatable=0;points=[[0,0.5],[1,0.5]];portConstraint=eastwest;" vertex="1" parent="x2eGTTG-zAIdovQSOwKP-1">
          <mxGeometry y="160" width="240" height="40" as="geometry" />
        </mxCell>
        <mxCell id="FcwqcfeG6PIgrdVunfL2-76" value="- checkIfPickable(int, int): boolean" style="text;html=1;strokeColor=none;fillColor=none;align=left;verticalAlign=top;spacingLeft=4;spacingRight=4;whiteSpace=wrap;overflow=hidden;rotatable=0;points=[[0,0.5],[1,0.5]];portConstraint=eastwest;" vertex="1" parent="x2eGTTG-zAIdovQSOwKP-1">
          <mxGeometry y="200" width="240" height="26" as="geometry" />
        </mxCell>
        <mxCell id="FcwqcfeG6PIgrdVunfL2-77" value="+ insertUserInputIntoModel(Choice): void" style="text;html=1;strokeColor=none;fillColor=none;align=left;verticalAlign=top;spacingLeft=4;spacingRight=4;whiteSpace=wrap;overflow=hidden;rotatable=0;points=[[0,0.5],[1,0.5]];portConstraint=eastwest;" vertex="1" parent="x2eGTTG-zAIdovQSOwKP-1">
          <mxGeometry y="226" width="240" height="26" as="geometry" />
        </mxCell>
        <mxCell id="FcwqcfeG6PIgrdVunfL2-78" value="+ sendPrivateMessage(String,String,&lt;br&gt;String): void" style="text;html=1;strokeColor=none;fillColor=none;align=left;verticalAlign=top;spacingLeft=4;spacingRight=4;whiteSpace=wrap;overflow=hidden;rotatable=0;points=[[0,0.5],[1,0.5]];portConstraint=eastwest;" vertex="1" parent="x2eGTTG-zAIdovQSOwKP-1">
          <mxGeometry y="252" width="240" height="38" as="geometry" />
        </mxCell>
        <mxCell id="FcwqcfeG6PIgrdVunfL2-79" value="+ sendBroadcastMessage(String,String,&lt;br&gt;String): void" style="text;html=1;strokeColor=none;fillColor=none;align=left;verticalAlign=top;spacingLeft=4;spacingRight=4;whiteSpace=wrap;overflow=hidden;rotatable=0;points=[[0,0.5],[1,0.5]];portConstraint=eastwest;" vertex="1" parent="x2eGTTG-zAIdovQSOwKP-1">
          <mxGeometry y="290" width="240" height="40" as="geometry" />
        </mxCell>
        <mxCell id="FcwqcfeG6PIgrdVunfL2-80" value="+ addPlayer(String): void" style="text;html=1;strokeColor=none;fillColor=none;align=left;verticalAlign=top;spacingLeft=4;spacingRight=4;whiteSpace=wrap;overflow=hidden;rotatable=0;points=[[0,0.5],[1,0.5]];portConstraint=eastwest;" vertex="1" parent="x2eGTTG-zAIdovQSOwKP-1">
          <mxGeometry y="330" width="240" height="26" as="geometry" />
        </mxCell>
        <mxCell id="FcwqcfeG6PIgrdVunfL2-81" value="+ chooseNumberOfPlayerIn&lt;br&gt;TheGame(int): void" style="text;html=1;strokeColor=none;fillColor=none;align=left;verticalAlign=top;spacingLeft=4;spacingRight=4;whiteSpace=wrap;overflow=hidden;rotatable=0;points=[[0,0.5],[1,0.5]];portConstraint=eastwest;" vertex="1" parent="x2eGTTG-zAIdovQSOwKP-1">
          <mxGeometry y="356" width="240" height="34" as="geometry" />
        </mxCell>
        <mxCell id="FcwqcfeG6PIgrdVunfL2-82" value="- startGame(): void" style="text;html=1;strokeColor=none;fillColor=none;align=left;verticalAlign=top;spacingLeft=4;spacingRight=4;whiteSpace=wrap;overflow=hidden;rotatable=0;points=[[0,0.5],[1,0.5]];portConstraint=eastwest;" vertex="1" parent="x2eGTTG-zAIdovQSOwKP-1">
          <mxGeometry y="390" width="240" height="26" as="geometry" />
        </mxCell>
        <mxCell id="FcwqcfeG6PIgrdVunfL2-83" value="- removeTilesFromBoard(List&amp;lt;TileView&amp;gt;,&lt;br&gt;List&amp;lt;Coordinates&amp;gt;): void" style="text;html=1;strokeColor=none;fillColor=none;align=left;verticalAlign=top;spacingLeft=4;spacingRight=4;whiteSpace=wrap;overflow=hidden;rotatable=0;points=[[0,0.5],[1,0.5]];portConstraint=eastwest;" vertex="1" parent="x2eGTTG-zAIdovQSOwKP-1">
          <mxGeometry y="416" width="240" height="44" as="geometry" />
        </mxCell>
        <mxCell id="FcwqcfeG6PIgrdVunfL2-84" value="- addTilesToPlayerBookshelf&lt;br&gt;(List&amp;lt;TileView&amp;gt;, int[], int): void" style="text;html=1;strokeColor=none;fillColor=none;align=left;verticalAlign=top;spacingLeft=4;spacingRight=4;whiteSpace=wrap;overflow=hidden;rotatable=0;points=[[0,0.5],[1,0.5]];portConstraint=eastwest;" vertex="1" parent="x2eGTTG-zAIdovQSOwKP-1">
          <mxGeometry y="460" width="240" height="40" as="geometry" />
        </mxCell>
        <mxCell id="x2eGTTG-zAIdovQSOwKP-31" value="Model" style="text;html=1;strokeColor=none;fillColor=none;align=center;verticalAlign=middle;whiteSpace=wrap;rounded=0;" parent="1" vertex="1">
          <mxGeometry x="1530" y="-170" width="60" height="30" as="geometry" />
        </mxCell>
        <mxCell id="x2eGTTG-zAIdovQSOwKP-38" value="PURPLE" style="text;html=1;strokeColor=none;fillColor=none;align=left;verticalAlign=top;spacingLeft=4;spacingRight=4;whiteSpace=wrap;overflow=hidden;rotatable=0;points=[[0,0.5],[1,0.5]];portConstraint=eastwest;" parent="1" vertex="1">
          <mxGeometry x="500" y="360" width="155" height="26" as="geometry" />
        </mxCell>
        <mxCell id="x2eGTTG-zAIdovQSOwKP-39" value="CYAN" style="text;html=1;strokeColor=none;fillColor=none;align=left;verticalAlign=top;spacingLeft=4;spacingRight=4;whiteSpace=wrap;overflow=hidden;rotatable=0;points=[[0,0.5],[1,0.5]];portConstraint=eastwest;" parent="1" vertex="1">
          <mxGeometry x="500" y="334" width="155" height="26" as="geometry" />
        </mxCell>
        <mxCell id="x2eGTTG-zAIdovQSOwKP-40" value="Chat" style="text;html=1;strokeColor=none;fillColor=none;align=center;verticalAlign=middle;whiteSpace=wrap;rounded=0;" parent="1" vertex="1">
          <mxGeometry x="1340" y="400" width="60" height="30" as="geometry" />
        </mxCell>
        <mxCell id="x2eGTTG-zAIdovQSOwKP-41" value="0..N" style="text;html=1;strokeColor=none;fillColor=none;align=center;verticalAlign=middle;whiteSpace=wrap;rounded=0;" parent="1" vertex="1">
          <mxGeometry x="1340" y="440" width="60" height="30" as="geometry" />
        </mxCell>
        <mxCell id="x2eGTTG-zAIdovQSOwKP-44" value="1" style="text;html=1;strokeColor=none;fillColor=none;align=center;verticalAlign=middle;whiteSpace=wrap;rounded=0;" parent="1" vertex="1">
          <mxGeometry x="1530" y="-138" width="60" height="30" as="geometry" />
        </mxCell>
        <mxCell id="x2eGTTG-zAIdovQSOwKP-18" style="edgeStyle=orthogonalEdgeStyle;rounded=0;orthogonalLoop=1;jettySize=auto;html=1;entryX=1;entryY=0.5;entryDx=0;entryDy=0;" parent="1" target="FcwqcfeG6PIgrdVunfL2-17" edge="1">
          <mxGeometry relative="1" as="geometry">
            <mxPoint x="950" y="29" as="targetPoint" />
            <Array as="points">
              <mxPoint x="1180" y="-140" />
              <mxPoint x="1180" y="-10" />
              <mxPoint x="950" y="-10" />
            </Array>
            <mxPoint x="1580" y="-139.9411764705883" as="sourcePoint" />
          </mxGeometry>
        </mxCell>
        <mxCell id="FcwqcfeG6PIgrdVunfL2-29" value="+ toString(): String" style="text;html=1;strokeColor=none;fillColor=none;align=left;verticalAlign=top;spacingLeft=4;spacingRight=4;whiteSpace=wrap;overflow=hidden;rotatable=0;points=[[0,0.5],[1,0.5]];portConstraint=eastwest;" vertex="1" parent="1">
          <mxGeometry x="500" y="386" width="135" height="24" as="geometry" />
        </mxCell>
        <mxCell id="FcwqcfeG6PIgrdVunfL2-30" value="" style="endArrow=none;html=1;rounded=0;exitX=-0.003;exitY=0.87;exitDx=0;exitDy=0;exitPerimeter=0;entryX=1.033;entryY=0.006;entryDx=0;entryDy=0;entryPerimeter=0;" edge="1" parent="1" target="FcwqcfeG6PIgrdVunfL2-29">
          <mxGeometry width="50" height="50" relative="1" as="geometry">
            <mxPoint x="500" y="386" as="sourcePoint" />
            <mxPoint x="635" y="386" as="targetPoint" />
          </mxGeometry>
        </mxCell>
        <mxCell id="FcwqcfeG6PIgrdVunfL2-33" value="Classe che gestisce la diagonale e la X" style="text;html=1;strokeColor=none;fillColor=none;align=center;verticalAlign=middle;whiteSpace=wrap;rounded=0;" vertex="1" parent="1">
          <mxGeometry x="-765" y="1130" width="130" height="30" as="geometry" />
        </mxCell>
        <mxCell id="FcwqcfeG6PIgrdVunfL2-34" value="Classe che gestisce i gruppi di 2 e 4 tiles uguali in qualsiasi forma" style="text;html=1;strokeColor=none;fillColor=none;align=center;verticalAlign=middle;whiteSpace=wrap;rounded=0;" vertex="1" parent="1">
          <mxGeometry x="-335" y="1210" width="190" height="30" as="geometry" />
        </mxCell>
        <mxCell id="FcwqcfeG6PIgrdVunfL2-86" value="&amp;lt;&amp;lt;Interface&amp;gt;&amp;gt;&lt;br&gt;ViewListener&lt;br&gt;" style="swimlane;html=1;fontStyle=0;childLayout=stackLayout;horizontal=1;startSize=26;fillColor=none;horizontalStack=0;resizeParent=1;resizeLast=0;collapsible=1;marginBottom=0;swimlaneFillColor=#ffffff;rounded=0;shadow=0;comic=0;labelBackgroundColor=none;strokeWidth=1;fontFamily=Verdana;fontSize=10;align=center;" vertex="1" parent="1">
          <mxGeometry x="1580" y="-1260" width="240" height="220" as="geometry" />
        </mxCell>
        <mxCell id="FcwqcfeG6PIgrdVunfL2-91" value="+ changeTurn(): void" style="text;html=1;strokeColor=none;fillColor=none;align=left;verticalAlign=top;spacingLeft=4;spacingRight=4;whiteSpace=wrap;overflow=hidden;rotatable=0;points=[[0,0.5],[1,0.5]];portConstraint=eastwest;" vertex="1" parent="FcwqcfeG6PIgrdVunfL2-86">
          <mxGeometry y="26" width="240" height="24" as="geometry" />
        </mxCell>
        <mxCell id="FcwqcfeG6PIgrdVunfL2-92" value="+ insertUserInputIntoModel(Choice): void" style="text;html=1;strokeColor=none;fillColor=none;align=left;verticalAlign=top;spacingLeft=4;spacingRight=4;whiteSpace=wrap;overflow=hidden;rotatable=0;points=[[0,0.5],[1,0.5]];portConstraint=eastwest;" vertex="1" parent="FcwqcfeG6PIgrdVunfL2-86">
          <mxGeometry y="50" width="240" height="26" as="geometry" />
        </mxCell>
        <mxCell id="FcwqcfeG6PIgrdVunfL2-93" value="+ sendPrivateMessage(String,String,&lt;br&gt;String): void" style="text;html=1;strokeColor=none;fillColor=none;align=left;verticalAlign=top;spacingLeft=4;spacingRight=4;whiteSpace=wrap;overflow=hidden;rotatable=0;points=[[0,0.5],[1,0.5]];portConstraint=eastwest;" vertex="1" parent="FcwqcfeG6PIgrdVunfL2-86">
          <mxGeometry y="76" width="240" height="38" as="geometry" />
        </mxCell>
        <mxCell id="FcwqcfeG6PIgrdVunfL2-94" value="+ sendBroadcastMessage(String,String,&lt;br&gt;String): void" style="text;html=1;strokeColor=none;fillColor=none;align=left;verticalAlign=top;spacingLeft=4;spacingRight=4;whiteSpace=wrap;overflow=hidden;rotatable=0;points=[[0,0.5],[1,0.5]];portConstraint=eastwest;" vertex="1" parent="FcwqcfeG6PIgrdVunfL2-86">
          <mxGeometry y="114" width="240" height="40" as="geometry" />
        </mxCell>
        <mxCell id="FcwqcfeG6PIgrdVunfL2-95" value="+ addPlayer(String): void" style="text;html=1;strokeColor=none;fillColor=none;align=left;verticalAlign=top;spacingLeft=4;spacingRight=4;whiteSpace=wrap;overflow=hidden;rotatable=0;points=[[0,0.5],[1,0.5]];portConstraint=eastwest;" vertex="1" parent="FcwqcfeG6PIgrdVunfL2-86">
          <mxGeometry y="154" width="240" height="26" as="geometry" />
        </mxCell>
        <mxCell id="FcwqcfeG6PIgrdVunfL2-96" value="+ chooseNumberOfPlayerIn&lt;br&gt;TheGame(int): void" style="text;html=1;strokeColor=none;fillColor=none;align=left;verticalAlign=top;spacingLeft=4;spacingRight=4;whiteSpace=wrap;overflow=hidden;rotatable=0;points=[[0,0.5],[1,0.5]];portConstraint=eastwest;" vertex="1" parent="FcwqcfeG6PIgrdVunfL2-86">
          <mxGeometry y="180" width="240" height="34" as="geometry" />
        </mxCell>
        <mxCell id="FcwqcfeG6PIgrdVunfL2-114" style="edgeStyle=orthogonalEdgeStyle;rounded=0;orthogonalLoop=1;jettySize=auto;html=1;exitX=0.5;exitY=1;exitDx=0;exitDy=0;entryX=0.5;entryY=0;entryDx=0;entryDy=0;endArrow=block;endFill=0;endSize=12;" edge="1" parent="1" source="FcwqcfeG6PIgrdVunfL2-98" target="FcwqcfeG6PIgrdVunfL2-106">
          <mxGeometry relative="1" as="geometry" />
        </mxCell>
        <mxCell id="FcwqcfeG6PIgrdVunfL2-128" style="edgeStyle=orthogonalEdgeStyle;rounded=0;orthogonalLoop=1;jettySize=auto;html=1;exitX=0;exitY=0.5;exitDx=0;exitDy=0;entryX=0.5;entryY=0;entryDx=0;entryDy=0;endArrow=block;endFill=0;endSize=12;" edge="1" parent="1" source="FcwqcfeG6PIgrdVunfL2-98" target="FcwqcfeG6PIgrdVunfL2-118">
          <mxGeometry relative="1" as="geometry" />
        </mxCell>
        <mxCell id="FcwqcfeG6PIgrdVunfL2-133" style="edgeStyle=orthogonalEdgeStyle;rounded=0;orthogonalLoop=1;jettySize=auto;html=1;exitX=1;exitY=0.5;exitDx=0;exitDy=0;entryX=0.5;entryY=0;entryDx=0;entryDy=0;endArrow=block;endFill=0;endSize=12;" edge="1" parent="1" source="FcwqcfeG6PIgrdVunfL2-98" target="FcwqcfeG6PIgrdVunfL2-129">
          <mxGeometry relative="1" as="geometry" />
        </mxCell>
        <mxCell id="FcwqcfeG6PIgrdVunfL2-98" value="&amp;lt;&amp;lt;Interface&amp;gt;&amp;gt;&lt;br&gt;ModelListener" style="swimlane;html=1;fontStyle=0;childLayout=stackLayout;horizontal=1;startSize=60;fillColor=none;horizontalStack=0;resizeParent=1;resizeLast=0;collapsible=1;marginBottom=0;swimlaneFillColor=#ffffff;rounded=0;shadow=0;comic=0;labelBackgroundColor=none;strokeWidth=1;fontFamily=Verdana;fontSize=10;align=center;" vertex="1" parent="1">
          <mxGeometry x="710" y="-700" width="240" height="40" as="geometry" />
        </mxCell>
        <mxCell id="FcwqcfeG6PIgrdVunfL2-106" value="&amp;lt;&amp;lt;Interface&amp;gt;&amp;gt;&lt;br&gt;GameListener" style="swimlane;html=1;fontStyle=0;childLayout=stackLayout;horizontal=1;startSize=26;fillColor=none;horizontalStack=0;resizeParent=1;resizeLast=0;collapsible=1;marginBottom=0;swimlaneFillColor=#ffffff;rounded=0;shadow=0;comic=0;labelBackgroundColor=none;strokeWidth=1;fontFamily=Verdana;fontSize=10;align=center;" vertex="1" parent="1">
          <mxGeometry x="710" y="-430" width="240" height="190" as="geometry" />
        </mxCell>
        <mxCell id="FcwqcfeG6PIgrdVunfL2-107" value="+ numberOfPlayersModified(): void" style="text;html=1;strokeColor=none;fillColor=none;align=left;verticalAlign=top;spacingLeft=4;spacingRight=4;whiteSpace=wrap;overflow=hidden;rotatable=0;points=[[0,0.5],[1,0.5]];portConstraint=eastwest;" vertex="1" parent="FcwqcfeG6PIgrdVunfL2-106">
          <mxGeometry y="26" width="240" height="24" as="geometry" />
        </mxCell>
        <mxCell id="FcwqcfeG6PIgrdVunfL2-108" value="+ activePlayerIndexModified(): void" style="text;html=1;strokeColor=none;fillColor=none;align=left;verticalAlign=top;spacingLeft=4;spacingRight=4;whiteSpace=wrap;overflow=hidden;rotatable=0;points=[[0,0.5],[1,0.5]];portConstraint=eastwest;" vertex="1" parent="FcwqcfeG6PIgrdVunfL2-106">
          <mxGeometry y="50" width="240" height="26" as="geometry" />
        </mxCell>
        <mxCell id="FcwqcfeG6PIgrdVunfL2-109" value="+ bagModified(): void" style="text;html=1;strokeColor=none;fillColor=none;align=left;verticalAlign=top;spacingLeft=4;spacingRight=4;whiteSpace=wrap;overflow=hidden;rotatable=0;points=[[0,0.5],[1,0.5]];portConstraint=eastwest;" vertex="1" parent="FcwqcfeG6PIgrdVunfL2-106">
          <mxGeometry y="76" width="240" height="24" as="geometry" />
        </mxCell>
        <mxCell id="FcwqcfeG6PIgrdVunfL2-110" value="+ commonGoalsModified(): void" style="text;html=1;strokeColor=none;fillColor=none;align=left;verticalAlign=top;spacingLeft=4;spacingRight=4;whiteSpace=wrap;overflow=hidden;rotatable=0;points=[[0,0.5],[1,0.5]];portConstraint=eastwest;" vertex="1" parent="FcwqcfeG6PIgrdVunfL2-106">
          <mxGeometry y="100" width="240" height="30" as="geometry" />
        </mxCell>
        <mxCell id="FcwqcfeG6PIgrdVunfL2-111" value="+ addedPlayer(): void" style="text;html=1;strokeColor=none;fillColor=none;align=left;verticalAlign=top;spacingLeft=4;spacingRight=4;whiteSpace=wrap;overflow=hidden;rotatable=0;points=[[0,0.5],[1,0.5]];portConstraint=eastwest;" vertex="1" parent="FcwqcfeG6PIgrdVunfL2-106">
          <mxGeometry y="130" width="240" height="26" as="geometry" />
        </mxCell>
        <mxCell id="FcwqcfeG6PIgrdVunfL2-112" value="+ startOfTheGame(): void" style="text;html=1;strokeColor=none;fillColor=none;align=left;verticalAlign=top;spacingLeft=4;spacingRight=4;whiteSpace=wrap;overflow=hidden;rotatable=0;points=[[0,0.5],[1,0.5]];portConstraint=eastwest;" vertex="1" parent="FcwqcfeG6PIgrdVunfL2-106">
          <mxGeometry y="156" width="240" height="30" as="geometry" />
        </mxCell>
        <mxCell id="FcwqcfeG6PIgrdVunfL2-116" value="1" style="text;html=1;align=center;verticalAlign=middle;resizable=0;points=[];autosize=1;strokeColor=none;fillColor=none;" vertex="1" parent="1">
          <mxGeometry x="800" y="-123" width="30" height="30" as="geometry" />
        </mxCell>
        <mxCell id="FcwqcfeG6PIgrdVunfL2-117" value="listener" style="text;html=1;strokeColor=none;fillColor=none;align=center;verticalAlign=middle;whiteSpace=wrap;rounded=0;" vertex="1" parent="1">
          <mxGeometry x="830" y="-123" width="60" height="30" as="geometry" />
        </mxCell>
        <mxCell id="FcwqcfeG6PIgrdVunfL2-118" value="&amp;lt;&amp;lt;Interface&amp;gt;&amp;gt;&lt;br&gt;BoardListener" style="swimlane;html=1;fontStyle=0;childLayout=stackLayout;horizontal=1;startSize=26;fillColor=none;horizontalStack=0;resizeParent=1;resizeLast=0;collapsible=1;marginBottom=0;swimlaneFillColor=#ffffff;rounded=0;shadow=0;comic=0;labelBackgroundColor=none;strokeWidth=1;fontFamily=Verdana;fontSize=10;align=center;" vertex="1" parent="1">
          <mxGeometry x="-42" y="-300" width="240" height="80" as="geometry" />
        </mxCell>
        <mxCell id="FcwqcfeG6PIgrdVunfL2-119" value="+ addedTilesToBoard(): void" style="text;html=1;strokeColor=none;fillColor=none;align=left;verticalAlign=top;spacingLeft=4;spacingRight=4;whiteSpace=wrap;overflow=hidden;rotatable=0;points=[[0,0.5],[1,0.5]];portConstraint=eastwest;" vertex="1" parent="FcwqcfeG6PIgrdVunfL2-118">
          <mxGeometry y="26" width="240" height="24" as="geometry" />
        </mxCell>
        <mxCell id="FcwqcfeG6PIgrdVunfL2-120" value="+ removedTilesFromBoard(): void" style="text;html=1;strokeColor=none;fillColor=none;align=left;verticalAlign=top;spacingLeft=4;spacingRight=4;whiteSpace=wrap;overflow=hidden;rotatable=0;points=[[0,0.5],[1,0.5]];portConstraint=eastwest;" vertex="1" parent="FcwqcfeG6PIgrdVunfL2-118">
          <mxGeometry y="50" width="240" height="26" as="geometry" />
        </mxCell>
        <mxCell id="FcwqcfeG6PIgrdVunfL2-126" value="1" style="text;html=1;align=center;verticalAlign=middle;resizable=0;points=[];autosize=1;strokeColor=none;fillColor=none;" vertex="1" parent="1">
          <mxGeometry x="50" y="49" width="30" height="30" as="geometry" />
        </mxCell>
        <mxCell id="FcwqcfeG6PIgrdVunfL2-127" value="listener" style="text;html=1;strokeColor=none;fillColor=none;align=center;verticalAlign=middle;whiteSpace=wrap;rounded=0;" vertex="1" parent="1">
          <mxGeometry x="80" y="49" width="60" height="30" as="geometry" />
        </mxCell>
        <mxCell id="FcwqcfeG6PIgrdVunfL2-129" value="&amp;lt;&amp;lt;Interface&amp;gt;&amp;gt;&lt;br&gt;BoardListener" style="swimlane;html=1;fontStyle=0;childLayout=stackLayout;horizontal=1;startSize=26;fillColor=none;horizontalStack=0;resizeParent=1;resizeLast=0;collapsible=1;marginBottom=0;swimlaneFillColor=#ffffff;rounded=0;shadow=0;comic=0;labelBackgroundColor=none;strokeWidth=1;fontFamily=Verdana;fontSize=10;align=center;" vertex="1" parent="1">
          <mxGeometry x="1000" y="-300" width="240" height="80" as="geometry" />
        </mxCell>
        <mxCell id="FcwqcfeG6PIgrdVunfL2-130" value="+ tileAddedToBookshelf(): void" style="text;html=1;strokeColor=none;fillColor=none;align=left;verticalAlign=top;spacingLeft=4;spacingRight=4;whiteSpace=wrap;overflow=hidden;rotatable=0;points=[[0,0.5],[1,0.5]];portConstraint=eastwest;" vertex="1" parent="FcwqcfeG6PIgrdVunfL2-129">
          <mxGeometry y="26" width="240" height="24" as="geometry" />
        </mxCell>
        <mxCell id="FcwqcfeG6PIgrdVunfL2-131" value="+ imageModified(): void" style="text;html=1;strokeColor=none;fillColor=none;align=left;verticalAlign=top;spacingLeft=4;spacingRight=4;whiteSpace=wrap;overflow=hidden;rotatable=0;points=[[0,0.5],[1,0.5]];portConstraint=eastwest;" vertex="1" parent="FcwqcfeG6PIgrdVunfL2-129">
          <mxGeometry y="50" width="240" height="26" as="geometry" />
        </mxCell>
        <mxCell id="FcwqcfeG6PIgrdVunfL2-134" style="edgeStyle=orthogonalEdgeStyle;rounded=0;orthogonalLoop=1;jettySize=auto;html=1;exitX=1;exitY=0.5;exitDx=0;exitDy=0;entryX=0.5;entryY=1;entryDx=0;entryDy=0;" edge="1" parent="1" source="6mkCIRbmMQfoTAYwDSCQ-40" target="FcwqcfeG6PIgrdVunfL2-129">
          <mxGeometry relative="1" as="geometry">
            <Array as="points">
              <mxPoint x="1120" y="340" />
              <mxPoint x="1120" y="-220" />
            </Array>
          </mxGeometry>
        </mxCell>
        <mxCell id="FcwqcfeG6PIgrdVunfL2-135" value="1" style="text;html=1;align=center;verticalAlign=middle;resizable=0;points=[];autosize=1;strokeColor=none;fillColor=none;" vertex="1" parent="1">
          <mxGeometry x="910" y="304" width="30" height="30" as="geometry" />
        </mxCell>
        <mxCell id="FcwqcfeG6PIgrdVunfL2-136" value="listener" style="text;html=1;strokeColor=none;fillColor=none;align=center;verticalAlign=middle;whiteSpace=wrap;rounded=0;" vertex="1" parent="1">
          <mxGeometry x="900" y="340" width="60" height="30" as="geometry" />
        </mxCell>
        <mxCell id="FcwqcfeG6PIgrdVunfL2-152" style="edgeStyle=orthogonalEdgeStyle;rounded=0;orthogonalLoop=1;jettySize=auto;html=1;exitX=0.5;exitY=0;exitDx=0;exitDy=0;entryX=0.5;entryY=1;entryDx=0;entryDy=0;endArrow=block;endFill=0;endSize=12;" edge="1" parent="1" source="FcwqcfeG6PIgrdVunfL2-137" target="FcwqcfeG6PIgrdVunfL2-151">
          <mxGeometry relative="1" as="geometry" />
        </mxCell>
        <mxCell id="FcwqcfeG6PIgrdVunfL2-137" value="&amp;lt;&amp;lt;Interface&amp;gt;&amp;gt;&lt;br&gt;Server" style="swimlane;html=1;fontStyle=0;childLayout=stackLayout;horizontal=1;startSize=26;fillColor=none;horizontalStack=0;resizeParent=1;resizeLast=0;collapsible=1;marginBottom=0;swimlaneFillColor=#ffffff;rounded=0;shadow=0;comic=0;labelBackgroundColor=none;strokeWidth=1;fontFamily=Verdana;fontSize=10;align=center;" vertex="1" parent="1">
          <mxGeometry x="2610" y="-758" width="240" height="240" as="geometry" />
        </mxCell>
        <mxCell id="FcwqcfeG6PIgrdVunfL2-138" value="+ changeTurn(): void" style="text;html=1;strokeColor=none;fillColor=none;align=left;verticalAlign=top;spacingLeft=4;spacingRight=4;whiteSpace=wrap;overflow=hidden;rotatable=0;points=[[0,0.5],[1,0.5]];portConstraint=eastwest;" vertex="1" parent="FcwqcfeG6PIgrdVunfL2-137">
          <mxGeometry y="26" width="240" height="24" as="geometry" />
        </mxCell>
        <mxCell id="FcwqcfeG6PIgrdVunfL2-139" value="+ insertUserInputIntoModel(Choice): void" style="text;html=1;strokeColor=none;fillColor=none;align=left;verticalAlign=top;spacingLeft=4;spacingRight=4;whiteSpace=wrap;overflow=hidden;rotatable=0;points=[[0,0.5],[1,0.5]];portConstraint=eastwest;" vertex="1" parent="FcwqcfeG6PIgrdVunfL2-137">
          <mxGeometry y="50" width="240" height="26" as="geometry" />
        </mxCell>
        <mxCell id="FcwqcfeG6PIgrdVunfL2-140" value="+ sendPrivateMessage(String,String,&lt;br&gt;String): void" style="text;html=1;strokeColor=none;fillColor=none;align=left;verticalAlign=top;spacingLeft=4;spacingRight=4;whiteSpace=wrap;overflow=hidden;rotatable=0;points=[[0,0.5],[1,0.5]];portConstraint=eastwest;" vertex="1" parent="FcwqcfeG6PIgrdVunfL2-137">
          <mxGeometry y="76" width="240" height="38" as="geometry" />
        </mxCell>
        <mxCell id="FcwqcfeG6PIgrdVunfL2-141" value="+ sendBroadcastMessage(String,String,&lt;br&gt;String): void" style="text;html=1;strokeColor=none;fillColor=none;align=left;verticalAlign=top;spacingLeft=4;spacingRight=4;whiteSpace=wrap;overflow=hidden;rotatable=0;points=[[0,0.5],[1,0.5]];portConstraint=eastwest;" vertex="1" parent="FcwqcfeG6PIgrdVunfL2-137">
          <mxGeometry y="114" width="240" height="40" as="geometry" />
        </mxCell>
        <mxCell id="FcwqcfeG6PIgrdVunfL2-142" value="+ addPlayer(String): void" style="text;html=1;strokeColor=none;fillColor=none;align=left;verticalAlign=top;spacingLeft=4;spacingRight=4;whiteSpace=wrap;overflow=hidden;rotatable=0;points=[[0,0.5],[1,0.5]];portConstraint=eastwest;" vertex="1" parent="FcwqcfeG6PIgrdVunfL2-137">
          <mxGeometry y="154" width="240" height="26" as="geometry" />
        </mxCell>
        <mxCell id="FcwqcfeG6PIgrdVunfL2-143" value="+ chooseNumberOfPlayerIn&lt;br&gt;TheGame(int): void" style="text;html=1;strokeColor=none;fillColor=none;align=left;verticalAlign=top;spacingLeft=4;spacingRight=4;whiteSpace=wrap;overflow=hidden;rotatable=0;points=[[0,0.5],[1,0.5]];portConstraint=eastwest;" vertex="1" parent="FcwqcfeG6PIgrdVunfL2-137">
          <mxGeometry y="180" width="240" height="34" as="geometry" />
        </mxCell>
        <mxCell id="FcwqcfeG6PIgrdVunfL2-153" value="+ register(Client): void" style="text;html=1;strokeColor=none;fillColor=none;align=left;verticalAlign=top;spacingLeft=4;spacingRight=4;whiteSpace=wrap;overflow=hidden;rotatable=0;points=[[0,0.5],[1,0.5]];portConstraint=eastwest;" vertex="1" parent="FcwqcfeG6PIgrdVunfL2-137">
          <mxGeometry y="214" width="240" height="24" as="geometry" />
        </mxCell>
        <mxCell id="FcwqcfeG6PIgrdVunfL2-154" style="edgeStyle=orthogonalEdgeStyle;rounded=0;orthogonalLoop=1;jettySize=auto;html=1;exitX=0.5;exitY=0;exitDx=0;exitDy=0;entryX=0.5;entryY=1;entryDx=0;entryDy=0;endArrow=block;endFill=0;endSize=12;" edge="1" parent="1" source="FcwqcfeG6PIgrdVunfL2-144">
          <mxGeometry relative="1" as="geometry">
            <mxPoint x="4000" y="-735" as="sourcePoint" />
            <mxPoint x="3430" y="-1029.0000000000002" as="targetPoint" />
            <Array as="points">
              <mxPoint x="4000" y="-889" />
              <mxPoint x="3430" y="-889" />
            </Array>
          </mxGeometry>
        </mxCell>
        <mxCell id="FcwqcfeG6PIgrdVunfL2-144" value="&amp;lt;&amp;lt;Interface&amp;gt;&amp;gt;&lt;br&gt;Client" style="swimlane;html=1;fontStyle=0;childLayout=stackLayout;horizontal=1;startSize=26;fillColor=none;horizontalStack=0;resizeParent=1;resizeLast=0;collapsible=1;marginBottom=0;swimlaneFillColor=#ffffff;rounded=0;shadow=0;comic=0;labelBackgroundColor=none;strokeWidth=1;fontFamily=Verdana;fontSize=10;align=center;" vertex="1" parent="1">
          <mxGeometry x="3880" y="-747" width="240" height="56" as="geometry" />
        </mxCell>
        <mxCell id="FcwqcfeG6PIgrdVunfL2-145" value="+ updateModelView(GameView): void" style="text;html=1;strokeColor=none;fillColor=none;align=left;verticalAlign=top;spacingLeft=4;spacingRight=4;whiteSpace=wrap;overflow=hidden;rotatable=0;points=[[0,0.5],[1,0.5]];portConstraint=eastwest;" vertex="1" parent="FcwqcfeG6PIgrdVunfL2-144">
          <mxGeometry y="26" width="240" height="24" as="geometry" />
        </mxCell>
        <mxCell id="FcwqcfeG6PIgrdVunfL2-151" value="Remote" style="swimlane;html=1;fontStyle=0;childLayout=stackLayout;horizontal=1;startSize=60;fillColor=none;horizontalStack=0;resizeParent=1;resizeLast=0;collapsible=1;marginBottom=0;swimlaneFillColor=#ffffff;rounded=0;shadow=0;comic=0;labelBackgroundColor=none;strokeWidth=1;fontFamily=Verdana;fontSize=10;align=center;" vertex="1" parent="1">
          <mxGeometry x="3310" y="-1070" width="240" height="40" as="geometry" />
        </mxCell>
        <mxCell id="FcwqcfeG6PIgrdVunfL2-396" style="edgeStyle=orthogonalEdgeStyle;rounded=0;orthogonalLoop=1;jettySize=auto;html=1;entryX=0.5;entryY=1;entryDx=0;entryDy=0;endArrow=block;endFill=0;endSize=12;dashed=1;" edge="1" parent="1" source="FcwqcfeG6PIgrdVunfL2-155" target="FcwqcfeG6PIgrdVunfL2-137">
          <mxGeometry relative="1" as="geometry">
            <mxPoint x="2730" y="-390" as="targetPoint" />
          </mxGeometry>
        </mxCell>
        <mxCell id="FcwqcfeG6PIgrdVunfL2-408" style="edgeStyle=orthogonalEdgeStyle;rounded=0;orthogonalLoop=1;jettySize=auto;html=1;exitX=1;exitY=0.5;exitDx=0;exitDy=0;entryX=0.5;entryY=1;entryDx=0;entryDy=0;endArrow=block;endFill=0;endSize=12;" edge="1" parent="1" source="FcwqcfeG6PIgrdVunfL2-194" target="FcwqcfeG6PIgrdVunfL2-407">
          <mxGeometry relative="1" as="geometry">
            <Array as="points">
              <mxPoint x="2850" />
              <mxPoint x="3360" />
            </Array>
          </mxGeometry>
        </mxCell>
        <mxCell id="FcwqcfeG6PIgrdVunfL2-155" value="ServerImpl" style="swimlane;html=1;fontStyle=0;childLayout=stackLayout;horizontal=1;startSize=26;fillColor=none;horizontalStack=0;resizeParent=1;resizeLast=0;collapsible=1;marginBottom=0;swimlaneFillColor=#ffffff;rounded=0;shadow=0;comic=0;labelBackgroundColor=none;strokeWidth=1;fontFamily=Verdana;fontSize=10;align=center;strokeColor=default;container=0;" vertex="1" parent="1">
          <mxGeometry x="2610" y="-300" width="240" height="550" as="geometry" />
        </mxCell>
        <mxCell id="FcwqcfeG6PIgrdVunfL2-166" value="- clientsToHandle: Map&amp;lt;Integer, Client&amp;gt;" style="text;html=1;strokeColor=none;fillColor=none;align=left;verticalAlign=top;spacingLeft=4;spacingRight=4;whiteSpace=wrap;overflow=hidden;rotatable=0;points=[[0,0.5],[1,0.5]];portConstraint=eastwest;" vertex="1" parent="FcwqcfeG6PIgrdVunfL2-155">
          <mxGeometry y="26" width="240" height="26" as="geometry" />
        </mxCell>
        <mxCell id="FcwqcfeG6PIgrdVunfL2-159" value="" style="endArrow=none;html=1;rounded=0;" edge="1" parent="FcwqcfeG6PIgrdVunfL2-155">
          <mxGeometry width="50" height="50" relative="1" as="geometry">
            <mxPoint y="49.999999999999986" as="sourcePoint" />
            <mxPoint x="240" y="49.999999999999986" as="targetPoint" />
          </mxGeometry>
        </mxCell>
        <mxCell id="FcwqcfeG6PIgrdVunfL2-167" value="+ addClientToHandle(Client): void" style="text;html=1;strokeColor=none;fillColor=none;align=left;verticalAlign=top;spacingLeft=4;spacingRight=4;whiteSpace=wrap;overflow=hidden;rotatable=0;points=[[0,0.5],[1,0.5]];portConstraint=eastwest;" vertex="1" parent="FcwqcfeG6PIgrdVunfL2-155">
          <mxGeometry y="52" width="240" height="26" as="geometry" />
        </mxCell>
        <mxCell id="FcwqcfeG6PIgrdVunfL2-168" value="+ changeTurn(): void" style="text;html=1;strokeColor=none;fillColor=none;align=left;verticalAlign=top;spacingLeft=4;spacingRight=4;whiteSpace=wrap;overflow=hidden;rotatable=0;points=[[0,0.5],[1,0.5]];portConstraint=eastwest;" vertex="1" parent="FcwqcfeG6PIgrdVunfL2-155">
          <mxGeometry y="78" width="240" height="24" as="geometry" />
        </mxCell>
        <mxCell id="FcwqcfeG6PIgrdVunfL2-169" value="+ insertUserInputIntoModel(Choice): void" style="text;html=1;strokeColor=none;fillColor=none;align=left;verticalAlign=top;spacingLeft=4;spacingRight=4;whiteSpace=wrap;overflow=hidden;rotatable=0;points=[[0,0.5],[1,0.5]];portConstraint=eastwest;" vertex="1" parent="FcwqcfeG6PIgrdVunfL2-155">
          <mxGeometry y="102" width="240" height="26" as="geometry" />
        </mxCell>
        <mxCell id="FcwqcfeG6PIgrdVunfL2-170" value="+ sendPrivateMessage(String,String,&lt;br&gt;String): void" style="text;html=1;strokeColor=none;fillColor=none;align=left;verticalAlign=top;spacingLeft=4;spacingRight=4;whiteSpace=wrap;overflow=hidden;rotatable=0;points=[[0,0.5],[1,0.5]];portConstraint=eastwest;" vertex="1" parent="FcwqcfeG6PIgrdVunfL2-155">
          <mxGeometry y="128" width="240" height="38" as="geometry" />
        </mxCell>
        <mxCell id="FcwqcfeG6PIgrdVunfL2-171" value="+ sendBroadcastMessage(String,String,&lt;br&gt;String): void" style="text;html=1;strokeColor=none;fillColor=none;align=left;verticalAlign=top;spacingLeft=4;spacingRight=4;whiteSpace=wrap;overflow=hidden;rotatable=0;points=[[0,0.5],[1,0.5]];portConstraint=eastwest;" vertex="1" parent="FcwqcfeG6PIgrdVunfL2-155">
          <mxGeometry y="166" width="240" height="40" as="geometry" />
        </mxCell>
        <mxCell id="FcwqcfeG6PIgrdVunfL2-172" value="+ addPlayer(String): void" style="text;html=1;strokeColor=none;fillColor=none;align=left;verticalAlign=top;spacingLeft=4;spacingRight=4;whiteSpace=wrap;overflow=hidden;rotatable=0;points=[[0,0.5],[1,0.5]];portConstraint=eastwest;" vertex="1" parent="FcwqcfeG6PIgrdVunfL2-155">
          <mxGeometry y="206" width="240" height="26" as="geometry" />
        </mxCell>
        <mxCell id="FcwqcfeG6PIgrdVunfL2-173" value="+ chooseNumberOfPlayerIn&lt;br&gt;TheGame(int): void" style="text;html=1;strokeColor=none;fillColor=none;align=left;verticalAlign=top;spacingLeft=4;spacingRight=4;whiteSpace=wrap;overflow=hidden;rotatable=0;points=[[0,0.5],[1,0.5]];portConstraint=eastwest;" vertex="1" parent="FcwqcfeG6PIgrdVunfL2-155">
          <mxGeometry y="232" width="240" height="34" as="geometry" />
        </mxCell>
        <mxCell id="FcwqcfeG6PIgrdVunfL2-174" value="+ register(Client): void" style="text;html=1;strokeColor=none;fillColor=none;align=left;verticalAlign=top;spacingLeft=4;spacingRight=4;whiteSpace=wrap;overflow=hidden;rotatable=0;points=[[0,0.5],[1,0.5]];portConstraint=eastwest;" vertex="1" parent="FcwqcfeG6PIgrdVunfL2-155">
          <mxGeometry y="266" width="240" height="24" as="geometry" />
        </mxCell>
        <mxCell id="FcwqcfeG6PIgrdVunfL2-194" value="+ numberOfPlayersModified(): void" style="text;html=1;strokeColor=none;fillColor=none;align=left;verticalAlign=top;spacingLeft=4;spacingRight=4;whiteSpace=wrap;overflow=hidden;rotatable=0;points=[[0,0.5],[1,0.5]];portConstraint=eastwest;" vertex="1" parent="FcwqcfeG6PIgrdVunfL2-155">
          <mxGeometry y="290" width="240" height="24" as="geometry" />
        </mxCell>
        <mxCell id="FcwqcfeG6PIgrdVunfL2-199" value="+ startOfTheGame(): void" style="text;html=1;strokeColor=none;fillColor=none;align=left;verticalAlign=top;spacingLeft=4;spacingRight=4;whiteSpace=wrap;overflow=hidden;rotatable=0;points=[[0,0.5],[1,0.5]];portConstraint=eastwest;" vertex="1" parent="FcwqcfeG6PIgrdVunfL2-155">
          <mxGeometry y="314" width="240" height="30" as="geometry" />
        </mxCell>
        <mxCell id="FcwqcfeG6PIgrdVunfL2-198" value="+ addedPlayer(): void" style="text;html=1;strokeColor=none;fillColor=none;align=left;verticalAlign=top;spacingLeft=4;spacingRight=4;whiteSpace=wrap;overflow=hidden;rotatable=0;points=[[0,0.5],[1,0.5]];portConstraint=eastwest;" vertex="1" parent="FcwqcfeG6PIgrdVunfL2-155">
          <mxGeometry y="344" width="240" height="26" as="geometry" />
        </mxCell>
        <mxCell id="FcwqcfeG6PIgrdVunfL2-197" value="+ commonGoalsModified(): void" style="text;html=1;strokeColor=none;fillColor=none;align=left;verticalAlign=top;spacingLeft=4;spacingRight=4;whiteSpace=wrap;overflow=hidden;rotatable=0;points=[[0,0.5],[1,0.5]];portConstraint=eastwest;" vertex="1" parent="FcwqcfeG6PIgrdVunfL2-155">
          <mxGeometry y="370" width="240" height="30" as="geometry" />
        </mxCell>
        <mxCell id="FcwqcfeG6PIgrdVunfL2-196" value="+ bagModified(): void" style="text;html=1;strokeColor=none;fillColor=none;align=left;verticalAlign=top;spacingLeft=4;spacingRight=4;whiteSpace=wrap;overflow=hidden;rotatable=0;points=[[0,0.5],[1,0.5]];portConstraint=eastwest;" vertex="1" parent="FcwqcfeG6PIgrdVunfL2-155">
          <mxGeometry y="400" width="240" height="24" as="geometry" />
        </mxCell>
        <mxCell id="FcwqcfeG6PIgrdVunfL2-195" value="+ activePlayerIndexModified(): void" style="text;html=1;strokeColor=none;fillColor=none;align=left;verticalAlign=top;spacingLeft=4;spacingRight=4;whiteSpace=wrap;overflow=hidden;rotatable=0;points=[[0,0.5],[1,0.5]];portConstraint=eastwest;" vertex="1" parent="FcwqcfeG6PIgrdVunfL2-155">
          <mxGeometry y="424" width="240" height="26" as="geometry" />
        </mxCell>
        <mxCell id="FcwqcfeG6PIgrdVunfL2-201" value="+ removedTilesFromBoard(): void" style="text;html=1;strokeColor=none;fillColor=none;align=left;verticalAlign=top;spacingLeft=4;spacingRight=4;whiteSpace=wrap;overflow=hidden;rotatable=0;points=[[0,0.5],[1,0.5]];portConstraint=eastwest;" vertex="1" parent="FcwqcfeG6PIgrdVunfL2-155">
          <mxGeometry y="450" width="240" height="26" as="geometry" />
        </mxCell>
        <mxCell id="FcwqcfeG6PIgrdVunfL2-200" value="+ addedTilesToBoard(): void" style="text;html=1;strokeColor=none;fillColor=none;align=left;verticalAlign=top;spacingLeft=4;spacingRight=4;whiteSpace=wrap;overflow=hidden;rotatable=0;points=[[0,0.5],[1,0.5]];portConstraint=eastwest;" vertex="1" parent="FcwqcfeG6PIgrdVunfL2-155">
          <mxGeometry y="476" width="240" height="24" as="geometry" />
        </mxCell>
        <mxCell id="FcwqcfeG6PIgrdVunfL2-203" value="+ imageModified(): void" style="text;html=1;strokeColor=none;fillColor=none;align=left;verticalAlign=top;spacingLeft=4;spacingRight=4;whiteSpace=wrap;overflow=hidden;rotatable=0;points=[[0,0.5],[1,0.5]];portConstraint=eastwest;" vertex="1" parent="FcwqcfeG6PIgrdVunfL2-155">
          <mxGeometry y="500" width="240" height="26" as="geometry" />
        </mxCell>
        <mxCell id="FcwqcfeG6PIgrdVunfL2-202" value="+ tileAddedToBookshelf(): void" style="text;html=1;strokeColor=none;fillColor=none;align=left;verticalAlign=top;spacingLeft=4;spacingRight=4;whiteSpace=wrap;overflow=hidden;rotatable=0;points=[[0,0.5],[1,0.5]];portConstraint=eastwest;" vertex="1" parent="FcwqcfeG6PIgrdVunfL2-155">
          <mxGeometry y="526" width="240" height="24" as="geometry" />
        </mxCell>
        <mxCell id="FcwqcfeG6PIgrdVunfL2-409" style="edgeStyle=orthogonalEdgeStyle;rounded=0;orthogonalLoop=1;jettySize=auto;html=1;entryX=1;entryY=0.5;entryDx=0;entryDy=0;exitX=0;exitY=0.5;exitDx=0;exitDy=0;" edge="1" parent="1" source="FcwqcfeG6PIgrdVunfL2-227" target="FcwqcfeG6PIgrdVunfL2-141">
          <mxGeometry relative="1" as="geometry">
            <Array as="points">
              <mxPoint x="3330" y="-114" />
              <mxPoint x="3330" y="-624" />
            </Array>
          </mxGeometry>
        </mxCell>
        <mxCell id="FcwqcfeG6PIgrdVunfL2-414" style="edgeStyle=orthogonalEdgeStyle;rounded=0;orthogonalLoop=1;jettySize=auto;html=1;entryX=0.5;entryY=0;entryDx=0;entryDy=0;" edge="1" parent="1" source="FcwqcfeG6PIgrdVunfL2-204" target="FcwqcfeG6PIgrdVunfL2-364">
          <mxGeometry relative="1" as="geometry" />
        </mxCell>
        <mxCell id="FcwqcfeG6PIgrdVunfL2-417" style="edgeStyle=orthogonalEdgeStyle;rounded=0;orthogonalLoop=1;jettySize=auto;html=1;entryX=0.5;entryY=1;entryDx=0;entryDy=0;endArrow=block;endFill=0;endSize=12;dashed=1;" edge="1" parent="1" source="FcwqcfeG6PIgrdVunfL2-204" target="FcwqcfeG6PIgrdVunfL2-144">
          <mxGeometry relative="1" as="geometry">
            <mxPoint x="3980" y="-550" as="targetPoint" />
          </mxGeometry>
        </mxCell>
        <mxCell id="FcwqcfeG6PIgrdVunfL2-419" style="edgeStyle=orthogonalEdgeStyle;rounded=0;orthogonalLoop=1;jettySize=auto;html=1;exitX=0.25;exitY=0;exitDx=0;exitDy=0;entryX=0.5;entryY=1;entryDx=0;entryDy=0;endArrow=block;endFill=0;endSize=12;dashed=1;" edge="1" parent="1" source="FcwqcfeG6PIgrdVunfL2-204" target="FcwqcfeG6PIgrdVunfL2-418">
          <mxGeometry relative="1" as="geometry" />
        </mxCell>
        <mxCell id="FcwqcfeG6PIgrdVunfL2-204" value="ClientImpl" style="swimlane;html=1;fontStyle=0;childLayout=stackLayout;horizontal=1;startSize=26;fillColor=none;horizontalStack=0;resizeParent=1;resizeLast=0;collapsible=1;marginBottom=0;swimlaneFillColor=#ffffff;rounded=0;shadow=0;comic=0;labelBackgroundColor=none;strokeWidth=1;fontFamily=Verdana;fontSize=10;align=center;strokeColor=default;container=0;" vertex="1" parent="1">
          <mxGeometry x="3880" y="-176" width="240" height="262" as="geometry" />
        </mxCell>
        <mxCell id="FcwqcfeG6PIgrdVunfL2-226" value="+ updateModelView(GameView): void" style="text;html=1;strokeColor=none;fillColor=none;align=left;verticalAlign=top;spacingLeft=4;spacingRight=4;whiteSpace=wrap;overflow=hidden;rotatable=0;points=[[0,0.5],[1,0.5]];portConstraint=eastwest;" vertex="1" parent="FcwqcfeG6PIgrdVunfL2-204">
          <mxGeometry y="26" width="240" height="24" as="geometry" />
        </mxCell>
        <mxCell id="FcwqcfeG6PIgrdVunfL2-227" value="+ changeTurn(): void" style="text;html=1;strokeColor=none;fillColor=none;align=left;verticalAlign=top;spacingLeft=4;spacingRight=4;whiteSpace=wrap;overflow=hidden;rotatable=0;points=[[0,0.5],[1,0.5]];portConstraint=eastwest;" vertex="1" parent="FcwqcfeG6PIgrdVunfL2-204">
          <mxGeometry y="50" width="240" height="24" as="geometry" />
        </mxCell>
        <mxCell id="FcwqcfeG6PIgrdVunfL2-228" value="+ insertUserInputIntoModel(Choice): void" style="text;html=1;strokeColor=none;fillColor=none;align=left;verticalAlign=top;spacingLeft=4;spacingRight=4;whiteSpace=wrap;overflow=hidden;rotatable=0;points=[[0,0.5],[1,0.5]];portConstraint=eastwest;" vertex="1" parent="FcwqcfeG6PIgrdVunfL2-204">
          <mxGeometry y="74" width="240" height="26" as="geometry" />
        </mxCell>
        <mxCell id="FcwqcfeG6PIgrdVunfL2-232" value="+ chooseNumberOfPlayerIn&lt;br&gt;TheGame(int): void" style="text;html=1;strokeColor=none;fillColor=none;align=left;verticalAlign=top;spacingLeft=4;spacingRight=4;whiteSpace=wrap;overflow=hidden;rotatable=0;points=[[0,0.5],[1,0.5]];portConstraint=eastwest;" vertex="1" parent="FcwqcfeG6PIgrdVunfL2-204">
          <mxGeometry y="100" width="240" height="34" as="geometry" />
        </mxCell>
        <mxCell id="FcwqcfeG6PIgrdVunfL2-231" value="+ addPlayer(String): void" style="text;html=1;strokeColor=none;fillColor=none;align=left;verticalAlign=top;spacingLeft=4;spacingRight=4;whiteSpace=wrap;overflow=hidden;rotatable=0;points=[[0,0.5],[1,0.5]];portConstraint=eastwest;" vertex="1" parent="FcwqcfeG6PIgrdVunfL2-204">
          <mxGeometry y="134" width="240" height="26" as="geometry" />
        </mxCell>
        <mxCell id="FcwqcfeG6PIgrdVunfL2-230" value="+ sendBroadcastMessage(String,String,&lt;br&gt;String): void" style="text;html=1;strokeColor=none;fillColor=none;align=left;verticalAlign=top;spacingLeft=4;spacingRight=4;whiteSpace=wrap;overflow=hidden;rotatable=0;points=[[0,0.5],[1,0.5]];portConstraint=eastwest;" vertex="1" parent="FcwqcfeG6PIgrdVunfL2-204">
          <mxGeometry y="160" width="240" height="40" as="geometry" />
        </mxCell>
        <mxCell id="FcwqcfeG6PIgrdVunfL2-229" value="+ sendPrivateMessage(String,String,&lt;br&gt;String): void" style="text;html=1;strokeColor=none;fillColor=none;align=left;verticalAlign=top;spacingLeft=4;spacingRight=4;whiteSpace=wrap;overflow=hidden;rotatable=0;points=[[0,0.5],[1,0.5]];portConstraint=eastwest;" vertex="1" parent="FcwqcfeG6PIgrdVunfL2-204">
          <mxGeometry y="200" width="240" height="38" as="geometry" />
        </mxCell>
        <mxCell id="FcwqcfeG6PIgrdVunfL2-234" value="+ run(): void" style="text;html=1;strokeColor=none;fillColor=none;align=left;verticalAlign=top;spacingLeft=4;spacingRight=4;whiteSpace=wrap;overflow=hidden;rotatable=0;points=[[0,0.5],[1,0.5]];portConstraint=eastwest;" vertex="1" parent="FcwqcfeG6PIgrdVunfL2-204">
          <mxGeometry y="238" width="240" height="24" as="geometry" />
        </mxCell>
        <mxCell id="FcwqcfeG6PIgrdVunfL2-235" value="SingleClientHandler" style="swimlane;html=1;fontStyle=0;childLayout=stackLayout;horizontal=1;startSize=26;fillColor=none;horizontalStack=0;resizeParent=1;resizeLast=0;collapsible=1;marginBottom=0;swimlaneFillColor=#ffffff;rounded=0;shadow=0;comic=0;labelBackgroundColor=none;strokeWidth=1;fontFamily=Verdana;fontSize=10;align=center;strokeColor=default;container=0;" vertex="1" parent="1">
          <mxGeometry x="3010" y="-738" width="240" height="50" as="geometry" />
        </mxCell>
        <mxCell id="FcwqcfeG6PIgrdVunfL2-243" value="+ run(): void" style="text;html=1;strokeColor=none;fillColor=none;align=left;verticalAlign=top;spacingLeft=4;spacingRight=4;whiteSpace=wrap;overflow=hidden;rotatable=0;points=[[0,0.5],[1,0.5]];portConstraint=eastwest;" vertex="1" parent="FcwqcfeG6PIgrdVunfL2-235">
          <mxGeometry y="26" width="240" height="24" as="geometry" />
        </mxCell>
        <mxCell id="FcwqcfeG6PIgrdVunfL2-404" style="edgeStyle=orthogonalEdgeStyle;rounded=0;orthogonalLoop=1;jettySize=auto;html=1;entryX=0.5;entryY=1;entryDx=0;entryDy=0;endArrow=block;endFill=0;endSize=12;" edge="1" parent="1" target="FcwqcfeG6PIgrdVunfL2-403">
          <mxGeometry relative="1" as="geometry">
            <mxPoint x="3130" y="-738" as="sourcePoint" />
          </mxGeometry>
        </mxCell>
        <mxCell id="FcwqcfeG6PIgrdVunfL2-244" value="ClientSkeleton" style="swimlane;html=1;fontStyle=0;childLayout=stackLayout;horizontal=1;startSize=26;fillColor=none;horizontalStack=0;resizeParent=1;resizeLast=0;collapsible=1;marginBottom=0;swimlaneFillColor=#ffffff;rounded=0;shadow=0;comic=0;labelBackgroundColor=none;strokeWidth=1;fontFamily=Verdana;fontSize=10;align=center;strokeColor=default;container=0;" vertex="1" parent="1">
          <mxGeometry x="3460" y="-772" width="240" height="122" as="geometry" />
        </mxCell>
        <mxCell id="FcwqcfeG6PIgrdVunfL2-245" value="- oos: ObjectOutputStream" style="text;html=1;strokeColor=none;fillColor=none;align=left;verticalAlign=top;spacingLeft=4;spacingRight=4;whiteSpace=wrap;overflow=hidden;rotatable=0;points=[[0,0.5],[1,0.5]];portConstraint=eastwest;" vertex="1" parent="FcwqcfeG6PIgrdVunfL2-244">
          <mxGeometry y="26" width="240" height="24" as="geometry" />
        </mxCell>
        <mxCell id="FcwqcfeG6PIgrdVunfL2-246" value="- ois: ObjectInputStream" style="text;html=1;strokeColor=none;fillColor=none;align=left;verticalAlign=top;spacingLeft=4;spacingRight=4;whiteSpace=wrap;overflow=hidden;rotatable=0;points=[[0,0.5],[1,0.5]];portConstraint=eastwest;" vertex="1" parent="FcwqcfeG6PIgrdVunfL2-244">
          <mxGeometry y="50" width="240" height="24" as="geometry" />
        </mxCell>
        <mxCell id="FcwqcfeG6PIgrdVunfL2-27" value="" style="endArrow=none;html=1;rounded=0;" edge="1" parent="FcwqcfeG6PIgrdVunfL2-244">
          <mxGeometry width="50" height="50" relative="1" as="geometry">
            <mxPoint y="74.00000000000001" as="sourcePoint" />
            <mxPoint x="240" y="74.71" as="targetPoint" />
          </mxGeometry>
        </mxCell>
        <mxCell id="FcwqcfeG6PIgrdVunfL2-249" value="+ updateModelView(GameView): void" style="text;html=1;strokeColor=none;fillColor=none;align=left;verticalAlign=top;spacingLeft=4;spacingRight=4;whiteSpace=wrap;overflow=hidden;rotatable=0;points=[[0,0.5],[1,0.5]];portConstraint=eastwest;" vertex="1" parent="FcwqcfeG6PIgrdVunfL2-244">
          <mxGeometry y="74" width="240" height="24" as="geometry" />
        </mxCell>
        <mxCell id="FcwqcfeG6PIgrdVunfL2-250" value="+ receive(Server): void" style="text;html=1;strokeColor=none;fillColor=none;align=left;verticalAlign=top;spacingLeft=4;spacingRight=4;whiteSpace=wrap;overflow=hidden;rotatable=0;points=[[0,0.5],[1,0.5]];portConstraint=eastwest;" vertex="1" parent="FcwqcfeG6PIgrdVunfL2-244">
          <mxGeometry y="98" width="240" height="24" as="geometry" />
        </mxCell>
        <mxCell id="FcwqcfeG6PIgrdVunfL2-424" style="edgeStyle=orthogonalEdgeStyle;rounded=0;orthogonalLoop=1;jettySize=auto;html=1;entryX=0;entryY=0.5;entryDx=0;entryDy=0;endArrow=block;endFill=0;endSize=12;dashed=1;" edge="1" parent="1" source="FcwqcfeG6PIgrdVunfL2-251" target="FcwqcfeG6PIgrdVunfL2-140">
          <mxGeometry relative="1" as="geometry" />
        </mxCell>
        <mxCell id="FcwqcfeG6PIgrdVunfL2-251" value="ServerStub" style="swimlane;html=1;fontStyle=0;childLayout=stackLayout;horizontal=1;startSize=26;fillColor=none;horizontalStack=0;resizeParent=1;resizeLast=0;collapsible=1;marginBottom=0;swimlaneFillColor=#ffffff;rounded=0;shadow=0;comic=0;labelBackgroundColor=none;strokeWidth=1;fontFamily=Verdana;fontSize=10;align=center;strokeColor=default;container=0;" vertex="1" parent="1">
          <mxGeometry x="2180" y="-588" width="240" height="450" as="geometry" />
        </mxCell>
        <mxCell id="FcwqcfeG6PIgrdVunfL2-252" value="- &lt;i&gt;ip: String&lt;/i&gt;" style="text;html=1;strokeColor=none;fillColor=none;align=left;verticalAlign=top;spacingLeft=4;spacingRight=4;whiteSpace=wrap;overflow=hidden;rotatable=0;points=[[0,0.5],[1,0.5]];portConstraint=eastwest;" vertex="1" parent="FcwqcfeG6PIgrdVunfL2-251">
          <mxGeometry y="26" width="240" height="24" as="geometry" />
        </mxCell>
        <mxCell id="FcwqcfeG6PIgrdVunfL2-253" value="- &lt;i&gt;port: int&lt;/i&gt;" style="text;html=1;strokeColor=none;fillColor=none;align=left;verticalAlign=top;spacingLeft=4;spacingRight=4;whiteSpace=wrap;overflow=hidden;rotatable=0;points=[[0,0.5],[1,0.5]];portConstraint=eastwest;" vertex="1" parent="FcwqcfeG6PIgrdVunfL2-251">
          <mxGeometry y="50" width="240" height="24" as="geometry" />
        </mxCell>
        <mxCell id="FcwqcfeG6PIgrdVunfL2-257" value="- socket: Socket" style="text;html=1;strokeColor=none;fillColor=none;align=left;verticalAlign=top;spacingLeft=4;spacingRight=4;whiteSpace=wrap;overflow=hidden;rotatable=0;points=[[0,0.5],[1,0.5]];portConstraint=eastwest;" vertex="1" parent="FcwqcfeG6PIgrdVunfL2-251">
          <mxGeometry y="74" width="240" height="24" as="geometry" />
        </mxCell>
        <mxCell id="FcwqcfeG6PIgrdVunfL2-259" value="- oos: ObjectOutputStream" style="text;html=1;strokeColor=none;fillColor=none;align=left;verticalAlign=top;spacingLeft=4;spacingRight=4;whiteSpace=wrap;overflow=hidden;rotatable=0;points=[[0,0.5],[1,0.5]];portConstraint=eastwest;" vertex="1" parent="FcwqcfeG6PIgrdVunfL2-251">
          <mxGeometry y="98" width="240" height="24" as="geometry" />
        </mxCell>
        <mxCell id="FcwqcfeG6PIgrdVunfL2-260" value="- ois: ObjectInputStream" style="text;html=1;strokeColor=none;fillColor=none;align=left;verticalAlign=top;spacingLeft=4;spacingRight=4;whiteSpace=wrap;overflow=hidden;rotatable=0;points=[[0,0.5],[1,0.5]];portConstraint=eastwest;" vertex="1" parent="FcwqcfeG6PIgrdVunfL2-251">
          <mxGeometry y="122" width="240" height="24" as="geometry" />
        </mxCell>
        <mxCell id="FcwqcfeG6PIgrdVunfL2-254" value="" style="endArrow=none;html=1;rounded=0;" edge="1" parent="FcwqcfeG6PIgrdVunfL2-251">
          <mxGeometry width="50" height="50" relative="1" as="geometry">
            <mxPoint y="190" as="sourcePoint" />
            <mxPoint x="240" y="190.70999999999998" as="targetPoint" />
          </mxGeometry>
        </mxCell>
        <mxCell id="FcwqcfeG6PIgrdVunfL2-423" value="- lockUpdate: Object = new Object(); {readOnly}" style="text;html=1;strokeColor=none;fillColor=none;align=left;verticalAlign=top;spacingLeft=4;spacingRight=4;whiteSpace=wrap;overflow=hidden;rotatable=0;points=[[0,0.5],[1,0.5]];portConstraint=eastwest;" vertex="1" parent="FcwqcfeG6PIgrdVunfL2-251">
          <mxGeometry y="146" width="240" height="44" as="geometry" />
        </mxCell>
        <mxCell id="FcwqcfeG6PIgrdVunfL2-262" value="+ insertUserInputIntoModel(Choice): void" style="text;html=1;strokeColor=none;fillColor=none;align=left;verticalAlign=top;spacingLeft=4;spacingRight=4;whiteSpace=wrap;overflow=hidden;rotatable=0;points=[[0,0.5],[1,0.5]];portConstraint=eastwest;" vertex="1" parent="FcwqcfeG6PIgrdVunfL2-251">
          <mxGeometry y="190" width="240" height="26" as="geometry" />
        </mxCell>
        <mxCell id="FcwqcfeG6PIgrdVunfL2-261" value="+ changeTurn(): void" style="text;html=1;strokeColor=none;fillColor=none;align=left;verticalAlign=top;spacingLeft=4;spacingRight=4;whiteSpace=wrap;overflow=hidden;rotatable=0;points=[[0,0.5],[1,0.5]];portConstraint=eastwest;" vertex="1" parent="FcwqcfeG6PIgrdVunfL2-251">
          <mxGeometry y="216" width="240" height="24" as="geometry" />
        </mxCell>
        <mxCell id="FcwqcfeG6PIgrdVunfL2-269" value="+ close(): void" style="text;html=1;strokeColor=none;fillColor=none;align=left;verticalAlign=top;spacingLeft=4;spacingRight=4;whiteSpace=wrap;overflow=hidden;rotatable=0;points=[[0,0.5],[1,0.5]];portConstraint=eastwest;" vertex="1" parent="FcwqcfeG6PIgrdVunfL2-251">
          <mxGeometry y="240" width="240" height="24" as="geometry" />
        </mxCell>
        <mxCell id="FcwqcfeG6PIgrdVunfL2-268" value="+ receive(Client): void" style="text;html=1;strokeColor=none;fillColor=none;align=left;verticalAlign=top;spacingLeft=4;spacingRight=4;whiteSpace=wrap;overflow=hidden;rotatable=0;points=[[0,0.5],[1,0.5]];portConstraint=eastwest;" vertex="1" parent="FcwqcfeG6PIgrdVunfL2-251">
          <mxGeometry y="264" width="240" height="24" as="geometry" />
        </mxCell>
        <mxCell id="FcwqcfeG6PIgrdVunfL2-265" value="+ addPlayer(String): void" style="text;html=1;strokeColor=none;fillColor=none;align=left;verticalAlign=top;spacingLeft=4;spacingRight=4;whiteSpace=wrap;overflow=hidden;rotatable=0;points=[[0,0.5],[1,0.5]];portConstraint=eastwest;" vertex="1" parent="FcwqcfeG6PIgrdVunfL2-251">
          <mxGeometry y="288" width="240" height="26" as="geometry" />
        </mxCell>
        <mxCell id="FcwqcfeG6PIgrdVunfL2-266" value="+ chooseNumberOfPlayerIn&lt;br&gt;TheGame(int): void" style="text;html=1;strokeColor=none;fillColor=none;align=left;verticalAlign=top;spacingLeft=4;spacingRight=4;whiteSpace=wrap;overflow=hidden;rotatable=0;points=[[0,0.5],[1,0.5]];portConstraint=eastwest;" vertex="1" parent="FcwqcfeG6PIgrdVunfL2-251">
          <mxGeometry y="314" width="240" height="34" as="geometry" />
        </mxCell>
        <mxCell id="FcwqcfeG6PIgrdVunfL2-267" value="+ register(Client): void" style="text;html=1;strokeColor=none;fillColor=none;align=left;verticalAlign=top;spacingLeft=4;spacingRight=4;whiteSpace=wrap;overflow=hidden;rotatable=0;points=[[0,0.5],[1,0.5]];portConstraint=eastwest;" vertex="1" parent="FcwqcfeG6PIgrdVunfL2-251">
          <mxGeometry y="348" width="240" height="24" as="geometry" />
        </mxCell>
        <mxCell id="FcwqcfeG6PIgrdVunfL2-264" value="+ sendBroadcastMessage(String,String,&lt;br&gt;String): void" style="text;html=1;strokeColor=none;fillColor=none;align=left;verticalAlign=top;spacingLeft=4;spacingRight=4;whiteSpace=wrap;overflow=hidden;rotatable=0;points=[[0,0.5],[1,0.5]];portConstraint=eastwest;" vertex="1" parent="FcwqcfeG6PIgrdVunfL2-251">
          <mxGeometry y="372" width="240" height="40" as="geometry" />
        </mxCell>
        <mxCell id="FcwqcfeG6PIgrdVunfL2-263" value="+ sendPrivateMessage(String,String,&lt;br&gt;String): void" style="text;html=1;strokeColor=none;fillColor=none;align=left;verticalAlign=top;spacingLeft=4;spacingRight=4;whiteSpace=wrap;overflow=hidden;rotatable=0;points=[[0,0.5],[1,0.5]];portConstraint=eastwest;" vertex="1" parent="FcwqcfeG6PIgrdVunfL2-251">
          <mxGeometry y="412" width="240" height="38" as="geometry" />
        </mxCell>
        <mxCell id="FcwqcfeG6PIgrdVunfL2-429" style="edgeStyle=orthogonalEdgeStyle;rounded=0;orthogonalLoop=1;jettySize=auto;html=1;entryX=0.5;entryY=1;entryDx=0;entryDy=0;endArrow=block;endFill=0;endSize=12;" edge="1" parent="1" source="FcwqcfeG6PIgrdVunfL2-270" target="FcwqcfeG6PIgrdVunfL2-272">
          <mxGeometry relative="1" as="geometry" />
        </mxCell>
        <mxCell id="FcwqcfeG6PIgrdVunfL2-270" value="&amp;lt;&amp;lt;Interface&amp;gt;&amp;gt;&lt;br&gt;Command" style="swimlane;html=1;fontStyle=0;childLayout=stackLayout;horizontal=1;startSize=26;fillColor=none;horizontalStack=0;resizeParent=1;resizeLast=0;collapsible=1;marginBottom=0;swimlaneFillColor=#ffffff;rounded=0;shadow=0;comic=0;labelBackgroundColor=none;strokeWidth=1;fontFamily=Verdana;fontSize=10;align=center;" vertex="1" parent="1">
          <mxGeometry x="2760" y="512" width="240" height="120" as="geometry" />
        </mxCell>
        <mxCell id="FcwqcfeG6PIgrdVunfL2-271" value="+ getController(): Server" style="text;html=1;strokeColor=none;fillColor=none;align=left;verticalAlign=top;spacingLeft=4;spacingRight=4;whiteSpace=wrap;overflow=hidden;rotatable=0;points=[[0,0.5],[1,0.5]];portConstraint=eastwest;" vertex="1" parent="FcwqcfeG6PIgrdVunfL2-270">
          <mxGeometry y="26" width="240" height="24" as="geometry" />
        </mxCell>
        <mxCell id="FcwqcfeG6PIgrdVunfL2-273" value="+ setController(Server): void" style="text;html=1;strokeColor=none;fillColor=none;align=left;verticalAlign=top;spacingLeft=4;spacingRight=4;whiteSpace=wrap;overflow=hidden;rotatable=0;points=[[0,0.5],[1,0.5]];portConstraint=eastwest;" vertex="1" parent="FcwqcfeG6PIgrdVunfL2-270">
          <mxGeometry y="50" width="240" height="24" as="geometry" />
        </mxCell>
        <mxCell id="FcwqcfeG6PIgrdVunfL2-274" value="+ execute(): void" style="text;html=1;strokeColor=none;fillColor=none;align=left;verticalAlign=top;spacingLeft=4;spacingRight=4;whiteSpace=wrap;overflow=hidden;rotatable=0;points=[[0,0.5],[1,0.5]];portConstraint=eastwest;" vertex="1" parent="FcwqcfeG6PIgrdVunfL2-270">
          <mxGeometry y="74" width="240" height="24" as="geometry" />
        </mxCell>
        <mxCell id="FcwqcfeG6PIgrdVunfL2-272" value="&amp;lt;&amp;lt;interface&amp;gt;&amp;gt;&lt;br&gt;Serializable" style="swimlane;html=1;fontStyle=0;childLayout=stackLayout;horizontal=1;startSize=60;fillColor=none;horizontalStack=0;resizeParent=1;resizeLast=0;collapsible=1;marginBottom=0;swimlaneFillColor=#ffffff;rounded=0;shadow=0;comic=0;labelBackgroundColor=none;strokeWidth=1;fontFamily=Verdana;fontSize=10;align=center;" vertex="1" parent="1">
          <mxGeometry x="2760" y="372" width="240" height="40" as="geometry" />
        </mxCell>
        <mxCell id="FcwqcfeG6PIgrdVunfL2-275" value="AddPlayerCommand" style="swimlane;html=1;fontStyle=0;childLayout=stackLayout;horizontal=1;startSize=26;fillColor=none;horizontalStack=0;resizeParent=1;resizeLast=0;collapsible=1;marginBottom=0;swimlaneFillColor=#ffffff;rounded=0;shadow=0;comic=0;labelBackgroundColor=none;strokeWidth=1;fontFamily=Verdana;fontSize=10;align=center;strokeColor=default;container=0;" vertex="1" parent="1">
          <mxGeometry x="2110" y="770" width="240" height="150" as="geometry" />
        </mxCell>
        <mxCell id="FcwqcfeG6PIgrdVunfL2-276" value="- nickname: String" style="text;html=1;strokeColor=none;fillColor=none;align=left;verticalAlign=top;spacingLeft=4;spacingRight=4;whiteSpace=wrap;overflow=hidden;rotatable=0;points=[[0,0.5],[1,0.5]];portConstraint=eastwest;" vertex="1" parent="FcwqcfeG6PIgrdVunfL2-275">
          <mxGeometry y="26" width="240" height="24" as="geometry" />
        </mxCell>
        <mxCell id="FcwqcfeG6PIgrdVunfL2-277" value="" style="endArrow=none;html=1;rounded=0;" edge="1" parent="FcwqcfeG6PIgrdVunfL2-275">
          <mxGeometry width="50" height="50" relative="1" as="geometry">
            <mxPoint y="50" as="sourcePoint" />
            <mxPoint x="240" y="50.5" as="targetPoint" />
          </mxGeometry>
        </mxCell>
        <mxCell id="FcwqcfeG6PIgrdVunfL2-279" value="+ getController(): Server" style="text;html=1;strokeColor=none;fillColor=none;align=left;verticalAlign=top;spacingLeft=4;spacingRight=4;whiteSpace=wrap;overflow=hidden;rotatable=0;points=[[0,0.5],[1,0.5]];portConstraint=eastwest;" vertex="1" parent="FcwqcfeG6PIgrdVunfL2-275">
          <mxGeometry y="50" width="240" height="24" as="geometry" />
        </mxCell>
        <mxCell id="FcwqcfeG6PIgrdVunfL2-280" value="+ setController(Server): void" style="text;html=1;strokeColor=none;fillColor=none;align=left;verticalAlign=top;spacingLeft=4;spacingRight=4;whiteSpace=wrap;overflow=hidden;rotatable=0;points=[[0,0.5],[1,0.5]];portConstraint=eastwest;" vertex="1" parent="FcwqcfeG6PIgrdVunfL2-275">
          <mxGeometry y="74" width="240" height="24" as="geometry" />
        </mxCell>
        <mxCell id="FcwqcfeG6PIgrdVunfL2-281" value="+ execute(): void" style="text;html=1;strokeColor=none;fillColor=none;align=left;verticalAlign=top;spacingLeft=4;spacingRight=4;whiteSpace=wrap;overflow=hidden;rotatable=0;points=[[0,0.5],[1,0.5]];portConstraint=eastwest;" vertex="1" parent="FcwqcfeG6PIgrdVunfL2-275">
          <mxGeometry y="98" width="240" height="24" as="geometry" />
        </mxCell>
        <mxCell id="FcwqcfeG6PIgrdVunfL2-282" value="+ toString(): String" style="text;html=1;strokeColor=none;fillColor=none;align=left;verticalAlign=top;spacingLeft=4;spacingRight=4;whiteSpace=wrap;overflow=hidden;rotatable=0;points=[[0,0.5],[1,0.5]];portConstraint=eastwest;" vertex="1" parent="FcwqcfeG6PIgrdVunfL2-275">
          <mxGeometry y="122" width="240" height="24" as="geometry" />
        </mxCell>
        <mxCell id="FcwqcfeG6PIgrdVunfL2-434" style="edgeStyle=orthogonalEdgeStyle;rounded=0;orthogonalLoop=1;jettySize=auto;html=1;dashed=1;endArrow=none;endFill=0;" edge="1" parent="1" source="FcwqcfeG6PIgrdVunfL2-283">
          <mxGeometry relative="1" as="geometry">
            <mxPoint x="2500" y="670" as="targetPoint" />
          </mxGeometry>
        </mxCell>
        <mxCell id="FcwqcfeG6PIgrdVunfL2-283" value="ChangeTurnCommand" style="swimlane;html=1;fontStyle=0;childLayout=stackLayout;horizontal=1;startSize=26;fillColor=none;horizontalStack=0;resizeParent=1;resizeLast=0;collapsible=1;marginBottom=0;swimlaneFillColor=#ffffff;rounded=0;shadow=0;comic=0;labelBackgroundColor=none;strokeWidth=1;fontFamily=Verdana;fontSize=10;align=center;strokeColor=default;container=0;" vertex="1" parent="1">
          <mxGeometry x="2380" y="770" width="240" height="130" as="geometry" />
        </mxCell>
        <mxCell id="FcwqcfeG6PIgrdVunfL2-290" value="+ getController(): Server" style="text;html=1;strokeColor=none;fillColor=none;align=left;verticalAlign=top;spacingLeft=4;spacingRight=4;whiteSpace=wrap;overflow=hidden;rotatable=0;points=[[0,0.5],[1,0.5]];portConstraint=eastwest;" vertex="1" parent="FcwqcfeG6PIgrdVunfL2-283">
          <mxGeometry y="26" width="240" height="24" as="geometry" />
        </mxCell>
        <mxCell id="FcwqcfeG6PIgrdVunfL2-293" value="+ toString(): String" style="text;html=1;strokeColor=none;fillColor=none;align=left;verticalAlign=top;spacingLeft=4;spacingRight=4;whiteSpace=wrap;overflow=hidden;rotatable=0;points=[[0,0.5],[1,0.5]];portConstraint=eastwest;" vertex="1" parent="FcwqcfeG6PIgrdVunfL2-283">
          <mxGeometry y="50" width="240" height="24" as="geometry" />
        </mxCell>
        <mxCell id="FcwqcfeG6PIgrdVunfL2-292" value="+ execute(): void" style="text;html=1;strokeColor=none;fillColor=none;align=left;verticalAlign=top;spacingLeft=4;spacingRight=4;whiteSpace=wrap;overflow=hidden;rotatable=0;points=[[0,0.5],[1,0.5]];portConstraint=eastwest;" vertex="1" parent="FcwqcfeG6PIgrdVunfL2-283">
          <mxGeometry y="74" width="240" height="24" as="geometry" />
        </mxCell>
        <mxCell id="FcwqcfeG6PIgrdVunfL2-291" value="+ setController(Server): void" style="text;html=1;strokeColor=none;fillColor=none;align=left;verticalAlign=top;spacingLeft=4;spacingRight=4;whiteSpace=wrap;overflow=hidden;rotatable=0;points=[[0,0.5],[1,0.5]];portConstraint=eastwest;" vertex="1" parent="FcwqcfeG6PIgrdVunfL2-283">
          <mxGeometry y="98" width="240" height="24" as="geometry" />
        </mxCell>
        <mxCell id="FcwqcfeG6PIgrdVunfL2-435" style="edgeStyle=orthogonalEdgeStyle;rounded=0;orthogonalLoop=1;jettySize=auto;html=1;endArrow=none;endFill=0;dashed=1;" edge="1" parent="1" source="FcwqcfeG6PIgrdVunfL2-299">
          <mxGeometry relative="1" as="geometry">
            <mxPoint x="2760" y="670" as="targetPoint" />
          </mxGeometry>
        </mxCell>
        <mxCell id="FcwqcfeG6PIgrdVunfL2-299" value="ChooseNumberPlayerCommand" style="swimlane;html=1;fontStyle=0;childLayout=stackLayout;horizontal=1;startSize=26;fillColor=none;horizontalStack=0;resizeParent=1;resizeLast=0;collapsible=1;marginBottom=0;swimlaneFillColor=#ffffff;rounded=0;shadow=0;comic=0;labelBackgroundColor=none;strokeWidth=1;fontFamily=Verdana;fontSize=10;align=center;strokeColor=default;container=0;" vertex="1" parent="1">
          <mxGeometry x="2640" y="770" width="240" height="150" as="geometry" />
        </mxCell>
        <mxCell id="FcwqcfeG6PIgrdVunfL2-300" value="- numberOfPlayers: int" style="text;html=1;strokeColor=none;fillColor=none;align=left;verticalAlign=top;spacingLeft=4;spacingRight=4;whiteSpace=wrap;overflow=hidden;rotatable=0;points=[[0,0.5],[1,0.5]];portConstraint=eastwest;" vertex="1" parent="FcwqcfeG6PIgrdVunfL2-299">
          <mxGeometry y="26" width="240" height="24" as="geometry" />
        </mxCell>
        <mxCell id="FcwqcfeG6PIgrdVunfL2-301" value="" style="endArrow=none;html=1;rounded=0;" edge="1" parent="FcwqcfeG6PIgrdVunfL2-299">
          <mxGeometry width="50" height="50" relative="1" as="geometry">
            <mxPoint y="50" as="sourcePoint" />
            <mxPoint x="240" y="50.5" as="targetPoint" />
          </mxGeometry>
        </mxCell>
        <mxCell id="FcwqcfeG6PIgrdVunfL2-302" value="+ getController(): Server" style="text;html=1;strokeColor=none;fillColor=none;align=left;verticalAlign=top;spacingLeft=4;spacingRight=4;whiteSpace=wrap;overflow=hidden;rotatable=0;points=[[0,0.5],[1,0.5]];portConstraint=eastwest;" vertex="1" parent="FcwqcfeG6PIgrdVunfL2-299">
          <mxGeometry y="50" width="240" height="24" as="geometry" />
        </mxCell>
        <mxCell id="FcwqcfeG6PIgrdVunfL2-303" value="+ setController(Server): void" style="text;html=1;strokeColor=none;fillColor=none;align=left;verticalAlign=top;spacingLeft=4;spacingRight=4;whiteSpace=wrap;overflow=hidden;rotatable=0;points=[[0,0.5],[1,0.5]];portConstraint=eastwest;" vertex="1" parent="FcwqcfeG6PIgrdVunfL2-299">
          <mxGeometry y="74" width="240" height="24" as="geometry" />
        </mxCell>
        <mxCell id="FcwqcfeG6PIgrdVunfL2-304" value="+ execute(): void" style="text;html=1;strokeColor=none;fillColor=none;align=left;verticalAlign=top;spacingLeft=4;spacingRight=4;whiteSpace=wrap;overflow=hidden;rotatable=0;points=[[0,0.5],[1,0.5]];portConstraint=eastwest;" vertex="1" parent="FcwqcfeG6PIgrdVunfL2-299">
          <mxGeometry y="98" width="240" height="24" as="geometry" />
        </mxCell>
        <mxCell id="FcwqcfeG6PIgrdVunfL2-305" value="+ toString(): String" style="text;html=1;strokeColor=none;fillColor=none;align=left;verticalAlign=top;spacingLeft=4;spacingRight=4;whiteSpace=wrap;overflow=hidden;rotatable=0;points=[[0,0.5],[1,0.5]];portConstraint=eastwest;" vertex="1" parent="FcwqcfeG6PIgrdVunfL2-299">
          <mxGeometry y="122" width="240" height="24" as="geometry" />
        </mxCell>
        <mxCell id="FcwqcfeG6PIgrdVunfL2-439" style="edgeStyle=orthogonalEdgeStyle;rounded=0;orthogonalLoop=1;jettySize=auto;html=1;endArrow=none;endFill=0;dashed=1;" edge="1" parent="1" source="FcwqcfeG6PIgrdVunfL2-306">
          <mxGeometry relative="1" as="geometry">
            <mxPoint x="3020" y="670" as="targetPoint" />
          </mxGeometry>
        </mxCell>
        <mxCell id="FcwqcfeG6PIgrdVunfL2-306" value="InsertUserInputCommand" style="swimlane;html=1;fontStyle=0;childLayout=stackLayout;horizontal=1;startSize=26;fillColor=none;horizontalStack=0;resizeParent=1;resizeLast=0;collapsible=1;marginBottom=0;swimlaneFillColor=#ffffff;rounded=0;shadow=0;comic=0;labelBackgroundColor=none;strokeWidth=1;fontFamily=Verdana;fontSize=10;align=center;strokeColor=default;container=0;" vertex="1" parent="1">
          <mxGeometry x="2900" y="770" width="240" height="122" as="geometry" />
        </mxCell>
        <mxCell id="FcwqcfeG6PIgrdVunfL2-309" value="+ getController(): Server" style="text;html=1;strokeColor=none;fillColor=none;align=left;verticalAlign=top;spacingLeft=4;spacingRight=4;whiteSpace=wrap;overflow=hidden;rotatable=0;points=[[0,0.5],[1,0.5]];portConstraint=eastwest;" vertex="1" parent="FcwqcfeG6PIgrdVunfL2-306">
          <mxGeometry y="26" width="240" height="24" as="geometry" />
        </mxCell>
        <mxCell id="FcwqcfeG6PIgrdVunfL2-310" value="+ setController(Server): void" style="text;html=1;strokeColor=none;fillColor=none;align=left;verticalAlign=top;spacingLeft=4;spacingRight=4;whiteSpace=wrap;overflow=hidden;rotatable=0;points=[[0,0.5],[1,0.5]];portConstraint=eastwest;" vertex="1" parent="FcwqcfeG6PIgrdVunfL2-306">
          <mxGeometry y="50" width="240" height="24" as="geometry" />
        </mxCell>
        <mxCell id="FcwqcfeG6PIgrdVunfL2-311" value="+ execute(): void" style="text;html=1;strokeColor=none;fillColor=none;align=left;verticalAlign=top;spacingLeft=4;spacingRight=4;whiteSpace=wrap;overflow=hidden;rotatable=0;points=[[0,0.5],[1,0.5]];portConstraint=eastwest;" vertex="1" parent="FcwqcfeG6PIgrdVunfL2-306">
          <mxGeometry y="74" width="240" height="24" as="geometry" />
        </mxCell>
        <mxCell id="FcwqcfeG6PIgrdVunfL2-312" value="+ toString(): String" style="text;html=1;strokeColor=none;fillColor=none;align=left;verticalAlign=top;spacingLeft=4;spacingRight=4;whiteSpace=wrap;overflow=hidden;rotatable=0;points=[[0,0.5],[1,0.5]];portConstraint=eastwest;" vertex="1" parent="FcwqcfeG6PIgrdVunfL2-306">
          <mxGeometry y="98" width="240" height="24" as="geometry" />
        </mxCell>
        <mxCell id="FcwqcfeG6PIgrdVunfL2-438" style="edgeStyle=orthogonalEdgeStyle;rounded=0;orthogonalLoop=1;jettySize=auto;html=1;dashed=1;endArrow=none;endFill=0;" edge="1" parent="1" source="FcwqcfeG6PIgrdVunfL2-314">
          <mxGeometry relative="1" as="geometry">
            <mxPoint x="3280" y="670" as="targetPoint" />
          </mxGeometry>
        </mxCell>
        <mxCell id="FcwqcfeG6PIgrdVunfL2-314" value="SendBroadcastMessageCommand" style="swimlane;html=1;fontStyle=0;childLayout=stackLayout;horizontal=1;startSize=26;fillColor=none;horizontalStack=0;resizeParent=1;resizeLast=0;collapsible=1;marginBottom=0;swimlaneFillColor=#ffffff;rounded=0;shadow=0;comic=0;labelBackgroundColor=none;strokeWidth=1;fontFamily=Verdana;fontSize=10;align=center;strokeColor=default;container=0;" vertex="1" parent="1">
          <mxGeometry x="3160" y="770" width="240" height="170" as="geometry" />
        </mxCell>
        <mxCell id="FcwqcfeG6PIgrdVunfL2-315" value="- sender: String" style="text;html=1;strokeColor=none;fillColor=none;align=left;verticalAlign=top;spacingLeft=4;spacingRight=4;whiteSpace=wrap;overflow=hidden;rotatable=0;points=[[0,0.5],[1,0.5]];portConstraint=eastwest;" vertex="1" parent="FcwqcfeG6PIgrdVunfL2-314">
          <mxGeometry y="26" width="240" height="24" as="geometry" />
        </mxCell>
        <mxCell id="FcwqcfeG6PIgrdVunfL2-316" value="" style="endArrow=none;html=1;rounded=0;" edge="1" parent="FcwqcfeG6PIgrdVunfL2-314">
          <mxGeometry width="50" height="50" relative="1" as="geometry">
            <mxPoint y="74.71000000000001" as="sourcePoint" />
            <mxPoint x="240" y="74.71000000000001" as="targetPoint" />
          </mxGeometry>
        </mxCell>
        <mxCell id="FcwqcfeG6PIgrdVunfL2-321" value="- content: String" style="text;html=1;strokeColor=none;fillColor=none;align=left;verticalAlign=top;spacingLeft=4;spacingRight=4;whiteSpace=wrap;overflow=hidden;rotatable=0;points=[[0,0.5],[1,0.5]];portConstraint=eastwest;" vertex="1" parent="FcwqcfeG6PIgrdVunfL2-314">
          <mxGeometry y="50" width="240" height="24" as="geometry" />
        </mxCell>
        <mxCell id="FcwqcfeG6PIgrdVunfL2-334" value="+ getController(): Server" style="text;html=1;strokeColor=none;fillColor=none;align=left;verticalAlign=top;spacingLeft=4;spacingRight=4;whiteSpace=wrap;overflow=hidden;rotatable=0;points=[[0,0.5],[1,0.5]];portConstraint=eastwest;" vertex="1" parent="FcwqcfeG6PIgrdVunfL2-314">
          <mxGeometry y="74" width="240" height="24" as="geometry" />
        </mxCell>
        <mxCell id="FcwqcfeG6PIgrdVunfL2-335" value="+ setController(Server): void" style="text;html=1;strokeColor=none;fillColor=none;align=left;verticalAlign=top;spacingLeft=4;spacingRight=4;whiteSpace=wrap;overflow=hidden;rotatable=0;points=[[0,0.5],[1,0.5]];portConstraint=eastwest;" vertex="1" parent="FcwqcfeG6PIgrdVunfL2-314">
          <mxGeometry y="98" width="240" height="24" as="geometry" />
        </mxCell>
        <mxCell id="FcwqcfeG6PIgrdVunfL2-336" value="+ execute(): void" style="text;html=1;strokeColor=none;fillColor=none;align=left;verticalAlign=top;spacingLeft=4;spacingRight=4;whiteSpace=wrap;overflow=hidden;rotatable=0;points=[[0,0.5],[1,0.5]];portConstraint=eastwest;" vertex="1" parent="FcwqcfeG6PIgrdVunfL2-314">
          <mxGeometry y="122" width="240" height="24" as="geometry" />
        </mxCell>
        <mxCell id="FcwqcfeG6PIgrdVunfL2-337" value="+ toString(): String" style="text;html=1;strokeColor=none;fillColor=none;align=left;verticalAlign=top;spacingLeft=4;spacingRight=4;whiteSpace=wrap;overflow=hidden;rotatable=0;points=[[0,0.5],[1,0.5]];portConstraint=eastwest;" vertex="1" parent="FcwqcfeG6PIgrdVunfL2-314">
          <mxGeometry y="146" width="240" height="24" as="geometry" />
        </mxCell>
        <mxCell id="FcwqcfeG6PIgrdVunfL2-437" style="edgeStyle=orthogonalEdgeStyle;rounded=0;orthogonalLoop=1;jettySize=auto;html=1;endArrow=none;endFill=0;dashed=1;" edge="1" parent="1" source="FcwqcfeG6PIgrdVunfL2-326">
          <mxGeometry relative="1" as="geometry">
            <mxPoint x="2880" y="670" as="targetPoint" />
            <Array as="points">
              <mxPoint x="3550" y="670" />
            </Array>
          </mxGeometry>
        </mxCell>
        <mxCell id="FcwqcfeG6PIgrdVunfL2-326" value="SendPrivateMessageCommand" style="swimlane;html=1;fontStyle=0;childLayout=stackLayout;horizontal=1;startSize=26;fillColor=none;horizontalStack=0;resizeParent=1;resizeLast=0;collapsible=1;marginBottom=0;swimlaneFillColor=#ffffff;rounded=0;shadow=0;comic=0;labelBackgroundColor=none;strokeWidth=1;fontFamily=Verdana;fontSize=10;align=center;strokeColor=default;container=0;" vertex="1" parent="1">
          <mxGeometry x="3430" y="770" width="240" height="194" as="geometry" />
        </mxCell>
        <mxCell id="FcwqcfeG6PIgrdVunfL2-327" value="- receiver: String" style="text;html=1;strokeColor=none;fillColor=none;align=left;verticalAlign=top;spacingLeft=4;spacingRight=4;whiteSpace=wrap;overflow=hidden;rotatable=0;points=[[0,0.5],[1,0.5]];portConstraint=eastwest;" vertex="1" parent="FcwqcfeG6PIgrdVunfL2-326">
          <mxGeometry y="26" width="240" height="24" as="geometry" />
        </mxCell>
        <mxCell id="FcwqcfeG6PIgrdVunfL2-329" value="- sender: String" style="text;html=1;strokeColor=none;fillColor=none;align=left;verticalAlign=top;spacingLeft=4;spacingRight=4;whiteSpace=wrap;overflow=hidden;rotatable=0;points=[[0,0.5],[1,0.5]];portConstraint=eastwest;" vertex="1" parent="FcwqcfeG6PIgrdVunfL2-326">
          <mxGeometry y="50" width="240" height="24" as="geometry" />
        </mxCell>
        <mxCell id="FcwqcfeG6PIgrdVunfL2-342" value="- content: String" style="text;html=1;strokeColor=none;fillColor=none;align=left;verticalAlign=top;spacingLeft=4;spacingRight=4;whiteSpace=wrap;overflow=hidden;rotatable=0;points=[[0,0.5],[1,0.5]];portConstraint=eastwest;" vertex="1" parent="FcwqcfeG6PIgrdVunfL2-326">
          <mxGeometry y="74" width="240" height="24" as="geometry" />
        </mxCell>
        <mxCell id="FcwqcfeG6PIgrdVunfL2-328" value="" style="endArrow=none;html=1;rounded=0;" edge="1" parent="FcwqcfeG6PIgrdVunfL2-326">
          <mxGeometry width="50" height="50" relative="1" as="geometry">
            <mxPoint y="98" as="sourcePoint" />
            <mxPoint x="240" y="98" as="targetPoint" />
          </mxGeometry>
        </mxCell>
        <mxCell id="FcwqcfeG6PIgrdVunfL2-338" value="+ getController(): Server" style="text;html=1;strokeColor=none;fillColor=none;align=left;verticalAlign=top;spacingLeft=4;spacingRight=4;whiteSpace=wrap;overflow=hidden;rotatable=0;points=[[0,0.5],[1,0.5]];portConstraint=eastwest;" vertex="1" parent="FcwqcfeG6PIgrdVunfL2-326">
          <mxGeometry y="98" width="240" height="24" as="geometry" />
        </mxCell>
        <mxCell id="FcwqcfeG6PIgrdVunfL2-339" value="+ setController(Server): void" style="text;html=1;strokeColor=none;fillColor=none;align=left;verticalAlign=top;spacingLeft=4;spacingRight=4;whiteSpace=wrap;overflow=hidden;rotatable=0;points=[[0,0.5],[1,0.5]];portConstraint=eastwest;" vertex="1" parent="FcwqcfeG6PIgrdVunfL2-326">
          <mxGeometry y="122" width="240" height="24" as="geometry" />
        </mxCell>
        <mxCell id="FcwqcfeG6PIgrdVunfL2-341" value="+ toString(): String" style="text;html=1;strokeColor=none;fillColor=none;align=left;verticalAlign=top;spacingLeft=4;spacingRight=4;whiteSpace=wrap;overflow=hidden;rotatable=0;points=[[0,0.5],[1,0.5]];portConstraint=eastwest;" vertex="1" parent="FcwqcfeG6PIgrdVunfL2-326">
          <mxGeometry y="146" width="240" height="24" as="geometry" />
        </mxCell>
        <mxCell id="FcwqcfeG6PIgrdVunfL2-340" value="+ execute(): void" style="text;html=1;strokeColor=none;fillColor=none;align=left;verticalAlign=top;spacingLeft=4;spacingRight=4;whiteSpace=wrap;overflow=hidden;rotatable=0;points=[[0,0.5],[1,0.5]];portConstraint=eastwest;" vertex="1" parent="FcwqcfeG6PIgrdVunfL2-326">
          <mxGeometry y="170" width="240" height="24" as="geometry" />
        </mxCell>
        <mxCell id="FcwqcfeG6PIgrdVunfL2-343" value="&lt;p style=&quot;margin:0px;margin-top:4px;text-align:center;&quot;&gt;&lt;i&gt;&amp;lt;&amp;lt;enumeration&amp;gt;&amp;gt;&lt;/i&gt;&lt;br&gt;&lt;b&gt;State&lt;/b&gt;&lt;/p&gt;" style="verticalAlign=top;align=left;overflow=fill;fontSize=12;fontFamily=Helvetica;html=1;rounded=0;shadow=0;comic=0;labelBackgroundColor=none;strokeWidth=1" vertex="1" parent="1">
          <mxGeometry x="4250" y="287" width="200" height="114" as="geometry" />
        </mxCell>
        <mxCell id="FcwqcfeG6PIgrdVunfL2-344" value="WAITING_IN_LOBBY" style="text;html=1;strokeColor=none;fillColor=none;align=left;verticalAlign=top;spacingLeft=4;spacingRight=4;whiteSpace=wrap;overflow=hidden;rotatable=0;points=[[0,0.5],[1,0.5]];portConstraint=eastwest;" vertex="1" parent="1">
          <mxGeometry x="4250" y="321" width="240" height="26" as="geometry" />
        </mxCell>
        <mxCell id="FcwqcfeG6PIgrdVunfL2-345" value="GAME_ONGOING" style="text;html=1;strokeColor=none;fillColor=none;align=left;verticalAlign=top;spacingLeft=4;spacingRight=4;whiteSpace=wrap;overflow=hidden;rotatable=0;points=[[0,0.5],[1,0.5]];portConstraint=eastwest;" vertex="1" parent="1">
          <mxGeometry x="4250" y="346" width="240" height="26" as="geometry" />
        </mxCell>
        <mxCell id="FcwqcfeG6PIgrdVunfL2-346" value="WAITING_FOR_OTHER_PLAYER" style="text;html=1;strokeColor=none;fillColor=none;align=left;verticalAlign=top;spacingLeft=4;spacingRight=4;whiteSpace=wrap;overflow=hidden;rotatable=0;points=[[0,0.5],[1,0.5]];portConstraint=eastwest;" vertex="1" parent="1">
          <mxGeometry x="4250" y="371" width="240" height="26" as="geometry" />
        </mxCell>
        <mxCell id="FcwqcfeG6PIgrdVunfL2-425" style="edgeStyle=orthogonalEdgeStyle;rounded=0;orthogonalLoop=1;jettySize=auto;html=1;entryX=0.5;entryY=1;entryDx=0;entryDy=0;endArrow=block;endFill=0;endSize=12;" edge="1" parent="1" source="FcwqcfeG6PIgrdVunfL2-347" target="FcwqcfeG6PIgrdVunfL2-364">
          <mxGeometry relative="1" as="geometry" />
        </mxCell>
        <mxCell id="FcwqcfeG6PIgrdVunfL2-428" style="edgeStyle=orthogonalEdgeStyle;rounded=0;orthogonalLoop=1;jettySize=auto;html=1;entryX=0;entryY=0.5;entryDx=0;entryDy=0;exitX=1;exitY=0.5;exitDx=0;exitDy=0;" edge="1" parent="1" source="FcwqcfeG6PIgrdVunfL2-388" target="FcwqcfeG6PIgrdVunfL2-427">
          <mxGeometry relative="1" as="geometry">
            <mxPoint x="4145" y="545" as="sourcePoint" />
          </mxGeometry>
        </mxCell>
        <mxCell id="FcwqcfeG6PIgrdVunfL2-347" value="TextualUI" style="swimlane;html=1;fontStyle=0;childLayout=stackLayout;horizontal=1;startSize=26;fillColor=none;horizontalStack=0;resizeParent=1;resizeLast=0;collapsible=1;marginBottom=0;swimlaneFillColor=#ffffff;rounded=0;shadow=0;comic=0;labelBackgroundColor=none;strokeWidth=1;fontFamily=Verdana;fontSize=10;align=center;strokeColor=default;" vertex="1" parent="1">
          <mxGeometry x="3880" y="670" width="240" height="360" as="geometry" />
        </mxCell>
        <mxCell id="FcwqcfeG6PIgrdVunfL2-348" value="- firstInteractionWithUser(): void" style="text;html=1;strokeColor=none;fillColor=none;align=left;verticalAlign=top;spacingLeft=4;spacingRight=4;whiteSpace=wrap;overflow=hidden;rotatable=0;points=[[0,0.5],[1,0.5]];portConstraint=eastwest;" vertex="1" parent="FcwqcfeG6PIgrdVunfL2-347">
          <mxGeometry y="26" width="240" height="24" as="geometry" />
        </mxCell>
        <mxCell id="FcwqcfeG6PIgrdVunfL2-349" value="- waitWhileInState(State): void" style="text;html=1;strokeColor=none;fillColor=none;align=left;verticalAlign=top;spacingLeft=4;spacingRight=4;whiteSpace=wrap;overflow=hidden;rotatable=0;points=[[0,0.5],[1,0.5]];portConstraint=eastwest;" vertex="1" parent="FcwqcfeG6PIgrdVunfL2-347">
          <mxGeometry y="50" width="240" height="26" as="geometry" />
        </mxCell>
        <mxCell id="FcwqcfeG6PIgrdVunfL2-350" value="+ run(): void" style="text;html=1;strokeColor=none;fillColor=none;align=left;verticalAlign=top;spacingLeft=4;spacingRight=4;whiteSpace=wrap;overflow=hidden;rotatable=0;points=[[0,0.5],[1,0.5]];portConstraint=eastwest;" vertex="1" parent="FcwqcfeG6PIgrdVunfL2-347">
          <mxGeometry y="76" width="240" height="26" as="geometry" />
        </mxCell>
        <mxCell id="FcwqcfeG6PIgrdVunfL2-351" value="+ showNewTurnIntro(): void" style="text;html=1;strokeColor=none;fillColor=none;align=left;verticalAlign=top;spacingLeft=4;spacingRight=4;whiteSpace=wrap;overflow=hidden;rotatable=0;points=[[0,0.5],[1,0.5]];portConstraint=eastwest;" vertex="1" parent="FcwqcfeG6PIgrdVunfL2-347">
          <mxGeometry y="102" width="240" height="26" as="geometry" />
        </mxCell>
        <mxCell id="FcwqcfeG6PIgrdVunfL2-352" value="- rowColumnTileChoiceFrom&lt;br&gt;Board(Scanner, int, boolean): int" style="text;html=1;strokeColor=none;fillColor=none;align=left;verticalAlign=top;spacingLeft=4;spacingRight=4;whiteSpace=wrap;overflow=hidden;rotatable=0;points=[[0,0.5],[1,0.5]];portConstraint=eastwest;" vertex="1" parent="FcwqcfeG6PIgrdVunfL2-347">
          <mxGeometry y="128" width="240" height="42" as="geometry" />
        </mxCell>
        <mxCell id="FcwqcfeG6PIgrdVunfL2-353" value="- bookshelfColumnChoice(Scanner,&lt;br&gt;int): int" style="text;html=1;strokeColor=none;fillColor=none;align=left;verticalAlign=top;spacingLeft=4;spacingRight=4;whiteSpace=wrap;overflow=hidden;rotatable=0;points=[[0,0.5],[1,0.5]];portConstraint=eastwest;" vertex="1" parent="FcwqcfeG6PIgrdVunfL2-347">
          <mxGeometry y="170" width="240" height="40" as="geometry" />
        </mxCell>
        <mxCell id="FcwqcfeG6PIgrdVunfL2-354" value="+ askPlayer(): Choice" style="text;html=1;strokeColor=none;fillColor=none;align=left;verticalAlign=top;spacingLeft=4;spacingRight=4;whiteSpace=wrap;overflow=hidden;rotatable=0;points=[[0,0.5],[1,0.5]];portConstraint=eastwest;" vertex="1" parent="FcwqcfeG6PIgrdVunfL2-347">
          <mxGeometry y="210" width="240" height="26" as="geometry" />
        </mxCell>
        <mxCell id="FcwqcfeG6PIgrdVunfL2-355" value="- checkIfInLine(int, int, int, int): Direction" style="text;html=1;strokeColor=none;fillColor=none;align=left;verticalAlign=top;spacingLeft=4;spacingRight=4;whiteSpace=wrap;overflow=hidden;rotatable=0;points=[[0,0.5],[1,0.5]];portConstraint=eastwest;" vertex="1" parent="FcwqcfeG6PIgrdVunfL2-347">
          <mxGeometry y="236" width="240" height="26" as="geometry" />
        </mxCell>
        <mxCell id="FcwqcfeG6PIgrdVunfL2-356" value="- checkIfInLine(row,column, List&amp;lt;Coordinates&amp;gt;, Direction): boolean" style="text;html=1;strokeColor=none;fillColor=none;align=left;verticalAlign=top;spacingLeft=4;spacingRight=4;whiteSpace=wrap;overflow=hidden;rotatable=0;points=[[0,0.5],[1,0.5]];portConstraint=eastwest;" vertex="1" parent="FcwqcfeG6PIgrdVunfL2-347">
          <mxGeometry y="262" width="240" height="38" as="geometry" />
        </mxCell>
        <mxCell id="FcwqcfeG6PIgrdVunfL2-357" value="- checkIfPickable(int,int): boolean" style="text;html=1;strokeColor=none;fillColor=none;align=left;verticalAlign=top;spacingLeft=4;spacingRight=4;whiteSpace=wrap;overflow=hidden;rotatable=0;points=[[0,0.5],[1,0.5]];portConstraint=eastwest;" vertex="1" parent="FcwqcfeG6PIgrdVunfL2-347">
          <mxGeometry y="300" width="240" height="30" as="geometry" />
        </mxCell>
        <mxCell id="FcwqcfeG6PIgrdVunfL2-358" value="+ showPersonalRecap(): void" style="text;html=1;strokeColor=none;fillColor=none;align=left;verticalAlign=top;spacingLeft=4;spacingRight=4;whiteSpace=wrap;overflow=hidden;rotatable=0;points=[[0,0.5],[1,0.5]];portConstraint=eastwest;" vertex="1" parent="FcwqcfeG6PIgrdVunfL2-347">
          <mxGeometry y="330" width="240" height="26" as="geometry" />
        </mxCell>
        <mxCell id="FcwqcfeG6PIgrdVunfL2-364" value="&amp;lt;&amp;lt;abstract&amp;gt;&amp;gt;&lt;br&gt;UI" style="swimlane;html=1;fontStyle=0;childLayout=stackLayout;horizontal=1;startSize=26;fillColor=none;horizontalStack=0;resizeParent=1;resizeLast=0;collapsible=1;marginBottom=0;swimlaneFillColor=#ffffff;rounded=0;shadow=0;comic=0;labelBackgroundColor=none;strokeWidth=1;fontFamily=Verdana;fontSize=10;align=center;strokeColor=default;" vertex="1" parent="1">
          <mxGeometry x="3880" y="370" width="240" height="192" as="geometry" />
        </mxCell>
        <mxCell id="FcwqcfeG6PIgrdVunfL2-383" value="- nicknameID(): String" style="text;html=1;strokeColor=none;fillColor=none;align=left;verticalAlign=top;spacingLeft=4;spacingRight=4;whiteSpace=wrap;overflow=hidden;rotatable=0;points=[[0,0.5],[1,0.5]];portConstraint=eastwest;" vertex="1" parent="FcwqcfeG6PIgrdVunfL2-364">
          <mxGeometry y="26" width="240" height="24" as="geometry" />
        </mxCell>
        <mxCell id="FcwqcfeG6PIgrdVunfL2-384" value="- &lt;i&gt;lockState(): Object = new Object(); {readOnly}&lt;/i&gt;" style="text;html=1;strokeColor=none;fillColor=none;align=left;verticalAlign=top;spacingLeft=4;spacingRight=4;whiteSpace=wrap;overflow=hidden;rotatable=0;points=[[0,0.5],[1,0.5]];portConstraint=eastwest;" vertex="1" parent="FcwqcfeG6PIgrdVunfL2-364">
          <mxGeometry y="50" width="240" height="40" as="geometry" />
        </mxCell>
        <mxCell id="FcwqcfeG6PIgrdVunfL2-385" value="" style="endArrow=none;html=1;rounded=0;" edge="1" parent="FcwqcfeG6PIgrdVunfL2-364">
          <mxGeometry width="50" height="50" relative="1" as="geometry">
            <mxPoint y="90" as="sourcePoint" />
            <mxPoint x="240" y="90" as="targetPoint" />
          </mxGeometry>
        </mxCell>
        <mxCell id="FcwqcfeG6PIgrdVunfL2-386" value="- askPlayer(): Choice" style="text;html=1;strokeColor=none;fillColor=none;align=left;verticalAlign=top;spacingLeft=4;spacingRight=4;whiteSpace=wrap;overflow=hidden;rotatable=0;points=[[0,0.5],[1,0.5]];portConstraint=eastwest;fontStyle=2" vertex="1" parent="FcwqcfeG6PIgrdVunfL2-364">
          <mxGeometry y="90" width="240" height="24" as="geometry" />
        </mxCell>
        <mxCell id="FcwqcfeG6PIgrdVunfL2-387" value="+ showNewTurnIntro(): void" style="text;html=1;strokeColor=none;fillColor=none;align=left;verticalAlign=top;spacingLeft=4;spacingRight=4;whiteSpace=wrap;overflow=hidden;rotatable=0;points=[[0,0.5],[1,0.5]];portConstraint=eastwest;fontStyle=2" vertex="1" parent="FcwqcfeG6PIgrdVunfL2-364">
          <mxGeometry y="114" width="240" height="26" as="geometry" />
        </mxCell>
        <mxCell id="FcwqcfeG6PIgrdVunfL2-388" value="+ showPersonalRecap(): void" style="text;html=1;strokeColor=none;fillColor=none;align=left;verticalAlign=top;spacingLeft=4;spacingRight=4;whiteSpace=wrap;overflow=hidden;rotatable=0;points=[[0,0.5],[1,0.5]];portConstraint=eastwest;fontStyle=2" vertex="1" parent="FcwqcfeG6PIgrdVunfL2-364">
          <mxGeometry y="140" width="240" height="26" as="geometry" />
        </mxCell>
        <mxCell id="FcwqcfeG6PIgrdVunfL2-389" value="+ modelModified(GameView): void" style="text;html=1;strokeColor=none;fillColor=none;align=left;verticalAlign=top;spacingLeft=4;spacingRight=4;whiteSpace=wrap;overflow=hidden;rotatable=0;points=[[0,0.5],[1,0.5]];portConstraint=eastwest;" vertex="1" parent="FcwqcfeG6PIgrdVunfL2-364">
          <mxGeometry y="166" width="240" height="26" as="geometry" />
        </mxCell>
        <mxCell id="FcwqcfeG6PIgrdVunfL2-390" style="edgeStyle=orthogonalEdgeStyle;rounded=0;orthogonalLoop=1;jettySize=auto;html=1;entryX=1;entryY=0.5;entryDx=0;entryDy=0;exitX=0;exitY=0.5;exitDx=0;exitDy=0;" edge="1" parent="1" source="FcwqcfeG6PIgrdVunfL2-199" target="FcwqcfeG6PIgrdVunfL2-82">
          <mxGeometry relative="1" as="geometry" />
        </mxCell>
        <mxCell id="FcwqcfeG6PIgrdVunfL2-391" value="controller" style="text;html=1;strokeColor=none;fillColor=none;align=center;verticalAlign=middle;whiteSpace=wrap;rounded=0;" vertex="1" parent="1">
          <mxGeometry x="2550" width="60" height="30" as="geometry" />
        </mxCell>
        <mxCell id="FcwqcfeG6PIgrdVunfL2-392" value="1" style="text;html=1;strokeColor=none;fillColor=none;align=center;verticalAlign=middle;whiteSpace=wrap;rounded=0;" vertex="1" parent="1">
          <mxGeometry x="2550" y="32" width="60" height="30" as="geometry" />
        </mxCell>
        <mxCell id="FcwqcfeG6PIgrdVunfL2-393" style="edgeStyle=orthogonalEdgeStyle;rounded=0;orthogonalLoop=1;jettySize=auto;html=1;exitX=0;exitY=0.5;exitDx=0;exitDy=0;entryX=1;entryY=0.5;entryDx=0;entryDy=0;" edge="1" parent="1" source="FcwqcfeG6PIgrdVunfL2-201" target="FcwqcfeG6PIgrdVunfL2-21">
          <mxGeometry relative="1" as="geometry">
            <mxPoint x="1310" y="90" as="targetPoint" />
            <Array as="points">
              <mxPoint x="2090" y="163" />
              <mxPoint x="2090" y="300" />
              <mxPoint x="1480" y="300" />
              <mxPoint x="1480" y="67" />
            </Array>
          </mxGeometry>
        </mxCell>
        <mxCell id="FcwqcfeG6PIgrdVunfL2-394" value="model" style="text;html=1;strokeColor=none;fillColor=none;align=center;verticalAlign=middle;whiteSpace=wrap;rounded=0;" vertex="1" parent="1">
          <mxGeometry x="2550" y="130" width="60" height="30" as="geometry" />
        </mxCell>
        <mxCell id="FcwqcfeG6PIgrdVunfL2-395" value="1" style="text;html=1;strokeColor=none;fillColor=none;align=center;verticalAlign=middle;whiteSpace=wrap;rounded=0;" vertex="1" parent="1">
          <mxGeometry x="2550" y="162" width="60" height="30" as="geometry" />
        </mxCell>
        <mxCell id="FcwqcfeG6PIgrdVunfL2-397" style="edgeStyle=orthogonalEdgeStyle;rounded=0;orthogonalLoop=1;jettySize=auto;html=1;exitX=0;exitY=0.5;exitDx=0;exitDy=0;entryX=1;entryY=0.5;entryDx=0;entryDy=0;" edge="1" parent="1" source="FcwqcfeG6PIgrdVunfL2-243">
          <mxGeometry relative="1" as="geometry">
            <mxPoint x="2850" y="-700" as="targetPoint" />
          </mxGeometry>
        </mxCell>
        <mxCell id="FcwqcfeG6PIgrdVunfL2-398" value="generalServer" style="text;html=1;strokeColor=none;fillColor=none;align=center;verticalAlign=middle;whiteSpace=wrap;rounded=0;" vertex="1" parent="1">
          <mxGeometry x="2940" y="-730" width="60" height="30" as="geometry" />
        </mxCell>
        <mxCell id="FcwqcfeG6PIgrdVunfL2-399" value="1" style="text;html=1;strokeColor=none;fillColor=none;align=center;verticalAlign=middle;whiteSpace=wrap;rounded=0;" vertex="1" parent="1">
          <mxGeometry x="2940" y="-700" width="60" height="30" as="geometry" />
        </mxCell>
        <mxCell id="FcwqcfeG6PIgrdVunfL2-400" style="edgeStyle=orthogonalEdgeStyle;rounded=0;orthogonalLoop=1;jettySize=auto;html=1;exitX=1;exitY=0.5;exitDx=0;exitDy=0;entryX=-0.011;entryY=-0.083;entryDx=0;entryDy=0;entryPerimeter=0;" edge="1" parent="1" source="FcwqcfeG6PIgrdVunfL2-243" target="FcwqcfeG6PIgrdVunfL2-249">
          <mxGeometry relative="1" as="geometry" />
        </mxCell>
        <mxCell id="FcwqcfeG6PIgrdVunfL2-401" value="clientSkeleton" style="text;html=1;strokeColor=none;fillColor=none;align=center;verticalAlign=middle;whiteSpace=wrap;rounded=0;" vertex="1" parent="1">
          <mxGeometry x="3270" y="-730" width="60" height="30" as="geometry" />
        </mxCell>
        <mxCell id="FcwqcfeG6PIgrdVunfL2-402" value="1" style="text;html=1;strokeColor=none;fillColor=none;align=center;verticalAlign=middle;whiteSpace=wrap;rounded=0;" vertex="1" parent="1">
          <mxGeometry x="3270" y="-700" width="60" height="30" as="geometry" />
        </mxCell>
        <mxCell id="FcwqcfeG6PIgrdVunfL2-403" value="Thread" style="swimlane;html=1;fontStyle=0;childLayout=stackLayout;horizontal=1;startSize=60;fillColor=none;horizontalStack=0;resizeParent=1;resizeLast=0;collapsible=1;marginBottom=0;swimlaneFillColor=#ffffff;rounded=0;shadow=0;comic=0;labelBackgroundColor=none;strokeWidth=1;fontFamily=Verdana;fontSize=10;align=center;" vertex="1" parent="1">
          <mxGeometry x="3010" y="-840" width="240" height="40" as="geometry" />
        </mxCell>
        <mxCell id="FcwqcfeG6PIgrdVunfL2-406" style="edgeStyle=orthogonalEdgeStyle;rounded=0;orthogonalLoop=1;jettySize=auto;html=1;entryX=0.75;entryY=0;entryDx=0;entryDy=0;endArrow=block;endFill=0;endSize=12;dashed=1;exitX=0;exitY=0.5;exitDx=0;exitDy=0;" edge="1" parent="1" source="FcwqcfeG6PIgrdVunfL2-173" target="FcwqcfeG6PIgrdVunfL2-98">
          <mxGeometry relative="1" as="geometry">
            <mxPoint x="1390" y="-720" as="targetPoint" />
            <Array as="points">
              <mxPoint x="1960" y="-51" />
              <mxPoint x="1960" y="-750" />
              <mxPoint x="890" y="-750" />
            </Array>
          </mxGeometry>
        </mxCell>
        <mxCell id="FcwqcfeG6PIgrdVunfL2-407" value="UnicastRemoteObject" style="swimlane;html=1;fontStyle=0;childLayout=stackLayout;horizontal=1;startSize=60;fillColor=none;horizontalStack=0;resizeParent=1;resizeLast=0;collapsible=1;marginBottom=0;swimlaneFillColor=#ffffff;rounded=0;shadow=0;comic=0;labelBackgroundColor=none;strokeWidth=1;fontFamily=Verdana;fontSize=10;align=center;" vertex="1" parent="1">
          <mxGeometry x="3240" y="-70" width="240" height="40" as="geometry" />
        </mxCell>
        <mxCell id="FcwqcfeG6PIgrdVunfL2-410" value="serverConnectedTo" style="text;html=1;strokeColor=none;fillColor=none;align=center;verticalAlign=middle;whiteSpace=wrap;rounded=0;" vertex="1" parent="1">
          <mxGeometry x="3790" y="-150" width="60" height="30" as="geometry" />
        </mxCell>
        <mxCell id="FcwqcfeG6PIgrdVunfL2-411" value="1" style="text;html=1;strokeColor=none;fillColor=none;align=center;verticalAlign=middle;whiteSpace=wrap;rounded=0;" vertex="1" parent="1">
          <mxGeometry x="3790" y="-118" width="60" height="30" as="geometry" />
        </mxCell>
        <mxCell id="FcwqcfeG6PIgrdVunfL2-415" value="view" style="text;html=1;strokeColor=none;fillColor=none;align=center;verticalAlign=middle;whiteSpace=wrap;rounded=0;" vertex="1" parent="1">
          <mxGeometry x="3940" y="86" width="60" height="30" as="geometry" />
        </mxCell>
        <mxCell id="FcwqcfeG6PIgrdVunfL2-416" value="1" style="text;html=1;strokeColor=none;fillColor=none;align=center;verticalAlign=middle;whiteSpace=wrap;rounded=0;" vertex="1" parent="1">
          <mxGeometry x="4000" y="86" width="60" height="30" as="geometry" />
        </mxCell>
        <mxCell id="FcwqcfeG6PIgrdVunfL2-418" value="&amp;lt;&amp;lt;Interface&amp;gt;&amp;gt;&lt;br&gt;Runnable" style="swimlane;html=1;fontStyle=0;childLayout=stackLayout;horizontal=1;startSize=60;fillColor=none;horizontalStack=0;resizeParent=1;resizeLast=0;collapsible=1;marginBottom=0;swimlaneFillColor=#ffffff;rounded=0;shadow=0;comic=0;labelBackgroundColor=none;strokeWidth=1;fontFamily=Verdana;fontSize=10;align=center;" vertex="1" parent="1">
          <mxGeometry x="3670" y="-310" width="240" height="40" as="geometry" />
        </mxCell>
        <mxCell id="FcwqcfeG6PIgrdVunfL2-420" style="edgeStyle=orthogonalEdgeStyle;rounded=0;orthogonalLoop=1;jettySize=auto;html=1;exitX=0;exitY=0.5;exitDx=0;exitDy=0;entryX=0.5;entryY=1;entryDx=0;entryDy=0;endArrow=block;endFill=0;endSize=12;" edge="1" parent="1" source="FcwqcfeG6PIgrdVunfL2-230" target="FcwqcfeG6PIgrdVunfL2-407">
          <mxGeometry relative="1" as="geometry">
            <Array as="points">
              <mxPoint x="3880" />
              <mxPoint x="3360" />
            </Array>
          </mxGeometry>
        </mxCell>
        <mxCell id="FcwqcfeG6PIgrdVunfL2-421" style="edgeStyle=orthogonalEdgeStyle;rounded=0;orthogonalLoop=1;jettySize=auto;html=1;exitX=1;exitY=0.5;exitDx=0;exitDy=0;endArrow=block;endFill=0;endSize=12;dashed=1;" edge="1" parent="1" source="FcwqcfeG6PIgrdVunfL2-227">
          <mxGeometry relative="1" as="geometry">
            <mxPoint x="1820" y="-1090" as="targetPoint" />
            <Array as="points">
              <mxPoint x="4150" y="-114" />
              <mxPoint x="4150" y="-1090" />
              <mxPoint x="1820" y="-1090" />
            </Array>
          </mxGeometry>
        </mxCell>
        <mxCell id="FcwqcfeG6PIgrdVunfL2-422" style="edgeStyle=orthogonalEdgeStyle;rounded=0;orthogonalLoop=1;jettySize=auto;html=1;entryX=1;entryY=0.5;entryDx=0;entryDy=0;endArrow=block;endFill=0;endSize=12;dashed=1;" edge="1" parent="1" source="FcwqcfeG6PIgrdVunfL2-145" target="FcwqcfeG6PIgrdVunfL2-246">
          <mxGeometry relative="1" as="geometry" />
        </mxCell>
        <mxCell id="FcwqcfeG6PIgrdVunfL2-426" style="edgeStyle=orthogonalEdgeStyle;rounded=0;orthogonalLoop=1;jettySize=auto;html=1;entryX=0;entryY=0.5;entryDx=0;entryDy=0;exitX=1;exitY=0.5;exitDx=0;exitDy=0;" edge="1" parent="1" source="FcwqcfeG6PIgrdVunfL2-383" target="FcwqcfeG6PIgrdVunfL2-344">
          <mxGeometry relative="1" as="geometry">
            <mxPoint x="4190" y="759" as="targetPoint" />
          </mxGeometry>
        </mxCell>
        <mxCell id="FcwqcfeG6PIgrdVunfL2-427" value="GameView" style="swimlane;html=1;fontStyle=0;childLayout=stackLayout;horizontal=1;startSize=60;fillColor=none;horizontalStack=0;resizeParent=1;resizeLast=0;collapsible=1;marginBottom=0;swimlaneFillColor=#ffffff;rounded=0;shadow=0;comic=0;labelBackgroundColor=none;strokeWidth=1;fontFamily=Verdana;fontSize=10;align=center;" vertex="1" parent="1">
          <mxGeometry x="4275" y="540" width="240" height="40" as="geometry" />
        </mxCell>
        <mxCell id="FcwqcfeG6PIgrdVunfL2-430" style="edgeStyle=orthogonalEdgeStyle;rounded=0;orthogonalLoop=1;jettySize=auto;html=1;entryX=0.5;entryY=1;entryDx=0;entryDy=0;endArrow=block;endFill=0;endSize=12;dashed=1;" edge="1" parent="1" source="FcwqcfeG6PIgrdVunfL2-275" target="FcwqcfeG6PIgrdVunfL2-270">
          <mxGeometry relative="1" as="geometry">
            <mxPoint x="2240" y="680" as="targetPoint" />
            <Array as="points">
              <mxPoint x="2230" y="670" />
              <mxPoint x="2880" y="670" />
            </Array>
          </mxGeometry>
        </mxCell>
        <mxCell id="FcwqcfeG6PIgrdVunfL2-446" style="edgeStyle=orthogonalEdgeStyle;rounded=0;orthogonalLoop=1;jettySize=auto;html=1;endArrow=block;endFill=0;endSize=12;dashed=1;" edge="1" parent="1" source="FcwqcfeG6PIgrdVunfL2-440" target="FcwqcfeG6PIgrdVunfL2-445">
          <mxGeometry relative="1" as="geometry" />
        </mxCell>
        <mxCell id="FcwqcfeG6PIgrdVunfL2-452" style="edgeStyle=orthogonalEdgeStyle;rounded=0;orthogonalLoop=1;jettySize=auto;html=1;entryX=0.5;entryY=0;entryDx=0;entryDy=0;exitX=0;exitY=0.5;exitDx=0;exitDy=0;startArrow=diamondThin;startFill=0;startSize=17;" edge="1" parent="1" source="FcwqcfeG6PIgrdVunfL2-442" target="FcwqcfeG6PIgrdVunfL2-447">
          <mxGeometry relative="1" as="geometry" />
        </mxCell>
        <mxCell id="FcwqcfeG6PIgrdVunfL2-440" value="Choice" style="swimlane;html=1;fontStyle=0;childLayout=stackLayout;horizontal=1;startSize=26;fillColor=none;horizontalStack=0;resizeParent=1;resizeLast=0;collapsible=1;marginBottom=0;swimlaneFillColor=#ffffff;rounded=0;shadow=0;comic=0;labelBackgroundColor=none;strokeWidth=1;fontFamily=Verdana;fontSize=10;align=center;" vertex="1" parent="1">
          <mxGeometry x="1550" y="746" width="240" height="80" as="geometry" />
        </mxCell>
        <mxCell id="FcwqcfeG6PIgrdVunfL2-441" value="- tileOrder: int[]" style="text;html=1;strokeColor=none;fillColor=none;align=left;verticalAlign=top;spacingLeft=4;spacingRight=4;whiteSpace=wrap;overflow=hidden;rotatable=0;points=[[0,0.5],[1,0.5]];portConstraint=eastwest;" vertex="1" parent="FcwqcfeG6PIgrdVunfL2-440">
          <mxGeometry y="26" width="240" height="26" as="geometry" />
        </mxCell>
        <mxCell id="FcwqcfeG6PIgrdVunfL2-442" value="- chosenColumn: int" style="text;html=1;strokeColor=none;fillColor=none;align=left;verticalAlign=top;spacingLeft=4;spacingRight=4;whiteSpace=wrap;overflow=hidden;rotatable=0;points=[[0,0.5],[1,0.5]];portConstraint=eastwest;" vertex="1" parent="FcwqcfeG6PIgrdVunfL2-440">
          <mxGeometry y="52" width="240" height="26" as="geometry" />
        </mxCell>
        <mxCell id="FcwqcfeG6PIgrdVunfL2-445" value="&amp;lt;&amp;lt;Interface&amp;gt;&amp;gt;&lt;br&gt;Runnable" style="swimlane;html=1;fontStyle=0;childLayout=stackLayout;horizontal=1;startSize=60;fillColor=none;horizontalStack=0;resizeParent=1;resizeLast=0;collapsible=1;marginBottom=0;swimlaneFillColor=#ffffff;rounded=0;shadow=0;comic=0;labelBackgroundColor=none;strokeWidth=1;fontFamily=Verdana;fontSize=10;align=center;" vertex="1" parent="1">
          <mxGeometry x="1550" y="640" width="240" height="40" as="geometry" />
        </mxCell>
        <mxCell id="FcwqcfeG6PIgrdVunfL2-459" style="edgeStyle=orthogonalEdgeStyle;rounded=0;orthogonalLoop=1;jettySize=auto;html=1;exitX=0.25;exitY=0;exitDx=0;exitDy=0;entryX=0;entryY=0.5;entryDx=0;entryDy=0;endArrow=block;endFill=0;endSize=12;dashed=1;" edge="1" parent="1" source="FcwqcfeG6PIgrdVunfL2-447" target="FcwqcfeG6PIgrdVunfL2-445">
          <mxGeometry relative="1" as="geometry" />
        </mxCell>
        <mxCell id="FcwqcfeG6PIgrdVunfL2-447" value="Coordinates" style="swimlane;html=1;fontStyle=0;childLayout=stackLayout;horizontal=1;startSize=26;fillColor=none;horizontalStack=0;resizeParent=1;resizeLast=0;collapsible=1;marginBottom=0;swimlaneFillColor=#ffffff;rounded=0;shadow=0;comic=0;labelBackgroundColor=none;strokeWidth=1;fontFamily=Verdana;fontSize=10;align=center;" vertex="1" parent="1">
          <mxGeometry x="1390" y="920" width="240" height="110" as="geometry" />
        </mxCell>
        <mxCell id="FcwqcfeG6PIgrdVunfL2-448" value="- x: int" style="text;html=1;strokeColor=none;fillColor=none;align=left;verticalAlign=top;spacingLeft=4;spacingRight=4;whiteSpace=wrap;overflow=hidden;rotatable=0;points=[[0,0.5],[1,0.5]];portConstraint=eastwest;" vertex="1" parent="FcwqcfeG6PIgrdVunfL2-447">
          <mxGeometry y="26" width="240" height="26" as="geometry" />
        </mxCell>
        <mxCell id="FcwqcfeG6PIgrdVunfL2-449" value="- y: int" style="text;html=1;strokeColor=none;fillColor=none;align=left;verticalAlign=top;spacingLeft=4;spacingRight=4;whiteSpace=wrap;overflow=hidden;rotatable=0;points=[[0,0.5],[1,0.5]];portConstraint=eastwest;" vertex="1" parent="FcwqcfeG6PIgrdVunfL2-447">
          <mxGeometry y="52" width="240" height="26" as="geometry" />
        </mxCell>
        <mxCell id="FcwqcfeG6PIgrdVunfL2-450" value="" style="endArrow=none;html=1;rounded=0;entryX=1.002;entryY=-0.016;entryDx=0;entryDy=0;entryPerimeter=0;exitX=0.002;exitY=-0.016;exitDx=0;exitDy=0;exitPerimeter=0;" edge="1" parent="FcwqcfeG6PIgrdVunfL2-447">
          <mxGeometry width="50" height="50" relative="1" as="geometry">
            <mxPoint x="-2.2737367544323206e-13" y="78.0039999999999" as="sourcePoint" />
            <mxPoint x="240" y="78.0039999999999" as="targetPoint" />
          </mxGeometry>
        </mxCell>
        <mxCell id="FcwqcfeG6PIgrdVunfL2-451" value="+ equals(Coordinates): boolean" style="text;html=1;strokeColor=none;fillColor=none;align=left;verticalAlign=top;spacingLeft=4;spacingRight=4;whiteSpace=wrap;overflow=hidden;rotatable=0;points=[[0,0.5],[1,0.5]];portConstraint=eastwest;" vertex="1" parent="FcwqcfeG6PIgrdVunfL2-447">
          <mxGeometry y="78" width="240" height="26" as="geometry" />
        </mxCell>
        <mxCell id="FcwqcfeG6PIgrdVunfL2-453" value="tileCoordinates" style="text;html=1;strokeColor=none;fillColor=none;align=center;verticalAlign=middle;whiteSpace=wrap;rounded=0;" vertex="1" parent="1">
          <mxGeometry x="1470" y="780" width="60" height="30" as="geometry" />
        </mxCell>
        <mxCell id="FcwqcfeG6PIgrdVunfL2-454" value="1..3" style="text;html=1;strokeColor=none;fillColor=none;align=center;verticalAlign=middle;whiteSpace=wrap;rounded=0;" vertex="1" parent="1">
          <mxGeometry x="1500" y="818" width="60" height="30" as="geometry" />
        </mxCell>
        <mxCell id="FcwqcfeG6PIgrdVunfL2-455" value="TileView" style="swimlane;html=1;fontStyle=0;childLayout=stackLayout;horizontal=1;startSize=60;fillColor=none;horizontalStack=0;resizeParent=1;resizeLast=0;collapsible=1;marginBottom=0;swimlaneFillColor=#ffffff;rounded=0;shadow=0;comic=0;labelBackgroundColor=none;strokeWidth=1;fontFamily=Verdana;fontSize=10;align=center;" vertex="1" parent="1">
          <mxGeometry x="1730" y="1024" width="240" height="40" as="geometry" />
        </mxCell>
        <mxCell id="FcwqcfeG6PIgrdVunfL2-456" style="edgeStyle=orthogonalEdgeStyle;rounded=0;orthogonalLoop=1;jettySize=auto;html=1;exitX=1;exitY=0.5;exitDx=0;exitDy=0;entryX=0.5;entryY=0;entryDx=0;entryDy=0;startArrow=diamondThin;startFill=0;startSize=17;" edge="1" parent="1" source="FcwqcfeG6PIgrdVunfL2-441" target="FcwqcfeG6PIgrdVunfL2-455">
          <mxGeometry relative="1" as="geometry" />
        </mxCell>
        <mxCell id="FcwqcfeG6PIgrdVunfL2-457" value="chosenTiles" style="text;html=1;strokeColor=none;fillColor=none;align=center;verticalAlign=middle;whiteSpace=wrap;rounded=0;" vertex="1" parent="1">
          <mxGeometry x="1810" y="742" width="60" height="30" as="geometry" />
        </mxCell>
        <mxCell id="FcwqcfeG6PIgrdVunfL2-458" value="1..3" style="text;html=1;strokeColor=none;fillColor=none;align=center;verticalAlign=middle;whiteSpace=wrap;rounded=0;" vertex="1" parent="1">
          <mxGeometry x="1800" y="796" width="60" height="30" as="geometry" />
        </mxCell>
        <mxCell id="FcwqcfeG6PIgrdVunfL2-460" value="N.B: Tutte le classi del modello accompagnate dal nome &quot;View&quot;, sono copie immutabili delle corrispondenti classi" style="text;html=1;strokeColor=none;fillColor=none;align=center;verticalAlign=middle;whiteSpace=wrap;rounded=0;" vertex="1" parent="1">
          <mxGeometry x="1700" y="1087" width="310" height="30" as="geometry" />
        </mxCell>
        <mxCell id="FcwqcfeG6PIgrdVunfL2-461" value="N.B: Tutte le classi del modello accompagnate dal nome &quot;View&quot;, sono copie immutabili delle corrispondenti classi" style="text;html=1;strokeColor=none;fillColor=none;align=center;verticalAlign=middle;whiteSpace=wrap;rounded=0;" vertex="1" parent="1">
          <mxGeometry x="4245" y="599" width="310" height="30" as="geometry" />
        </mxCell>
        <mxCell id="FcwqcfeG6PIgrdVunfL2-462" value="&amp;lt;&amp;lt;Interface&amp;gt;&amp;gt;&lt;br&gt;Runnable" style="swimlane;html=1;fontStyle=0;childLayout=stackLayout;horizontal=1;startSize=60;fillColor=none;horizontalStack=0;resizeParent=1;resizeLast=0;collapsible=1;marginBottom=0;swimlaneFillColor=#ffffff;rounded=0;shadow=0;comic=0;labelBackgroundColor=none;strokeWidth=1;fontFamily=Verdana;fontSize=10;align=center;" vertex="1" parent="1">
          <mxGeometry x="3570" y="299" width="240" height="40" as="geometry" />
        </mxCell>
        <mxCell id="FcwqcfeG6PIgrdVunfL2-463" style="edgeStyle=orthogonalEdgeStyle;rounded=0;orthogonalLoop=1;jettySize=auto;html=1;entryX=0.5;entryY=1;entryDx=0;entryDy=0;endArrow=block;endFill=0;endSize=12;dashed=1;" edge="1" parent="1" source="FcwqcfeG6PIgrdVunfL2-384" target="FcwqcfeG6PIgrdVunfL2-462">
          <mxGeometry relative="1" as="geometry" />
        </mxCell>
        <mxCell id="FcwqcfeG6PIgrdVunfL2-465" value="model" style="text;html=1;strokeColor=none;fillColor=none;align=center;verticalAlign=middle;whiteSpace=wrap;rounded=0;" vertex="1" parent="1">
          <mxGeometry x="4120" y="490" width="60" height="30" as="geometry" />
        </mxCell>
        <mxCell id="FcwqcfeG6PIgrdVunfL2-466" value="1" style="text;html=1;strokeColor=none;fillColor=none;align=center;verticalAlign=middle;whiteSpace=wrap;rounded=0;" vertex="1" parent="1">
          <mxGeometry x="4120" y="530" width="60" height="30" as="geometry" />
        </mxCell>
        <mxCell id="FcwqcfeG6PIgrdVunfL2-467" style="edgeStyle=orthogonalEdgeStyle;rounded=0;orthogonalLoop=1;jettySize=auto;html=1;" edge="1" parent="1" source="FcwqcfeG6PIgrdVunfL2-386">
          <mxGeometry relative="1" as="geometry">
            <mxPoint x="1820" y="-1130" as="targetPoint" />
            <Array as="points">
              <mxPoint x="4490" y="472" />
              <mxPoint x="4490" y="-1130" />
              <mxPoint x="1820" y="-1130" />
            </Array>
          </mxGeometry>
        </mxCell>
        <mxCell id="FcwqcfeG6PIgrdVunfL2-469" value="controller" style="text;html=1;strokeColor=none;fillColor=none;align=center;verticalAlign=middle;whiteSpace=wrap;rounded=0;" vertex="1" parent="1">
          <mxGeometry x="4230" y="440" width="60" height="30" as="geometry" />
        </mxCell>
        <mxCell id="FcwqcfeG6PIgrdVunfL2-470" value="1" style="text;html=1;strokeColor=none;fillColor=none;align=center;verticalAlign=middle;whiteSpace=wrap;rounded=0;" vertex="1" parent="1">
          <mxGeometry x="4230" y="470" width="60" height="30" as="geometry" />
        </mxCell>
        <mxCell id="FcwqcfeG6PIgrdVunfL2-471" value="N.B: Tutte le classi del modello implementano l&#39;interfaccia &quot;Serializable&quot;, per motivi di spazio e per facilitare la lettura dell&#39;UML, abbiamo specificato &quot;implements Serializable&quot; solo per la classe Game" style="text;html=1;strokeColor=none;fillColor=none;align=center;verticalAlign=middle;whiteSpace=wrap;rounded=0;" vertex="1" parent="1">
          <mxGeometry x="267.5" y="-330" width="385" height="30" as="geometry" />
        </mxCell>
        <mxCell id="FcwqcfeG6PIgrdVunfL2-476" value="&amp;lt;&amp;lt;interface&amp;gt;&amp;gt;&lt;br&gt;Serializable" style="swimlane;html=1;fontStyle=0;childLayout=stackLayout;horizontal=1;startSize=60;fillColor=none;horizontalStack=0;resizeParent=1;resizeLast=0;collapsible=1;marginBottom=0;swimlaneFillColor=#ffffff;rounded=0;shadow=0;comic=0;labelBackgroundColor=none;strokeWidth=1;fontFamily=Verdana;fontSize=10;align=center;" vertex="1" parent="1">
          <mxGeometry x="340" y="-270" width="240" height="40" as="geometry" />
        </mxCell>
      </root>
    </mxGraphModel>
  </diagram>
</mxfile>
